<svg xmlns="http://www.w3.org/2000/svg" xmlns:xlink="http://www.w3.org/1999/xlink" viewBox="0 0 720 1008">
  <defs>
    <style>
      .cls-1 {
        fill: #fff;
      }

      .cls-2 {
        fill: #333;
      }
    </style>
    <symbol id="SC8" data-name="SC8" viewBox="0 0 20.82 22.24">
      <path d="M11.08,7.81C11.19,2.57,12.3,2.23,13.31,0H7.51c1,2.23,2.12,2.57,2.23,7.81A.22.22,0,0,1,9.52,8a.22.22,0,0,1-.23-.22,4.68,4.68,0,1,0-3.75,5.45,4.6,4.6,0,0,0,2.1-1,.22.22,0,0,1,.31.05.21.21,0,0,1,0,.26,5.12,5.12,0,1,0,4.91,0,.23.23,0,0,1,.05-.31.21.21,0,0,1,.26,0A4.69,4.69,0,1,0,12.5,5.7a4.76,4.76,0,0,0-1,2.11.22.22,0,1,1-.44,0Z"/>
    </symbol>
  </defs>
  <g id="Layer_2" data-name="Layer 2">
    <g>
      <rect class="cls-1" x="1.5" y="1.5" width="717" height="1005" rx="48.5"/>
      <path class="cls-2" d="M670,3a47,47,0,0,1,47,47V958a47,47,0,0,1-47,47H50A47,47,0,0,1,3,958V50A47,47,0,0,1,50,3H670m0-3H50A50,50,0,0,0,0,50V958a50,50,0,0,0,50,50H670a50,50,0,0,0,50-50V50A50,50,0,0,0,670,0Z"/>
    </g>
    <use width="20.81" height="22.24" transform="matrix(-8.66, 0, 0, 8.61, 306.13, 707.24)" xlink:href="#SC8"/>
    <use width="20.81" height="22.24" transform="matrix(-8.66, 0, 0, 8.61, 604.83, 707.24)" xlink:href="#SC8"/>
    <use width="20.81" height="22.24" transform="matrix(8.66, 0, 0, -8.61, 420.74, 281.8)" xlink:href="#SC8"/>
    <use width="20.81" height="22.24" transform="matrix(8.66, 0, 0, -8.61, 127.94, 281.8)" xlink:href="#SC8"/>
    <use width="20.81" height="22.24" transform="matrix(8.66, 0, 0, -8.61, 269.87, 595.63)" xlink:href="#SC8"/>
    <use width="20.81" height="22.24" transform="matrix(-2.81, 0, 0, 2.78, 680, 785.07)" xlink:href="#SC8"/>
    <use width="20.81" height="22.24" transform="matrix(2.88, 0, 0, -2.86, 42.25, 216.56)" xlink:href="#SC8"/>
    <path d="M70.11,135.84A28.67,28.67,0,0,1,51.61,129a42,42,0,0,1-11.55-16.17l11.24-4.62a29.58,29.58,0,0,0,7.19,10.59,16.78,16.78,0,0,0,11.69,4.92q9,0,14.95-8.21a26.93,26.93,0,0,0,5.39-16.32A26.18,26.18,0,0,0,85.13,83q-5.85-7.77-15-7.77-7.76,0-15.4,8.14L46,78.31V42H91V54H58V65.77a29,29,0,0,1,12-2.64q14.18,0,23.61,11.33a37.27,37.27,0,0,1,8.88,24.75,38.48,38.48,0,0,1-8.74,25Q84.24,135.83,70.11,135.84Z"/>
    <path d="M649.94,866.16A28.72,28.72,0,0,1,668.45,873,42.06,42.06,0,0,1,680,889.15l-11.24,4.62a29.84,29.84,0,0,0-7.19-10.59,16.78,16.78,0,0,0-11.69-4.92q-9,0-15,8.21a26.88,26.88,0,0,0-5.4,16.32,26.13,26.13,0,0,0,5.4,16.21q5.85,7.77,15,7.77,7.77,0,15.41-8.14l8.77,5.06V960h-45V948h33V936.23a29,29,0,0,1-12,2.64q-14.17,0-23.61-11.33a37.22,37.22,0,0,1-8.89-24.75,38.49,38.49,0,0,1,8.75-25Q635.82,866.17,649.94,866.16Z"/>
  </g>
</svg>
