<svg xmlns="http://www.w3.org/2000/svg" xmlns:xlink="http://www.w3.org/1999/xlink" viewBox="0 0 720 1008">
  <defs>
    <style>
      .cls-1 {
        fill: #fff;
      }

      .cls-2 {
        fill: #333;
      }
    </style>
    <symbol id="SC8" data-name="SC8" viewBox="0 0 20.82 22.24">
      <path d="M11.08,7.81C11.19,2.57,12.3,2.23,13.31,0H7.51c1,2.23,2.12,2.57,2.23,7.81A.22.22,0,0,1,9.52,8a.22.22,0,0,1-.23-.22,4.68,4.68,0,1,0-3.75,5.45,4.6,4.6,0,0,0,2.1-1,.22.22,0,0,1,.31.05.21.21,0,0,1,0,.26,5.12,5.12,0,1,0,4.91,0,.23.23,0,0,1,.05-.31.21.21,0,0,1,.26,0A4.69,4.69,0,1,0,12.5,5.7a4.76,4.76,0,0,0-1,2.11.22.22,0,1,1-.44,0Z"/>
    </symbol>
  </defs>
  <g id="Layer_2" data-name="Layer 2">
    <g>
      <rect class="cls-1" x="1.5" y="1.5" width="717" height="1005" rx="48.5"/>
      <path class="cls-2" d="M670,3a47,47,0,0,1,47,47V958a47,47,0,0,1-47,47H50A47,47,0,0,1,3,958V50A47,47,0,0,1,50,3H670m0-3H50A50,50,0,0,0,0,50V958a50,50,0,0,0,50,50H670a50,50,0,0,0,50-50V50A50,50,0,0,0,670,0Z"/>
    </g>
    <use width="20.81" height="22.24" transform="matrix(7.12, 0, 0, -7.08, 127.94, 253.23)" xlink:href="#SC8"/>
    <use width="20.81" height="22.24" transform="matrix(7.12, 0, 0, -7.08, 125.9, 467.67)" xlink:href="#SC8"/>
    <use width="20.81" height="22.24" transform="matrix(7.12, 0, 0, -7.08, 285.9, 578.6)" xlink:href="#SC8"/>
    <use width="20.81" height="22.24" transform="matrix(-7.12, 0, 0, 7.08, 274.1, 528.49)" xlink:href="#SC8"/>
    <use width="20.81" height="22.24" transform="matrix(-7.12, 0, 0, 7.08, 274.06, 746.77)" xlink:href="#SC8"/>
    <use width="20.81" height="22.24" transform="matrix(7.12, 0, 0, -7.08, 456.63, 253.23)" xlink:href="#SC8"/>
    <use width="20.81" height="22.24" transform="matrix(7.12, 0, 0, -7.08, 454.6, 467.67)" xlink:href="#SC8"/>
    <use width="20.81" height="22.24" transform="matrix(-7.12, 0, 0, 7.08, 602.79, 528.49)" xlink:href="#SC8"/>
    <use width="20.81" height="22.24" transform="matrix(-7.12, 0, 0, 7.08, 602.76, 746.77)" xlink:href="#SC8"/>
    <use width="20.81" height="22.24" transform="matrix(-2.81, 0, 0, 2.78, 680, 785.07)" xlink:href="#SC8"/>
    <use width="20.81" height="22.24" transform="matrix(2.88, 0, 0, -2.86, 42.25, 216.56)" xlink:href="#SC8"/>
    <path d="M87.41,100.83A27.13,27.13,0,0,1,70,107q-13,0-21.67-10.23a34.59,34.59,0,0,1-8.36-23,34.3,34.3,0,0,1,8.36-23Q57,40.43,70,40.44q16.06,0,24.09,16.61,6.16,12.87,6.16,30.91,0,18.92-6,31.35-7.92,16.38-24.86,16.39-16.5,0-26.18-16.94l10.34-6.05Q59.7,123.6,69.37,123.6,83.79,123.6,87.41,100.83ZM70,52.54q-7.95,0-13.24,6.8a23.26,23.26,0,0,0,0,28.74Q62,94.89,70,94.89a15.71,15.71,0,0,0,11.69-5.16,24.51,24.51,0,0,0,6.07-11.52Q84.55,52.53,70,52.54Z"/>
    <path d="M632.59,899.61A27.08,27.08,0,0,1,650,893.45q13,0,21.67,10.23a35.79,35.79,0,0,1,0,46Q663,960,650,960q-16.07,0-24.09-16.61-6.17-12.87-6.16-30.91,0-18.91,6-31.35,7.92-16.39,24.86-16.39,16.5,0,26.18,16.94l-10.34,6.05q-6.16-10.89-15.84-10.89Q636.21,876.84,632.59,899.61ZM650,947.9q8,0,13.24-6.8a23.27,23.27,0,0,0,0-28.75q-5.29-6.79-13.24-6.8a15.71,15.71,0,0,0-11.69,5.16,24.51,24.51,0,0,0-6.07,11.52Q635.45,947.9,650,947.9Z"/>
  </g>
</svg>
