<svg xmlns="http://www.w3.org/2000/svg" xmlns:xlink="http://www.w3.org/1999/xlink" viewBox="0 0 720 1008"><defs><symbol id="SC8" data-name="SC8" viewBox="0 0 20.82 22.24"><path d="M11.08,7.81C11.19,2.57,12.3,2.23,13.31,0H7.51c1,2.23,2.12,2.57,2.23,7.81A.22.22,0,0,1,9.52,8a.22.22,0,0,1-.23-.22,4.68,4.68,0,1,0-3.75,5.45,4.6,4.6,0,0,0,2.1-1,.22.22,0,0,1,.31.05.21.21,0,0,1,0,.26,5.12,5.12,0,1,0,4.91,0,.23.23,0,0,1,.05-.31.21.21,0,0,1,.26,0A4.69,4.69,0,1,0,12.5,5.7a4.76,4.76,0,0,0-1,2.11.22.22,0,1,1-.44,0Z"/></symbol></defs><g id="Layer_2" data-name="Layer 2"><rect x="1.5" y="1.5" width="717" height="1005" rx="48.5" style="fill:#fff"/><path d="M670,3a47,47,0,0,1,47,47V958a47,47,0,0,1-47,47H50A47,47,0,0,1,3,958V50A47,47,0,0,1,50,3H670m0-3H50A50,50,0,0,0,0,50V958a50,50,0,0,0,50,50H670a50,50,0,0,0,50-50V50A50,50,0,0,0,670,0Z" style="fill:#333"/><use width="20.81" height="22.24" transform="matrix(14.74, 0, 0, -14.66, 206.61, 664.76)" xlink:href="#SC8"/><use width="20.81" height="22.24" transform="matrix(-2.81, 0, 0, 2.78, 680, 785.07)" xlink:href="#SC8"/><use width="20.81" height="22.24" transform="matrix(2.88, 0, 0, -2.86, 42.25, 216.56)" xlink:href="#SC8"/><path d="M66,124.32v11.11H41.47V124.32h8L64.68,43.25H78.43l15.29,81.07h8v11.11H77.22V124.32h5.31l-1.76-9.68H62.51l-1.82,9.68Zm-1.53-20.79H78.72l-7.15-37.9Z"/><path d="M655.47,878.93V867.82H680v11.11h-8L656.79,960H643l-15.29-81.07h-8V867.82h24.53v11.11h-5.31l1.76,9.67H659l1.81-9.67ZM657,899.72H642.75l7.15,37.91Z"/></g></svg>