<svg xmlns="http://www.w3.org/2000/svg" xmlns:xlink="http://www.w3.org/1999/xlink" viewBox="0 0 720 1008">
  <defs>
    <style>
      .cls-1 {
        fill: #fff;
      }

      .cls-2 {
        fill: #333;
      }

      .cls-3 {
        fill: #fefefe;
      }

      .cls-4 {
        fill: #e9e9e9;
      }

      .cls-5 {
        fill: #202020;
      }

      .cls-6 {
        fill: #5b5b5b;
      }

      .cls-7 {
        fill: #525252;
      }

      .cls-8 {
        fill: #6b6b6b;
      }

      .cls-9 {
        fill: #212121;
      }

      .cls-10 {
        fill: #6d6d6d;
      }

      .cls-11 {
        fill: #747474;
      }

      .cls-12 {
        fill: #888;
      }

      .cls-13 {
        fill: #8b8b8b;
      }

      .cls-14 {
        fill: #626262;
      }

      .cls-15 {
        fill: #757575;
      }

      .cls-16 {
        fill: #696969;
      }

      .cls-17 {
        fill: #7c7c7c;
      }

      .cls-18 {
        fill: #5d5d5d;
      }

      .cls-19 {
        fill: #565656;
      }

      .cls-20 {
        fill: #6a6a6a;
      }

      .cls-21 {
        fill: #5f5f5f;
      }

      .cls-22 {
        fill: #737373;
      }

      .cls-23 {
        fill: #6f6f6f;
      }

      .cls-24 {
        fill: #5c5c5c;
      }

      .cls-25 {
        fill: #5a5a5a;
      }

      .cls-26 {
        fill: #777;
      }

      .cls-27 {
        fill: #7d7d7d;
      }

      .cls-28 {
        fill: #818181;
      }

      .cls-29 {
        fill: #7e7e7e;
      }

      .cls-30 {
        fill: gray;
      }

      .cls-31 {
        fill: #5e5e5e;
      }

      .cls-32 {
        fill: #282828;
      }

      .cls-33 {
        fill: #272727;
      }

      .cls-34 {
        fill: #303030;
      }

      .cls-35 {
        fill: #636363;
      }

      .cls-36 {
        fill: #2e2e2e;
      }

      .cls-37 {
        fill: #2a2a2a;
      }

      .cls-38 {
        fill: #7a7a7a;
      }

      .cls-39 {
        fill: #646464;
      }

      .cls-40 {
        fill: #787878;
      }

      .cls-41 {
        fill: #606060;
      }

      .cls-42 {
        fill: #e7e7e7;
      }

      .cls-43 {
        fill: #717171;
      }

      .cls-44 {
        fill: #e8e8e8;
      }

      .cls-45 {
        fill: #666;
      }

      .cls-46 {
        fill: #707070;
      }

      .cls-47 {
        fill: #656565;
      }

      .cls-48 {
        fill: #6c6c6c;
      }

      .cls-49 {
        fill: #515151;
      }

      .cls-50 {
        fill: #535353;
      }

      .cls-51 {
        fill: #616161;
      }

      .cls-52 {
        fill: #595959;
      }

      .cls-53 {
        fill: #7f7f7f;
      }

      .cls-54 {
        fill: #7b7b7b;
      }

      .cls-55 {
        fill: #848484;
      }

      .cls-56 {
        fill: #797979;
      }

      .cls-57 {
        fill: #e6e6e6;
      }

      .cls-58 {
        fill: #e5e5e5;
      }

      .cls-59 {
        fill: #e4e4e4;
      }
    </style>
    <symbol id="SC8" data-name="SC8" viewBox="0 0 20.82 22.24">
      <path d="M11.08,7.81C11.19,2.57,12.3,2.23,13.31,0H7.51c1,2.23,2.12,2.57,2.23,7.81A.22.22,0,0,1,9.52,8a.22.22,0,0,1-.23-.22,4.68,4.68,0,1,0-3.75,5.45,4.6,4.6,0,0,0,2.1-1,.22.22,0,0,1,.31.05.21.21,0,0,1,0,.26,5.12,5.12,0,1,0,4.91,0,.23.23,0,0,1,.05-.31.21.21,0,0,1,.26,0A4.69,4.69,0,1,0,12.5,5.7a4.76,4.76,0,0,0-1,2.11.22.22,0,1,1-.44,0Z"/>
    </symbol>
  </defs>
  <g id="Layer_2" data-name="Layer 2">
    <g>
      <rect class="cls-1" x="1.5" y="1.5" width="717" height="1005" rx="48.5"/>
      <path class="cls-2" d="M670,3a47,47,0,0,1,47,47V958a47,47,0,0,1-47,47H50A47,47,0,0,1,3,958V50A47,47,0,0,1,50,3H670m0-3H50A50,50,0,0,0,0,50V958a50,50,0,0,0,50,50H670a50,50,0,0,0,50-50V50A50,50,0,0,0,670,0Z"/>
    </g>
    <use width="20.81" height="22.24" transform="matrix(-2.81, 0, 0, 2.78, 680, 785.07)" xlink:href="#SC8"/>
    <use width="20.81" height="22.24" transform="matrix(2.88, 0, 0, -2.86, 42.25, 216.56)" xlink:href="#SC8"/>
    <path d="M52,100v5.61q0,6.61,2.78,10.57,3.33,4.74,10,4.73a11.33,11.33,0,0,0,9.11-4.07A14.15,14.15,0,0,0,77,107.48V53H67V40H99V53H90v54.48q0,11.13-6.7,18.61a23.16,23.16,0,0,1-18,7.81A23.79,23.79,0,0,1,47,126.2a26.29,26.29,0,0,1-7-18.83V100Z"/>
    <path d="M668,900v-5.61q0-6.61-2.78-10.57-3.33-4.74-10-4.73a11.33,11.33,0,0,0-9.11,4.07,14.15,14.15,0,0,0-3.11,9.36V947h10v13H621V947h9V892.52q0-11.13,6.7-18.61a23.16,23.16,0,0,1,18-7.81A23.82,23.82,0,0,1,673,873.8a26.29,26.29,0,0,1,7,18.83V900Z"/>
    <g>
      <path class="cls-3" d="M99.15,503.33q0-199.09-.15-398.19c0-5.19,1-6.21,6.19-6.2q254.81.25,509.62,0c5.17,0,6.19,1,6.19,6.2q-.24,398.19,0,796.39c0,5.18-1,6.21-6.19,6.2q-254.8-.26-509.62,0c-5.17,0-6.2-1-6.19-6.2Q99.27,702.44,99.15,503.33Z"/>
      <path class="cls-4" d="M110,883.64c-.68-7,.43-10.6,5.18-13.51,7.64-4.66,7-14-.68-19.08-6.56-4.31-6.72-11.89-.34-16.43,8.71-6.19,8.51-14.2-.52-20.35-5.55-3.78-5.52-11.68,0-15.73,9.33-6.79,9.18-13.75-.42-20.44-4.89-3.41-5-11.87-.14-15.58,10.57-8.12,10.49-12.82-.35-21-4.48-3.39-4.11-10.73.78-15.08,9.36-8.35,9.28-13.62-.31-21-4.77-3.65-4.84-10.62-.14-15,10-9.35,9.93-12.64-.21-21.36-4.79-4.11-4.27-11.44,1.09-15.55,9-6.89,8.79-13.61-.62-19.92-5.22-3.5-5.07-11.91.28-16,9.37-7.15,9.19-13.72-.57-20.49-4.6-3.18-4.67-11.11-.13-15,10.2-8.71,10.14-13.9-.24-21.54-4.58-3.38-4.08-11.83.92-15.65,9.4-7.19,9.23-13.74-.54-20.49-4.59-3.18-4.68-11.12-.16-15,10.2-8.74,10.15-13.95-.21-21.55-4.42-3.25-4.13-11.22.55-15,10.62-8.62,10.52-13.41-.46-21.25-4.19-3-4.32-10.85-.24-14.58,11.78-10.75,11.76-12.7-.17-22-3.76-2.92-3.72-10.75.08-14.07C124,391,124,387.6,112.51,378.82c-4.09-3.12-3.79-11,.56-14.45,10-8,9.85-14-.42-21.81-4.18-3.16-4-11,.29-14.44,10.1-8.09,10.11-14.45,0-21.73-4.63-3.34-4.47-11.17.31-14.81,9.79-7.46,9.72-13.76-.22-21.19-4.91-3.67-4.6-11.55.6-15.36,9.27-6.8,9.16-14-.31-20.82-5-3.62-5-11.57,0-15.36,9.39-7.08,9.54-13.06.53-20.42-5.83-4.76-5.82-10.76,0-15.54,8.58-7,8.7-13.68.39-20.47-6.34-5.17-6.41-10.95-.21-16,8.5-6.92,8.81-14-.08-20.33-6-4.27-4-9.71-4-15a4.1,4.1,0,0,1,4.45-4.22c5.31,0,10.67-1.7,14.87,4.33,6,8.59,13.27,8.22,19.63,0,4.82-6.23,11.29-6.4,16.15-.42,7.33,9,14.68,8.86,21.28-.38,4-5.66,12.17-5.29,16.05.74,5.39,8.37,14.81,8.46,20.14.2,4.09-6.34,11.67-6.62,16.57-.62,7.34,9,13.31,8.94,20.62-.21,4.22-5.27,11.08-5.41,15.34-.31,8,9.59,13.4,9.64,21,.2,4.64-5.74,12.76-5.27,16.79,1,5.31,8.23,14.73,8.11,20.13-.27,4.13-6.4,11.78-6.3,16.16.21,5.24,7.79,14.56,8,19.95.4,5.08-7.15,12.49-7.17,17.54,0,5.5,7.75,13.71,7.69,18.9-.13,4.49-6.76,12.13-6.93,17.21-.39,6.59,8.48,13.93,8.44,20.06-.09,4.68-6.5,12.41-6.21,16.91.64,5.09,7.76,14.67,7.65,19.79-.24,4.44-6.84,12.25-6.86,16.75,0,5.07,7.71,13.53,8.08,19.33.86,6.32-7.87,11.69-7.91,17.88-.11,5.7,7.16,13,7,18.82-.45s12.36-7.2,18,.53c4.88,6.67,15.18,7,19-.24,4-7.64,10.07-5.54,15.65-4.81,4.53.6,5.47,13.12,1.51,17.15-.87.88-2.1,1.4-3.06,2.21-7.38,6.18-7.25,12.66.34,18.68,6.92,5.48,6.91,11.82,0,17.1-7.52,5.73-7.59,13.7-.16,19.51s7.17,11.49-.58,17.16c-6.35,4.64-6.59,13-.52,18,8.71,7.17,8.7,11.82,0,18.67a11.16,11.16,0,0,0-.07,17.59c8.74,7.27,8.78,12,.17,18.68a10.89,10.89,0,0,0,.44,17.91c8.08,5.5,8.08,12.59,0,18.1-6.8,4.65-6.8,13.58,0,18.22,7.92,5.41,8.1,12.42.44,17.49-7.08,4.69-7.22,13.92-.27,18.92,7.76,5.58,7.8,12.34.11,17.49-7,4.68-7,13.94,0,18.94,7.65,5.44,7.57,12.18-.22,17.48a11.24,11.24,0,0,0-.27,18.55c8.22,6.13,8.26,12.25.12,17.88a10.92,10.92,0,0,0,.2,18.36c7.53,5.08,7.72,11.68.5,17.28-7.49,5.81-7.56,13-.2,18.74s7.35,12,.15,17.63-7.25,12.9.07,18.83c7.15,5.8,7.06,11.9-.27,17.65-7.1,5.56-7.22,12.78-.32,18.3,7.8,6.25,7.89,12.07.27,18.06-6.87,5.4-6.89,12.73,0,18.4,7.67,6.37,7.57,11.78-.35,17.84-6.29,4.81-6.32,13.08-.06,18.06,8,6.38,8.15,11.72.48,17.71-7,5.46-6.92,13.75.21,19.06s7.13,11.51-.26,17.3c-7,5.48-6.86,13.72.31,19.06,7,5.2,7.08,11.78.28,16.9-7.85,5.92-7.68,13.89.42,19.85,6.29,4.62,6.05,12.11-.52,16.43-8,5.23-7.92,14.34.12,19.56,6.43,4.18,6.71,11.88.59,16.46-8.9,6.69-8.74,14.21.43,20.36,5,3.34,5.29,11.59.56,15.41-10,8.07-10.14,12.32-.08,20.62,5,4.08,2.93,9.19,3,14,0,3-2.2,4.69-5,4.43-4.74-.42-10,3.28-13.9-3.6-5.15-9-14-8.8-20.14-.55-5,6.63-10.37,6.79-15.88.46-7.42-8.51-14-8.47-21.24.13-4.54,5.39-11.67,5.26-15.86-.29-6.5-8.63-14.38-8.33-20.65.77a9.65,9.65,0,0,1-15.93.17c-6.29-9-12.41-9.51-19.55-1.7-6.59,7.2-12.16,7.11-18-.31-5.69-7.21-14.24-6.77-19.4,1-5,7.53-11.31,7.6-16.51.17-5.8-8.27-13.4-8.53-19.81-.68-5.26,6.44-12.64,6.44-17.52,0-6-8-13.27-8-19.07-.12-6.32,8.63-11.78,8.63-17.72,0-5.09-7.39-13.38-7.62-18.75-.52-6,8-12.17,8.08-18.61.36-6.17-7.39-12.63-7.37-18.93.07-5.9,7-12.19,6.79-17.72-.48-5.36-7-13.22-6.72-18.8.78-5.22,7-12.46,6.93-17.64-.2-5.37-7.38-12.09-7.56-18.18-.49-7.18,8.34-12.5,8.33-18.85,0-5.21-6.87-13.11-6.68-18.21.44s-12.77,7.05-18.15-.22-13.33-7.17-18.77.2c-2.92,4-12.81,6.79-17.21,4.8C108.81,887.77,110.13,884.27,110,883.64Z"/>
      <path class="cls-5" d="M152.09,630.5c-.12-10.82-.08-21.65-.41-32.47-.14-4.51,2-5.2,5.89-5.54,60.19-5.36,107-46.59,119.22-105,4-19,3.31-38.07-1.06-57-.39-1.68-1.46-3.28,0-6.56l48.86,62.6c1.88,1.55,4.47,2.64,3.9,5.82-1.71,9.7,3.66,16.21,10,22.31,1.67,2.59,2,5.66,3.07,8.48,2.87,7.81,8,12.6,16.67,12.89,3.22.11,6.72,0,8.28,3.83,12.52,16,25,32.07,37.59,48a14.89,14.89,0,0,1,3.7,10.23c-.3,10.79-.22,21.59-.29,32.38a2.33,2.33,0,0,1-3.25.32c-7.12-4.91-12.75-.09-18.57,3-2.89,1.51-4.81,4-7.06-1.48-1.41-3.39-6.87-4.6-9-8.57-9.75,10.27-16.37,10.3-25.85.39-9.38,9.53-13.7,9.9-23.86,1.41-2.06-1.73-2.49-.91-4,.43-8.19,7.45-13.14,7.54-21.27,0-2.08-1.91-2.61-1.68-4.51.11-7.66,7.24-13.34,7.35-20.76.3-2.15-2.05-2.84-2.24-5.09-.07-7.15,6.91-13.24,7.05-20.25.38-2.51-2.39-3.38-2.17-5.74.1-6.13,5.88-13.14,6.87-18,1.51-4.31-4.71-6.45-3.38-9.62.44-.87,1-2.62,1.35-4,2-2.61,3.55-5.94,3.85-9.64,2-2.67-1.32-5.31-2.56-8.36-1.29-2.38-.5-3.73,1.24-5.31,2.49-5.13,1.85-10.17.47-14.11-2.36-3.5-2.52-5.79-1.46-8.63.16-1.89.28-3.67,1.25-5.65.78A8.25,8.25,0,0,1,152.09,630.5Z"/>
      <path class="cls-5" d="M336.74,362.35a13.17,13.17,0,0,1,1.39.59c6.24,3.39,9.27,3.48,16.22.5,6.22-2.66,11-.95,17.63,6.27,11.18-10,16.43-10,25.74.07,10.77-10.18,16-10.17,25.72,0,10.34-10.28,16.17-10.25,25.61.14,9.94-10.38,16.15-10.41,25.47-.15,9.91-9.62,14.13-10,23.91-1.64,1.86,1.58,2.65,1.7,3.95-.2,1.92-2.83,4.8-4.36,7.88-5.59,2.51-4,5.78-2.86,8.94-1.15,2.91,1.59,5.73,3.07,9.08,1.35,1.5.15,2.58-.73,3.68-1.52,5.21-3.36,10.24-1.23,14.76,1.2,2.89,1.55,5,1.45,7.56,0,3.09.16,6.23-3.57,9.26.14.88,12.65,1.23,25.3-.18,37.93-46.82,3.5-83.67,24.16-108.23,64.62-18,29.72-22.58,62.07-15.31,96.07.47,2.19,1.61,4.28.13,8.13l-49-62.75c-3.47-1.62-3.06-4.78-3.12-7.79-.12-6.61-2.17-12.33-7.81-16.29-2.85-2-4.13-4.7-4.85-8.11-2.57-12.24-9.66-17.62-22.41-17.44a3.51,3.51,0,0,1-2.6-1.9c-12-15.49-23.88-31.11-36.14-46.4-4.16-5.18-6.45-10.42-6.07-17.14.42-7.53.12-15.09.13-22.64,1.63-1.84-1.48-5.87,3-6.39l7.18,3.54c3.15,1.77,4.87-1.11,7.18-2.17C329,362,332.48,358.59,336.74,362.35Z"/>
      <path class="cls-5" d="M336.7,217.08C325.58,195,314.54,172.94,303.27,151c-2.48-4.85-1.2-6.1,3.84-6.07,20.41.13,40.82,0,61.23.1a32.35,32.35,0,0,0,14.47-3.31q53.93-25.41,107.83.34a28.84,28.84,0,0,0,13,3c20.41-.09,40.83.1,61.24-.11,5.91-.06,7.08,1.42,4.29,6.83-11.18,21.73-22.1,43.6-33.12,65.41-2.74,2.08-6.25-.38-9,1.54h0c-4.62,4.11-10.39,2.51-15.71,3.15a5.22,5.22,0,0,1-2.36.05,153.68,153.68,0,0,0-15.48-.07l-2.7-.23c-9.2-5.24-19.28-3.57-29.08-3.59-39-.09-78,0-116.94-.08C342.1,217.89,339.25,218.7,336.7,217.08Z"/>
      <path class="cls-5" d="M180.82,775.8l7.27-.15c3.45-1.14,6.47-3.56,10.33-3.52a10.43,10.43,0,0,0,6.6.24c3.53,1.16,7-.47,10.55-.12,2.18.83,4.46.1,6.68.38,3.57.43,7.49-.3,10.14,3.11,46.59,0,93.19,0,139.78-.16,4.87,0,7.66,1.24,9.91,5.88,9.87,20.4,20.2,40.58,30.33,60.86.87,1.74,2.3,3.34,1.68,6.32h-45c-2.52,0-5.05.11-7.56,0a81.06,81.06,0,0,0-36.41,6.7c-33,13.87-66.33,12.31-98.73-3.15a34.82,34.82,0,0,0-15.89-3.6c-19.89.2-39.79-.09-59.68.17-5.92.08-6.89-1.24-4.13-6.58,11.07-21.5,21.83-43.15,32.71-64.74C179.89,776.87,179.89,775.93,180.82,775.8Z"/>
      <path class="cls-5" d="M457.8,548.68a110.1,110.1,0,0,1,0-33.07c1.61-1.38-.18-3.49,1.06-4.94,7.16-45.83,50.64-86,96.09-88.75,9.63-.59,9.83-.59,9.6,9.33-.5,22.62,2.45,45.51-2.76,67.81-10.63,45.53-38.71,75.16-83.24,89.29-4.06,1.29-6.44.88-8.43-3.16-5-10.2-9.65-20.49-11.14-31.9C459.36,551.55,458.41,550.16,457.8,548.68Z"/>
      <path class="cls-5" d="M155,572.75c-2.24.16-3.27-1-3.2-3.13,1-26.35-3.47-53.1,3.57-79,11.67-42.92,39.32-70.9,81.73-84.42,5.16-1.65,7.74-.67,10,4.19,4.09,8.95,8,17.91,9.71,27.67.5,1.1-.21,2.52.95,3.42a111.47,111.47,0,0,1-64.57,121.86c-9.2,4.07-18.69,7.4-28.88,8C160.45,567.1,157.87,571,155,572.75Z"/>
      <path class="cls-5" d="M489.94,709.87c9.68-21.9,24-30.57,42.26-26a33.63,33.63,0,0,1,25,34.43,32.86,32.86,0,0,1-14.18,25.54c-8.4,6.09-18.13,6.82-29.48,5.8,7.62,10,12,19.54,9.5,31-3.08,14.25-11.7,23.5-25.75,26.53s-26.16-1.38-34.51-13.29-8.47-24.37-1.25-37c1.06-1.87,4-3.46,2.77-5.74s-4-1.08-6.2-1.1c-18.6-.15-32.81-12.24-35.07-29.9C421,704,432.5,687.48,448.48,683.77c17.47-4.07,33.46,4.89,40.15,22.51C489,707.21,489.32,708.15,489.94,709.87Z"/>
      <path class="cls-5" d="M248.13,245.8c23.31-3.31,39.17,5.64,43.91,24.16a33.65,33.65,0,0,1-20.29,39.41c-18.3,7.2-33.76-.74-46.33-24.27-3.16,11-9.25,19.19-19.51,23.69a33.22,33.22,0,0,1-24.33,1.07c-16.3-5.36-25.54-21.8-22-39,3.75-18.43,18.87-27.41,43-25.51-13.84-22.33-13-39.25,2.5-51.67a33.92,33.92,0,0,1,44.8,2.7C263,209.81,262.59,228.15,248.13,245.8Z"/>
      <path class="cls-6" d="M298.41,683.55a24,24,0,0,1-23.24,24.05c-13.24.26-24.42-10.61-24.35-23.69a23.53,23.53,0,0,1,23.61-23.49C287.54,660.37,298.3,670.75,298.41,683.55Z"/>
      <path class="cls-6" d="M417.89,309.42c.1-13.12,10.47-23.18,23.8-23.07a23.24,23.24,0,0,1,23.4,23.58,23.86,23.86,0,0,1-23.54,23.69C428.2,333.68,417.78,323,417.89,309.42Z"/>
      <path class="cls-7" d="M345.93,712.39c-.37,2.7-.75,5.41-1.39,10.09,8.92-8.09,18.69-7.15,28.36-7.19,4.42,0,6.46,1.37,6.25,6.06-.34,7.27,2.28,16.27-1.11,21.39-3.87,5.85-13.5,1.14-20.54,2.13-3.85.54-7.9-.59-12.46,1.28,3.61,5.29,8.34,6.87,13.76,7,5,.11,10.06,0,15.08.05,2.65,0,5.15.17,5,3.89-.11,3.3-2.4,3.38-4.73,3.39-5.53,0-11.08.32-16.58-.11-15.82-1.22-25.5-13.57-22.65-29.23,1.62-8.88,4.17-17.6,6.3-26.38C347.84,704.19,345.22,709.32,345.93,712.39Z"/>
      <path class="cls-8" d="M336.7,217.08q58.56,0,117.13.11c13.33,0,26.68-.54,39.94,1.45,2.45,2.8.66,5.34-.48,7.92-14.41,32.69-13.84,65.28,2.06,97.09,7.11,14.22,16.69,27,30.11,36.38,1.88,1.31,4.44,2.64,4.7,5.58-2,2.47-4.12,4.48-7.11,1.16-3.45-3.82-8-4.42-12.79-4.39-16.95-17.5-29.53-37.54-34.85-61.58-5.59-25.23-4.11-50,5.89-74,3.35-8.06,3.36-8.08-5.54-8.08q-64.87,0-129.75-.06C342.89,218.63,339.42,219.81,336.7,217.08Z"/>
      <path class="cls-6" d="M380,684.21c6.46-7.83,12.51-14.57,20.49-19.09,2.05-1.17,4.61-4.88,6.74-1.47,1.66,2.65.67,6.14-2.72,8.44a87.08,87.08,0,0,0-10.39,8.72,52.84,52.84,0,0,0-13.49,21.61c-1.51,4.42-3.68,4.68-7.34,3.17-9.55-3.92-15.45-14.48-14-25.26,1.45-10.56,9.22-17.92,20.07-18.62,2.64-.17,4-1.9,5.74-3.2,5.05-3.79,10.16-7.51,16-9.93,1.84-.77,4.59-4.06,6.16-.09,1.1,2.77.8,5.84-2.84,7.58a79.48,79.48,0,0,0-21.36,15.38C379.73,674.77,378.22,678.33,380,684.21Z"/>
      <path class="cls-9" d="M186.93,342.36c9-5.68,16.57-10.45,22.84-17a92.34,92.34,0,0,0,16.12-23.49c8.64,18,21.25,30.85,39.88,40.47Z"/>
      <path class="cls-5" d="M529.34,652.27c-9.16,5.31-16.84,10.37-23.34,17.05-6.35,6.53-11.09,14.2-16,22.95-8.57-17.68-21.07-30.63-39.7-40Z"/>
      <path class="cls-10" d="M353.16,454.79c11.72-3.23,23,4,25.49,16.42.54,2.65.07,5.68,2.78,7.42,10.51,6.76,11.43,16.78,9.54,27.78-5.55,5.9-12.9,10.24-13.54,19.9-.43,6.42-7.09,9.13-10.95,13.52-5.88-.62-12,1.21-17.64-1.81-8.9-4.79-12-12.89-12.57-22.36a8.26,8.26,0,0,1,2.41-7.87c9.17-3.36,12.12-1.24,11.26,8.22-.39,4.28.13,8.16,4.21,10.5a7.37,7.37,0,0,0,8.52-.63,8.76,8.76,0,0,0,3.22-10.14c-1.82-5.95.05-9,6.05-10.36,4-.89,6.68-3.57,7-7.92a8.3,8.3,0,0,0-5.12-8.55c-6.19-2.57-9.2-5.93-7.52-13.26,1.08-4.71-2.43-7.9-7.11-9.21-2.6-.73-5.64-.35-7.5-3C349.46,460.09,350.62,457.32,353.16,454.79Z"/>
      <path class="cls-11" d="M444.06,270c-4.3,7.11-11.36,8.25-18.79,9.29-11.91,1.66-19.17-1.82-24-14-7-17.79-8.18-15.8,10.37-15.9,14.88-.07,29.35,1.37,40.6,12.77,2,2,5.9,3.92,4.62,7-1.09,2.68-5,1-7.64,1.25a34.55,34.55,0,0,1-5.26-.32,13.65,13.65,0,0,0-4.76-2.09C440.66,268.18,442.32,269.21,444.06,270Z"/>
      <path class="cls-8" d="M527.08,218.66c2.75-2,6-1.31,9-1.54.7,7.72-1.1,14.47-5,21.47-18.89,33.76-7.15,76.27,26,96.31a36.86,36.86,0,0,0,3.26,1.9c3.81,1.77,5.81,5,3.54,8.47-2,3.13-5-.08-7.19-1.21-41.84-21.88-55.57-76.57-29.11-115.73,1.82-2.7,3.76-5.3,5.8-8.16C531.51,217.9,529.08,219.1,527.08,218.66Z"/>
      <path class="cls-12" d="M218.36,369.47c-1.77,18-18.91,39.33-35.81,44.52-7.1,2.18-8.15,1.47-6.38-5.4,5.15-19.88,15.91-35.3,35.73-42.93C217.58,363.47,218.86,364.47,218.36,369.47Z"/>
      <path class="cls-6" d="M495.47,624.33c1.27-18.29,20.37-41,38.34-45.74,3.15-.82,5.32-1.45,4.75,3.4-2.23,19.19-19.47,40.82-37,46C496.18,629.63,495.15,629,495.47,624.33Z"/>
      <path class="cls-13" d="M147.34,400.42c-.54-10,2.37-19.9,6.65-29.43.77-1.71,1.29-4.27,3.78-4.09,1.91.13,2.57,2.26,3.27,3.84,9.07,20.51,9.2,41,0,61.55-.77,1.71-1.22,4.32-3.75,4.1-1.89-.17-2.51-2.37-3.26-3.9A66.47,66.47,0,0,1,147.34,400.42Z"/>
      <path class="cls-14" d="M556.9,555.94c9.72,15.16,11.28,31.53,8.94,48.56a59.52,59.52,0,0,1-7,20.59c-1.5,2.72-2.63,3-4.67.14C542.71,609.05,543.86,572,556.9,555.94Z"/>
      <path class="cls-15" d="M375.84,242.93c5.59,6.35,7,13.64,5.07,21.79q-4.05,16.86-7.88,33.78c-.57,2.54-2.22,5.79,1.56,7.12,3,1.05,6.3,4,9.31-.45,2.07-3.06,4.93-1.07,7.56-.67,3.9.6,8.5,4.91,11.15-2.21.63-1.7,2.71-.39,3.81.61,2.23,2.05,3.18,4.59,1.84,7.48s-3.84,4.83-7.24,4.14c-3.68-.75-7.24-2-10.88-3-3.19-.81-5.66-2.15-9.34,1.15-4.4,3.95-9.91-.8-14.68-2.37-4.11-1.36-1.78-5.14-1.17-7.85,2.11-9.31,4.41-18.58,6.63-27.87.53-2.86-1.91-3.74-3.48-5.21-1.82-1.68-4.17-1.91-6.46-2.24-3.67.22-6.71-1.79-9.76-3.23s-5.3-4.24-3.93-8c1.12-3,3.54-4.62,7.1-4.15,5.36.71,10.87-.45,16.19,1-.7-1.64.83-3.49,0-5.37l-1.42-1.54C369.4,240,371.94,240.1,375.84,242.93Z"/>
      <path class="cls-16" d="M510.36,218.49c5.6-3,11.12,1.21,16.7.17-22.91,31.27-25,64.1-7.31,98.4-3.64,4.73-7.49,1.49-11.28.29-9.65-17.3-13.07-35.59-10.66-55.41,1.59-13.11,5.82-25.07,11.76-36.57A9.62,9.62,0,0,0,510.36,218.49Z"/>
      <path class="cls-17" d="M371.27,247.46c3.68,5,.86,9.92.16,15.1-4-1.95-2.39-4.72-1.71-7.37-3.6,0-3.69,4.79-6.88,5-2.34-2.28,1.41-3.62.49-5.58-2.51-1.6-4.58,2.83-7.57.35-1.65-1.37-4.27.53-4.85,2.29-.81,2.48,2.25,3.29,3.67,3.93,2.88,1.29,6.49.51,9.22,2.71-.08,4.74,2.54,4.66,5.88,3.29,3.67,1.69,3.4,4.39,1.9,7.41-9,2.48-17.83,5.61-27.57,4.8-5.37-.44-8-1.82-7.44-7.48a67,67,0,0,0,.05-6.8c0-16.14,0-15.92,16.58-15.77C359.22,249.4,365.67,252,371.27,247.46Z"/>
      <path class="cls-18" d="M232.39,775.74l-11-.08c-1.38-2.31-.8-4.56.26-6.74,12.88-26.44,13.53-53.85,6.37-81.82-.47-1.82-1.12-3.5-.93-5.39,2-4.83,5.62-4,9.36-2.61,10.83,30.13,9.9,59.95-2.27,89.49C233.26,770.87,231.79,773.05,232.39,775.74Z"/>
      <path class="cls-19" d="M263.86,732c-1.09-1-2.27-1.85-3.26-2.92s-2.36-2.13-1.75-3.73,2.46-1.28,3.84-1.29c2.93,0,5.86.12,8.8.2a23.57,23.57,0,0,1,3,0c2.9,1.8,5.86,3.38,9.44,3.13,7.8-1.81,17.05,0,22.27-8.62.49-.81,1.76-.73,2.74-.29,3.42,7,6.91,13.92,10.23,20.94,1,2.13,2.81,5.48-1.67,5.33-15.56-.51-31.78,3-46-6.82C270.5,734,266.74,733.59,263.86,732Z"/>
      <path class="cls-6" d="M336.5,318.53l.05-9c-3.28-2.22-3.15-5.35-2.4-8.71.84-3.73,1.37-7.52,2.24-11.25.44-2.94,2.31-2.66,4.48-2.11,8.77,2.24,16.11,12.39,16.08,22.34,0,10.45-7.52,20.52-16.75,22.52-1.53.33-3,.51-3.79-1.33C331.33,326.81,334.72,322.68,336.5,318.53Z"/>
      <path class="cls-16" d="M536.13,243.31c0,10.78,0,19.58,0,28.37-.13,19.74,7.74,35.59,23,47.93,1.91,1.54,4.64,2.49,5.16,5.24a8.6,8.6,0,0,1-.37,5.09c-.93,1.87-2.59.46-3.9-.13C532.82,317.62,518.79,270.28,536.13,243.31Z"/>
      <path class="cls-20" d="M510.63,315.58l9.12,1.48c10.3,15.37,23.14,27.82,40.35,35.26,2.49,1.07,4.27,2.56,4.43,5.5a384.85,384.85,0,0,1,.07,40.76c0,.61-.81,1.18-1.24,1.76.09-9.77.23-19.54.21-29.32,0-3,.29-6.08-1.87-8.61-12.77-.78-22-8.38-31.08-16.22a97.63,97.63,0,0,1-18.89-21.91C510,321.63,507.55,318.91,510.63,315.58Z"/>
      <path class="cls-21" d="M180.82,775.8l-1.38,1.62c-.59-8.78,2-16.44,6.42-24.14,8.56-15,9.62-31.42,6.78-48.22.14-3.92.68-7.44,6.06-6.32,7.12,25.3,2.79,48.55-12.52,69.81C184.42,771,182.61,773.38,180.82,775.8Z"/>
      <path class="cls-11" d="M353.16,454.79q0,3.78,0,7.56c-.93,7-4.91,13.32-3.8,20.77.28,1.85-2.14,3.06-3.93,4.1-10.2,6-10.4,6.73-5.62,18.28a3.75,3.75,0,0,1-.13,3.55c.61,3.12-.41,5.39-3.43,6.61-9.08-4.51-12.72-12-11.71-21.86.25-2.45,1.07-4.86,0-7.3,6.11-4.14,12.16-7.9,13.14-16.59.81-7.18,6.22-11.73,12.45-15Z"/>
      <path class="cls-22" d="M467.36,255.86c-4.38,1.28-7.43,1.18-10.17-1.33-11.72-10.72-25.77-14.05-41.24-13.21-5.77.31-11.58,0-17.37,0-2.13,0-4.09-.55-4.14-3.29-.05-2.54,1.44-3.7,3.77-3.72,19.79-.11,40-2.8,57.58,10A43.7,43.7,0,0,1,467.36,255.86Z"/>
      <path class="cls-23" d="M236.47,679.1c-2.09,2.4-4.49,3.11-7.36,1.39-3.06,1.16-4.12-1.29-4.93-3.19-7.79-18.21-19.91-33-35.24-45.3a5.36,5.36,0,0,1-2.08-4.51c1.59-2.41,3.42-3.65,5.79-.93,3.83,4.37,8.73,5,14.06,4.13-.11,3.28,2.62,4.71,4.42,6.7C222.27,649.66,231.16,663.29,236.47,679.1Z"/>
      <path class="cls-24" d="M345.93,712.39c-1.52-2.57-1.67-6-4.69-7.63.54-3,1.1-5.92,1.61-8.89.43-2.53,2.61-5.77-1.43-7-3-.89-6.23-4-9.35.44-2.88,4.13-6.37.41-9.58.07-2.72-.29-5.63-3.27-8,.46-.85,1.33-.43,3.91-3.2,3-2.39-.78-3.55-2.68-3.94-5.09-.81-5,3-8.75,8.3-7.76,3.44.64,6.76,1.93,10.15,2.89s5.88,2.13,9.74-1.5,9.79,1.22,14.66,2.66c3.85,1.14,1.72,4.78,1.17,7.2C349.75,698.34,347.77,705.35,345.93,712.39Z"/>
      <path class="cls-25" d="M199.28,775.6l-11.19,0c13.09-15.72,19.25-34,20.15-54.27,3.92-3.75,7-2,9.8,1.5,1.23,17.63-4.54,33.31-13.33,48.14C203.45,773.14,201,774,199.28,775.6Z"/>
      <path class="cls-19" d="M265.48,745.59c10.78,6.31,22.5,8.28,34.83,7.65a61.39,61.39,0,0,1,12.05,0c3.13.45,8.82-2.8,8.83,3.5s-5.65,3.57-8.8,3.63c-11,.21-22.16.9-33.06-1.6-4.89-1.12-9.71-2.64-13.84-5.71C260.87,747.46,260.87,747.46,265.48,745.59Z"/>
      <path class="cls-22" d="M186.75,688.28c-7.84-13.18-17.81-24.25-31.41-31.69-3.17-1.73-4.5-4.54-2.8-7.51,1.84-3.2,4.55-.63,6.49.45,13.85,7.73,25.51,17.72,32.5,32.39C190.83,684.71,190.84,688,186.75,688.28Z"/>
      <path class="cls-18" d="M272.8,726l-1.31-1.68c9.55-11.79,22.68-8.91,35.16-8.44.81,0,1.55,1.75,2.32,2.69-2.2,7.55-4.87,14.34-15.09,10.69-1.86-.67-3.45.86-4.34,2.31-3.11,5.05-5.18,1.65-7.44-.74C281,725.36,276.64,726.15,272.8,726Z"/>
      <path class="cls-16" d="M179.13,688.14l6.14,15.05c-2,4-1.29,7.49,1.93,10.52,2.78,12.34-.7,23.61-6.32,34.78-1.9-18.8,1.24-38.23-7.62-55.92C172.84,687.94,175.49,687.38,179.13,688.14Z"/>
      <path class="cls-8" d="M206.3,702c-4.09-14-10.16-26.89-19.39-38.22-2.93-6.25-2.8-6.43,5.76-8.08,13.14,13.13,22.38,28.14,23,47.35C212.05,707.35,209.37,702.88,206.3,702Z"/>
      <path class="cls-26" d="M191.3,657.79c-3,.82-4.81,2.56-4.39,5.94-9.28-8.87-18.8-17.43-30.95-22.29-5.5-2.2-4-6.8-3.87-10.94l3.21.18c14,2.8,24.49,11.36,34.31,21C191.46,653.53,192.9,655.16,191.3,657.79Z"/>
      <path class="cls-27" d="M336.39,289.59q.08,10,.16,20c-6.9,6.52-13.17,13.76-21.11,19.09-1.85,1.24-4.44,4.3-6.44,1.56s-.93-6.19,2.39-8.34C323.49,314,331.24,302.82,336.39,289.59Z"/>
      <path class="cls-15" d="M367.22,334.89c5.72-4.43,9.51-14.23,18.88-6.64,1,.83,2.33.41,3.58,0,8.82-3.19,11.8-2.17,19.13,6.68Z"/>
      <path class="cls-21" d="M308,659.4h42c-2.29,4.13-6.32,5.35-9.05,7.94-4,3.76-7.22,1.77-10.55-.93a2.7,2.7,0,0,0-3.5-.27c-9.25,7.92-13.32-1.81-19.33-4.91Z"/>
      <path class="cls-28" d="M336.5,318.53,336.41,331c-6.84,5.07-13.35,10.68-21.29,14-2,.83-4.64,3.73-6.43.25-1.55-3-.24-5.89,3-7.5a68.15,68.15,0,0,0,14.44-9.47C329.68,325.19,333,321.8,336.5,318.53Z"/>
      <path class="cls-10" d="M179.13,688.14c-.15,3.88-3.42,3.61-5.87,4.43-5.35-7.57-10.9-15-18.73-20.22-3.08-2.06-3.66-5.41-2.08-7.89,2-3.17,4.42.12,6.19,1.29C167.3,671.49,174.46,678.7,179.13,688.14Z"/>
      <path class="cls-29" d="M311.07,362.31c-2.26,1.54-1.72,4.38-3,6.39-.94-13-.87-12.9,10.56-18.83a152.2,152.2,0,0,0,14-8.62c3-2,3.79-1,4.05,2.14.35,4.1-1.6,6.66-5,8.4C324.88,355.32,318,358.8,311.07,362.31Z"/>
      <path class="cls-30" d="M375.84,242.93c-2.86-.73-4.9.18-6,3-7.6-6.28-16.71-4.13-25.36-4.57-2.22-.12-4.87.74-6.5-1-2.12-2.28-1.6-4.61,1.47-5.89C348.69,230.56,368.93,235.31,375.84,242.93Z"/>
      <path class="cls-31" d="M404.23,630.76l3.25-.32c1.28,6-.52,9.92-6.81,11.95-7.4,2.4-13.38,7.67-20.39,11.73-2.5-5.55-1.14-9.28,3.77-12C390.81,638.39,397.51,634.56,404.23,630.76Z"/>
      <path class="cls-32" d="M204.55,162.08c-2.8-.56-3.85,1.89-5.27,4a2.63,2.63,0,0,1-3.41.72c-1.54-.76-.79-2.13-.37-3.26q2.87-7.78,5.8-15.56c.67-1.77,1.7-3,3.87-2.92s2.92,1.7,3.55,3.38c1.78,4.7,3.6,9.4,5.24,14.15.44,1.27,1.78,3,0,4.05s-3.49.18-4.23-1.72C208.88,162.56,207.09,162.13,204.55,162.08Z"/>
      <path class="cls-33" d="M520.42,831.54c-1.63,4.37-3.36,10.18-6,15.55-1.8,3.68-5.06,3.35-6.74-.31-2.3-5-3.94-10.28-5.83-15.45-.42-1.17-1-2.61.31-3.4s2.76-.51,3.79,1c3.7,5.47,7.26,5.25,10.66-.35a2.57,2.57,0,0,1,3.33-.89C521,828.11,521.11,829.2,520.42,831.54Z"/>
      <path class="cls-34" d="M447,827.91c4.71-2.32,6.41,2.39,9.22,4.32,2.41-1,.86-5.78,4.68-4.6,3,.91,1.86,3.76,2,5.8.22,3.5.09,7,0,10.54a19.28,19.28,0,0,1-.44,3.71c-.25,1.13-2,1.83-2.15,1.53-3.47-8.22-7.59,2.95-11-.42-1.17-1.16,0-2.48.86-3.19,6.61-5.68,3.66-10.17-1.58-14.52C447.74,830.33,446.74,829.43,447,827.91Z"/>
      <path class="cls-33" d="M258.92,161.8c-1.66,1.73.14,5.52-3.57,5-3-.38-1.89-3.1-2-4.85-.18-4-.16-8.05,0-12.07.07-1.79-.91-4.46,2.21-4.7s1.88,2.94,3,4.4c3.1-.54,3.65-5.9,8.41-4.16.13,4.55-6.36,6.77-5.38,10.43s4.89,6.68,7.68,10.18C263.91,169.18,262.53,163.48,258.92,161.8Z"/>
      <path class="cls-33" d="M234.91,144.7a37.82,37.82,0,0,1,5,2c1.21.65,3,1.63,1.84,3.44a2.49,2.49,0,0,1-3.85.79c-3.15-2.16-6.19-2-8.65,1.1a6.11,6.11,0,0,0-.32,7.72c2.49,3.67,5.64,3.64,9.17,1.49a2.54,2.54,0,0,1,3.86.92c1,1.86-.78,2.71-2,3.42-4.32,2.55-8.7,2.52-12.68-.61C223,161.6,222,157,223.78,152.05,225.47,147.25,229.33,145.13,234.91,144.7Z"/>
      <path class="cls-33" d="M493,838.24c-.12,4.31-1.78,7.79-5.63,10a10.52,10.52,0,0,1-10.75,0c-1.42-.8-3.53-1.69-2.24-3.92.82-1.39,2.27-1.71,3.87-.62,3.18,2.15,6.24,1.87,8.58-1.24a6.5,6.5,0,0,0,.18-7.76c-2.15-3.27-5.21-3.59-8.51-1.69-1.71,1-3.5,1.5-4.28-.79s1.34-3,2.83-3.78C484.24,824.49,492.94,829.88,493,838.24Z"/>
      <path class="cls-35" d="M206.3,702c3.12-3.15,5.24-.12,7.63,1.25,6,4.75,6.63,13.1,1.53,19.68l-7.22-1.5Q207.27,711.66,206.3,702Z"/>
      <path class="cls-36" d="M184.94,158.76c0,3.24.33,6.53-.09,9.71-.52,4-3.18,6.14-7.27,6-2.12-.06-3.74-2.66-2.3-3.27,8-3.39,3.88-10.2,5-15.48.73-3.41-1.86-9.72,2.06-9.69,5.6,0,1.71,6.34,2.78,9.72a10.58,10.58,0,0,1,0,3Z"/>
      <path class="cls-37" d="M531.32,836c0-3.28-.19-6.57,0-9.83.32-4.23,3-6.26,7.1-6.15,2.2.05,3.77,2.55,2.08,3.31-7.73,3.44-3.43,10-4.43,15-.47,2.43-.1,5-.14,7.55,0,1.65-.54,3.11-2.45,3.1s-2.3-1.65-2.32-3.2c-.07-3.28,0-6.56,0-9.83Z"/>
      <path class="cls-8" d="M186.75,688.28a9.58,9.58,0,0,1,4.78-6.36,45,45,0,0,1,7.17,16.82,20.88,20.88,0,0,0-6.06,6.32Z"/>
      <path class="cls-38" d="M399.47,344.23c-8.41,9.42-15.78,9.34-22.2.71C384.37,343.46,391.21,344.45,399.47,344.23Z"/>
      <path class="cls-39" d="M316.54,649.89c8.87-9.12,15.87-8.93,22.61,0A122.67,122.67,0,0,1,316.54,649.89Z"/>
      <path class="cls-31" d="M265.48,745.59c-3.51,2.51-.13,5,0,7.52-5.47-2.11-9.67-6-13.68-10.05-1.16-1.19-3.11-2.57-1.94-4.35,1-1.47,3.24-1.15,4.89-.79C259.39,738.92,261.92,743,265.48,745.59Z"/>
      <path class="cls-40" d="M336.74,362.35c-5.11-.07-9.74,1-13.31,5.13-2.71,3.15-4.11,1-5.18-1.63,4.45-2.31,9-4.51,13.33-7S336.92,358.36,336.74,362.35Z"/>
      <path class="cls-31" d="M458.84,510.67c.27.4.46,1,.84,1.17,2.19.86,5.63-1.6,6.58,2.52a2.8,2.8,0,0,1-1.19,3.22c-3,1.73-5-.87-7.29-2A6.38,6.38,0,0,1,458.84,510.67Z"/>
      <path class="cls-27" d="M257.69,441.48c-.82.93-1.59,1.91-2.48,2.76a3.31,3.31,0,0,1-4.69.31,3,3,0,0,1-1.19-3.27,3.62,3.62,0,0,1,3.81-2.86c1.2,0,2.4-.23,3.6-.36C257.06,439.2,257.38,440.34,257.69,441.48Z"/>
      <path class="cls-41" d="M457.8,548.68A6.72,6.72,0,0,0,460,549c2.11-.38,4.33-1.87,6,.79a2.86,2.86,0,0,1-.17,3.49c-2.2,2.44-4.54.77-6.81,0A5.79,5.79,0,0,1,457.8,548.68Z"/>
      <path class="cls-10" d="M187.2,713.71c-7.41-4-7.67-5.44-1.93-10.52C187.08,706.48,187.25,710.08,187.2,713.71Z"/>
      <path class="cls-27" d="M155,572.75c4.3-7.57,5.47-7.74,9.27-1.37Z"/>
      <path class="cls-35" d="M263.86,732c5.13-1.34,8.35-.19,7.69,6A15,15,0,0,1,263.86,732Z"/>
      <path class="cls-6" d="M298.22,603.32c-17.43,0-18.75-1.21-22.35-20.58A22.41,22.41,0,0,1,317.3,567.6c3.07,5.34,3.12,11,2.31,16.85a20.31,20.31,0,0,1-1,3.63C312.8,605.6,315.49,603.09,298.22,603.32Z"/>
      <path class="cls-42" d="M215.46,722.88c.54-6.64.61-13.25-1.53-19.68-2.63-17.59-10.41-32.61-22.63-45.41-7.56-10-18-16.39-28.81-22.13-2.59-1.37-5.81-1.86-7.19-5l4.27-1.8c1.77-.94,3.52-2,5.63-1,15.31,7.09,29.13,16.11,38.87,30.37,9.77,12.29,16.75,25.82,18.56,41.67,4.64,12.82,2.59,26,2,39-2.48,8.36-4.8,16.78-8.32,24.81-2.37,5.43-5.44,10.08-11.48,11.92l-5.53-.11c6.7-12.5,13.43-25,15.4-39.35C215.29,731.79,215.89,727.38,215.46,722.88Z"/>
      <path class="cls-42" d="M186.86,627.49c16,9.81,27,24.11,35.91,40.28,2.28,4.15,4.24,8.47,6.34,12.72,7.78,24.47,9.26,49.08,1.6,73.89a91.22,91.22,0,0,1-9.3,21.28l-5.48,0c-3.72-2.64-2.09-5.82-.64-8.73,4.76-9.51,7.36-19.73,9.9-30,1.48-12.13-.05-24.22-.41-36.31-3.59-14.61-9.33-28.25-18.42-40.36-3.94-9.07-12-14.34-18.86-20.8-2.47-2.33-7-3.75-4.93-8.75Z"/>
      <path class="cls-26" d="M297.41,526.13c-3.68,17.74-14.19,29.44-31.2,35.37-1.86.64-4,1.86-5.7.42-2.09-1.79-.69-4.24,0-6.29,5.52-15.46,15.76-25.89,32-29.8C294.18,526,295.9,524.41,297.41,526.13Z"/>
      <path class="cls-43" d="M297.41,526.13l-4.84-.3c12.17-3.18,29.13,5.29,36.59,18.28-.67,5.34,2.15,9,5.89,12.21,1.16,1.74,2.19,3.83.65,5.5s-3.84.57-5.67-.06c-14.08-4.82-24-14.06-29.57-28Z"/>
      <path class="cls-11" d="M182.57,630.7c9.85,8.12,20.07,15.88,26.81,27.09-2,3.44-4.91,3.1-8,1.74-9.73-10.92-20-21.13-33.35-27.76-2.7-1.35-5.32-2.86-8.46-2.89,2.56-3.86,4.91-5.93,9-1.09C172.15,632.07,177.45,631.84,182.57,630.7Z"/>
      <path class="cls-11" d="M335.05,556.32c-5.57,1.95-6-2.35-8-5.79-2.29-3.83.21-4.71,2.13-6.42A29.78,29.78,0,0,1,335.05,556.32Z"/>
      <path class="cls-6" d="M416.56,389.69c18.25.3,14.76-3,21.22,19.65,3.2,11.17-3,21.79-14,25.81a21.86,21.86,0,0,1-27.55-10.53c-2.47-4.69-2.52-9.63-2-14.68a19.78,19.78,0,0,1,.55-3C398.93,389.68,398.93,389.68,416.56,389.69Z"/>
      <path class="cls-44" d="M510.63,315.58c9.32,19.73,24.5,33.46,43.8,43,2.46,1.21,4.85,2.56,7.27,3.84l-7.38,3.19c-8-2.39-15.77-5.34-22.71-10.14-2.63-6.11-9.62-7.2-13.64-12.19-6.32-7.85-12.69-15.43-16.34-24.95-16-30.78-15.15-61.5.21-92.21a17.18,17.18,0,0,1,7.35-7.22,4.38,4.38,0,0,0,1.17-.4c6.58-.28,5.23,2.49,2.94,6.59C496.71,254.74,495.07,284.93,510.63,315.58Z"/>
      <path class="cls-42" d="M530.16,365.61c-3.66.08-6-2.49-8.45-4.52-40.26-32.72-53-90-30.56-137,.87-1.82,1.75-3.64,2.62-5.45l0,0c8-.91,9.89,1.23,6.65,8.52-6.85,15.38-10.73,31.3-10.47,48.23A93.72,93.72,0,0,0,498.83,314c5.84,17,17.95,29.43,30.12,41.85,2.51,2.09,6.27,3.57,4,8Z"/>
      <path class="cls-23" d="M415.19,468.26c-18.58-3-30.56-13.83-36.72-31.41-.65-1.86-1.81-4-.16-5.65s3.91-.63,5.68,0c16.61,6.21,27.91,17.23,31.34,35.23C416.19,467.13,416.14,467.73,415.19,468.26Z"/>
      <path class="cls-10" d="M415.19,468.26c.05-.59.09-1.19.14-1.79,4-6.92,5.19-15.43,11.72-20.94,3-.16,5.61-.6,7.35-3.67a9,9,0,0,1,10.66-4.51c5.32,1.48,3.11,6.33,3.41,10C440.9,459.91,429.89,467,415.19,468.26Z"/>
      <path class="cls-45" d="M448.47,447.32a5.4,5.4,0,0,1-.58-.47c-7.91-8.2-7.91-8.2-15.14,2.24-.67,1-1.41,1.91-2.11,2.85-3.31-1.31-1.5-4.88-3.59-6.41,4.55-6.25,10.88-10.14,17.81-13.11,2.64-1.14,5.75-3.1,8.33-.58,2.35,2.28.37,5.19-.44,7.69A19.62,19.62,0,0,1,448.47,447.32Z"/>
      <path class="cls-16" d="M532.91,363.89c-.91-3-4-4-5.68-6.27-1-1.76-3.94-3.27-1.85-5.57,2.76-3,5.17,1.53,8,1l21,12.55c-1.34,3.69-3.22,3.79-5.83,1.06C544,362,538.66,361.65,532.91,363.89Z"/>
      <path class="cls-20" d="M495.73,317.12c-13.63-30.59-12.66-61,1.2-91.23,1.71-3.73,4.62-7.74-3.14-7.27,5.19-3.07,10.26.53,15.4.27-5.95,12.46-11.89,24.84-14,38.77-3.26,21.39.83,41.46,9.47,60.9C500.17,327.34,498.48,319,495.73,317.12Z"/>
      <path class="cls-46" d="M414.48,182.32c-.9,3.08-2.91,4.7-6.05,4.26s-5-2.48-4.49-5.67,2.82-4.72,5.93-4.28S414.53,179.15,414.48,182.32Z"/>
      <path class="cls-15" d="M355,176.46c3.2.6,5.34,2.3,5,5.57s-2.54,4.86-5.76,4.61c-3-.23-4.51-2.36-4.48-5.1C349.83,178.31,351.9,176.63,355,176.46Z"/>
      <path class="cls-47" d="M517.5,186.61c-2.88-.62-5.15-2.17-4.83-5.43s2.64-4.77,5.75-4.53a4.56,4.56,0,0,1,4.46,5C522.83,184.88,520.87,186.54,517.5,186.61Z"/>
      <path class="cls-48" d="M469.25,181.41c-.67,3.35-2.38,5.32-5.66,5.13-3-.18-4.46-2.21-4.45-5s1.47-4.82,4.55-4.85C467,176.61,468.59,178.62,469.25,181.41Z"/>
      <path class="cls-25" d="M227.88,738.56c-.56,10.53-4.55,20-8.8,29.44-1.13,2.5-2.1,5.08-3.15,7.62l-11.12.09c8.58-10.64,12.12-23.46,15.62-36.3.4-.9.23-2.11.86-2.76,1.46-1.53,0-5.93,4-4.73C228.3,732.84,228.84,735.62,227.88,738.56Z"/>
      <path class="cls-49" d="M257.41,811.83c-.73,3.37-2.37,5.52-5.59,5.41-3.48-.11-4.57-2.59-4.29-5.71.26-2.85,1.91-4.74,4.8-4.7C255.61,806.87,257,809.13,257.41,811.83Z"/>
      <path class="cls-7" d="M366.4,812.27c-.38,3.21-2.29,5-5.38,5s-4.39-2.17-4.45-4.9c-.07-3.12,1.6-5.36,4.81-5.4S366,809.23,366.4,812.27Z"/>
      <path class="cls-25" d="M203.12,812.15c-.28,3.11-2.1,4.5-5,4.45s-4.88-1.64-4.79-4.63c.09-3.21,2.07-5.2,5.36-5C201.62,807.22,202.88,809.38,203.12,812.15Z"/>
      <path class="cls-50" d="M302.13,812.13c.27-3,1.88-4.76,4.76-4.75s4.91,1.48,4.86,4.48-1.89,4.56-4.79,4.63S302.34,815.06,302.13,812.13Z"/>
      <path class="cls-19" d="M516.25,555.22c-2-.36-3.22-1.43-3.25-3.45a3.07,3.07,0,0,1,3.15-3.4c2.07-.06,3.12,1.36,3.14,3.36A3.14,3.14,0,0,1,516.25,555.22Z"/>
      <path class="cls-18" d="M532.63,496.86a3.14,3.14,0,0,1-3.61,2.83,2.8,2.8,0,0,1-2.78-2.89,3,3,0,0,1,3.19-3.33C531.43,493.45,532.51,494.76,532.63,496.86Z"/>
      <path class="cls-51" d="M532.62,459.84a3.19,3.19,0,0,1-3.21,3.47,2.84,2.84,0,0,1-3.13-2.57A2.9,2.9,0,0,1,529,457C531,456.76,532.16,458,532.62,459.84Z"/>
      <path class="cls-21" d="M489.92,475.19c2.06.19,3.23,1.35,3.19,3.34a3,3,0,0,1-2.76,3,2.84,2.84,0,0,1-3.51-2.85C486.71,476.64,488,475.56,489.92,475.19Z"/>
      <path class="cls-21" d="M543.43,481.57c-2.2-.07-3.37-.91-3.63-2.63a3,3,0,0,1,2.8-3.72,2.73,2.73,0,0,1,3.18,2.51C546.08,479.83,544.76,480.91,543.43,481.57Z"/>
      <path class="cls-31" d="M542.34,511.85c2.23.43,3.44,1.56,3.36,3.62a2.66,2.66,0,0,1-3,2.64,2.87,2.87,0,0,1-3-3.42C539.75,512.85,541,512.21,542.34,511.85Z"/>
      <path class="cls-31" d="M489.47,511.84c1.95.05,3.43.85,3.61,2.86A2.83,2.83,0,0,1,490,518a3,3,0,0,1-3.15-2.51C486.45,513.39,487.52,512.26,489.47,511.84Z"/>
      <path class="cls-21" d="M515.91,481.64c-2-.37-3.08-1.45-3-3.14.13-1.93,1.24-3.38,3.41-3.24a2.85,2.85,0,0,1,2.67,3.1C519.07,480.52,517.68,481.44,515.91,481.64Z"/>
      <path class="cls-31" d="M503.56,566.75c1.93.42,3.14,1.66,2.82,3.65a2.93,2.93,0,0,1-3.75,2.66,3,3,0,0,1-2.49-3.23C500.18,567.67,501.48,566.79,503.56,566.75Z"/>
      <path class="cls-18" d="M516.21,511.92c1.73.15,2.82,1,2.91,2.79.12,2.08-.93,3.39-3,3.39a2.73,2.73,0,0,1-3-2.67C513,513.34,514.3,512.32,516.21,511.92Z"/>
      <path class="cls-52" d="M490.52,554.4c-2.22,0-3.56-.59-3.78-2.36-.24-2,.58-3.53,2.74-3.65a3,3,0,0,1,3.33,3.19C492.89,553.39,491.5,554.05,490.52,554.4Z"/>
      <path class="cls-21" d="M519.11,441.19c0,2.55-1.08,3.84-3,3.88s-3.08-1.42-3.13-3.31a2.7,2.7,0,0,1,2.65-2.9A3.18,3.18,0,0,1,519.11,441.19Z"/>
      <path class="cls-51" d="M479.7,496.27c0,2.12-1.11,3.38-3.16,3.44a2.65,2.65,0,0,1-3-2.73,3.08,3.08,0,0,1,3.11-3.49A2.93,2.93,0,0,1,479.7,496.27Z"/>
      <path class="cls-31" d="M502.89,499.89a2.73,2.73,0,0,1-2.67-2.95c0-1.95,1-3.4,3.15-3.24a2.84,2.84,0,0,1,2.75,2.95A3,3,0,0,1,502.89,499.89Z"/>
      <path class="cls-35" d="M555.48,499.8c-2.05-.29-3.06-1.51-2.86-3.52a2.89,2.89,0,0,1,3-2.73c2-.08,3.41,1,3.33,3.06S557.43,499.6,555.48,499.8Z"/>
      <path class="cls-35" d="M503.19,456.86c2.13.53,3.16,1.77,2.91,3.78a2.9,2.9,0,0,1-5.78-.26A3.23,3.23,0,0,1,503.19,456.86Z"/>
      <path class="cls-41" d="M542.52,438.68c1.73.1,3,.81,3.18,2.56a3.16,3.16,0,0,1-3,3.6,2.53,2.53,0,0,1-3-2.54C539.51,440.22,540.59,439.06,542.52,438.68Z"/>
      <path class="cls-18" d="M532.54,533.06c-.24,2-1.35,3.19-3.42,3.09a2.73,2.73,0,0,1-2.87-2.79c0-2.11,1.31-3.17,3.33-3.1A3,3,0,0,1,532.54,533.06Z"/>
      <path class="cls-18" d="M477.09,567.23c1.83.37,2.89,1.52,2.53,3.57a2.68,2.68,0,0,1-3.17,2.33,2.82,2.82,0,0,1-2.7-3.57C474,567.86,475.27,567.17,477.09,567.23Z"/>
      <path class="cls-39" d="M479.68,533.42c-.43,1.82-1.57,2.94-3.61,2.72a2.56,2.56,0,0,1-2.45-3,3.08,3.08,0,0,1,3.61-2.86C479,530.41,479.72,531.6,479.68,533.42Z"/>
      <path class="cls-18" d="M505.59,533.19c-.14,1.65-.79,2.91-2.66,2.87a2.56,2.56,0,0,1-2.63-2.9c.05-1.6.85-2.93,2.66-2.94S505.35,531.62,505.59,533.19Z"/>
      <path class="cls-39" d="M558.44,459.85c0,1.72-.68,3-2.47,3.25a2.79,2.79,0,0,1-3.22-2.49c-.41-2.1.66-3.53,2.76-3.65C557.27,456.86,558.1,458.23,558.44,459.85Z"/>
      <path class="cls-17" d="M216.41,460.87c-.73,1.9-1.95,3.07-4,2.6a3,3,0,0,1-2.4-3.93c.44-2,1.81-3,3.83-2.5A3.2,3.2,0,0,1,216.41,460.87Z"/>
      <path class="cls-15" d="M249.23,478.53c.25-2,1.27-3.32,3.29-3.3a3.25,3.25,0,1,1,0,6.5C250.55,481.75,249.43,480.55,249.23,478.53Z"/>
      <path class="cls-27" d="M200.11,481.81c-2.15,0-3.44-1.05-3.64-3a3,3,0,0,1,3-3.53,3.11,3.11,0,0,1,3.58,3C203.28,480.32,201.93,481.37,200.11,481.81Z"/>
      <path class="cls-29" d="M216.49,423.8c-.35,1.94-1.45,3.3-3.44,3.26a3,3,0,0,1-3.19-3.36,3.15,3.15,0,0,1,3.34-3.28C215.24,420.45,216.22,421.86,216.49,423.8Z"/>
      <path class="cls-38" d="M239.17,420.44c2,.24,3.25,1.39,3.24,3.39a3,3,0,0,1-3.28,3.26,3.33,3.33,0,0,1,0-6.65Z"/>
      <path class="cls-53" d="M203.1,442c-.26,2-1.37,3.36-3.38,3.36a3.11,3.11,0,0,1-3.34-3.32,3.37,3.37,0,0,1,3.38-3.4C201.78,438.59,202.87,440,203.1,442Z"/>
      <path class="cls-38" d="M238.92,493.38a3.23,3.23,0,0,1,3.47,3.24,2.9,2.9,0,0,1-2.49,3.24c-2.07.43-3.5-.53-3.74-2.62A3.44,3.44,0,0,1,238.92,493.38Z"/>
      <path class="cls-38" d="M242.52,460.05c-.08,2-.93,3.37-3,3.49a3.29,3.29,0,0,1-.41-6.57C241.12,456.86,242.26,458.05,242.52,460.05Z"/>
      <path class="cls-40" d="M216.45,496.9c-.52,2.29-1.75,3.31-3.76,3.06a3.23,3.23,0,0,1,.79-6.42C215.49,493.82,216.21,495.34,216.45,496.9Z"/>
      <path class="cls-30" d="M176.75,515.14c-.21,2.08-1.33,3.24-3.45,3.13a2.87,2.87,0,0,1-2.93-2.85c-.16-2.06.76-3.52,2.93-3.57S176.46,513.13,176.75,515.14Z"/>
      <path class="cls-38" d="M186.81,493.55a3,3,0,0,1,2.82,3.49,3.16,3.16,0,1,1-6.31-.35C183.49,494.75,184.76,493.7,186.81,493.55Z"/>
      <path class="cls-53" d="M160.79,500c-2.18.08-3.51-.85-3.76-2.88a2.89,2.89,0,0,1,2.9-3.52,3.21,3.21,0,0,1,3.66,2.91C163.86,498.56,162.63,499.66,160.79,500Z"/>
      <path class="cls-38" d="M186.81,456.91c1.92.45,3,1.58,2.74,3.65a3.08,3.08,0,0,1-3.5,3,2.79,2.79,0,0,1-2.74-3.55A3.24,3.24,0,0,1,186.81,456.91Z"/>
      <path class="cls-27" d="M186.5,530.06c2.06.2,3.22,1.25,3.17,3.39A2.74,2.74,0,0,1,187,536.4c-2,.17-3.5-.69-3.6-2.85S184.48,530.35,186.5,530.06Z"/>
      <path class="cls-38" d="M203.16,551.42c.05,2.27-1.1,3.43-3.06,3.58a3.09,3.09,0,0,1-3.56-2.94,3,3,0,0,1,3-3.46C201.58,548.44,202.6,549.79,203.16,551.42Z"/>
      <path class="cls-54" d="M203.22,515.29c-.85,2.43-2.25,3.29-4.25,2.82a2.76,2.76,0,0,1-2.37-3.3,3.24,3.24,0,0,1,3.77-2.9C202.58,512.15,203,513.89,203.22,515.29Z"/>
      <path class="cls-55" d="M229.18,441.89c-.3,2-1.2,3.59-3.36,3.32-2-.24-3-1.74-2.83-3.77a2.89,2.89,0,0,1,3-2.8C228.13,438.57,229.05,440,229.18,441.89Z"/>
      <path class="cls-27" d="M216.22,533.88c-.66,2.28-2.17,3-4.06,2.49-2-.5-2.68-2.08-2.09-4a2.83,2.83,0,0,1,3.48-2A2.92,2.92,0,0,1,216.22,533.88Z"/>
      <path class="cls-30" d="M163.6,533.41c-.24,2.07-1.4,3.18-3.47,3.08a2.89,2.89,0,0,1-3.08-2.66,2.93,2.93,0,0,1,3-3.5C162.09,530.19,163.25,531.41,163.6,533.41Z"/>
      <path class="cls-38" d="M226.28,518.14c-1.7,0-2.8-.78-3-2.52-.18-2,.58-3.39,2.71-3.52a2.56,2.56,0,0,1,2.94,2.52C229.17,516.58,228.44,517.93,226.28,518.14Z"/>
      <path class="cls-54" d="M173.19,554.66a2.62,2.62,0,0,1-2.66-2.87c.06-2.12,1.33-3,3.37-2.84a2.69,2.69,0,0,1,2.72,2.84C176.59,554,175.14,554.67,173.19,554.66Z"/>
      <path class="cls-53" d="M176.74,478.15c-.24,2.22-1.16,3.59-3.3,3.55a2.86,2.86,0,0,1-3-2.76c-.21-2,.62-3.54,2.74-3.7S176.25,476.53,176.74,478.15Z"/>
      <path class="cls-56" d="M229.05,478.22c-.11,2.21-1,3.54-3.12,3.46a2.6,2.6,0,0,1-2.61-2.91c0-1.91.92-3.37,3.07-3.27C228.09,475.58,228.82,476.86,229.05,478.22Z"/>
      <path class="cls-57" d="M344.48,724.2c5.54,0,9.22-.05,12.9,0,2,0,3.21,1,3.19,3.2s-1.25,3-3.27,3.12C352.6,730.83,348.74,729.38,344.48,724.2Z"/>
      <path class="cls-5" d="M339.7,509.05c-11.1-8.92-10-18.83,3-24.64,2.65-1.19,4.22-2.14,3.35-5.45-1.91-7.3.81-12.79,7.17-16.61,14.6-.08,17.8,3.19,16.44,17.55-.32,3.37,1.6,3.68,3.74,4.44,6.23,2.21,10.53,6.09,10.06,13.25-.46,7-4.32,11.14-11.35,11.8-5.2.48-2.88,3.37-2.08,5.76,1.93,5.74.22,10.42-4.32,14.05-4.38,3.51-9.31,3.74-14.1,1-5.27-3-7.4-8.3-5.54-13.56C348.63,509.34,344.49,509.32,339.7,509.05Z"/>
      <path class="cls-58" d="M444.06,270c-4.26.08-8.52.24-12.78.22-1.87,0-3.5-.65-3.55-3-.06-2.78,1.83-3.29,4-3.33A14.33,14.33,0,0,1,444,270.14Z"/>
      <path class="cls-59" d="M369.68,267.19c-2.11,3.67-12.08,4.76-13.8,1.43-1.09-2.11-.44-4,2.05-4.46a39.48,39.48,0,0,1,5.87-.26Z"/>
      <path class="cls-44" d="M272.8,726c2.62-2.9,6.1-1.74,9.22-1.75,2.24,0,5.6-.92,5.94,2.81.4,4.48-3.41,3.26-5.86,3.77C278.59,730,275.68,728,272.8,726Z"/>
      <path class="cls-20" d="M201.38,659.53a18,18,0,0,1,8-1.74,95.92,95.92,0,0,1,18.09,40.82c-2.45,2.38-4.91,2.28-7.38,0C215.6,684.78,210.1,671.39,201.38,659.53Z"/>
      <path class="cls-41" d="M220.09,698.66a9.86,9.86,0,0,1,7.38,0c2.8,13.29,3.42,26.6.41,39.95-.63-1.81-.83-4.53-3.08-4.49-2.91.06-2.45,3.88-4.37,5.34C222.62,725.81,221.84,712.23,220.09,698.66Z"/>
      <path class="cls-23" d="M495.73,317.12c2.7,2.15,5.47,3.84,8.91,1.44a130.49,130.49,0,0,0,28.71,34.49c-1.36,2.42-8-2.23-6.12,4.57A98.08,98.08,0,0,1,495.73,317.12Z"/>
    </g>
  </g>
</svg>
