<svg xmlns="http://www.w3.org/2000/svg" xmlns:xlink="http://www.w3.org/1999/xlink" viewBox="0 0 720 1008">
  <defs>
    <style>
      .cls-1 {
        fill: red;
      }

      .cls-2 {
        fill: #fff;
      }

      .cls-3 {
        fill: #333;
      }
    </style>
    <symbol id="SD3" data-name="SD3" viewBox="0 0 17.85 22.31">
      <path class="cls-1" d="M0,11.15c1.12,0,8.92,10,8.92,11.16,0-1.12,7.81-11.16,8.93-11.16-1.12,0-8.93-10-8.93-11.15C8.92,1.12,1.12,11.15,0,11.15Z"/>
    </symbol>
  </defs>
  <g id="Layer_2" data-name="Layer 2">
    <g>
      <rect class="cls-2" x="1.5" y="1.5" width="717" height="1005" rx="48.5"/>
      <path class="cls-3" d="M670,3a47,47,0,0,1,47,47V958a47,47,0,0,1-47,47H50A47,47,0,0,1,3,958V50A47,47,0,0,1,50,3H670m0-3H50A50,50,0,0,0,0,50V958a50,50,0,0,0,50,50H670a50,50,0,0,0,50-50V50A50,50,0,0,0,670,0Z"/>
    </g>
    <use width="17.85" height="22.31" transform="matrix(2.98, 0, 0, -3.12, 44.76, 218.13)" xlink:href="#SD3"/>
    <use width="17.85" height="22.31" transform="matrix(8.24, 0, 0, -8.62, 286.95, 305.79)" xlink:href="#SD3"/>
    <use width="17.85" height="22.31" transform="matrix(8.24, 0, 0, -8.62, 286.95, 886.57)" xlink:href="#SD3"/>
    <use width="17.85" height="22.31" transform="matrix(2.98, 0, 0, -3.12, 623.4, 854.78)" xlink:href="#SD3"/>
    <path class="cls-1" d="M87.19,110.18H99v23.76H40v-6q0-16.61,12.21-29.81Q57,93,75,79.93,87.19,71,87.19,64.64q0-5.94-6.77-9.24a26.94,26.94,0,0,0-12.11-2.64q-16.55,0-16.54,11A13.4,13.4,0,0,0,53,68.93L42,73.55a27.42,27.42,0,0,1-2-9.79q0-11.44,8.61-17.6,7.72-5.5,19.65-5.5T88.91,46.6q10.05,6.7,10,18,0,10.56-10.61,19.8L67.57,100.28q-12.16,10.13-14.7,21.56H87.19Z"/>
    <path class="cls-1" d="M632.81,890.48H621V866.72h59v6q0,16.61-12.21,29.81Q663,907.64,645,920.73q-12.21,8.91-12.21,15.29,0,5.94,6.77,9.24a26.94,26.94,0,0,0,12.11,2.64q16.54,0,16.54-11a13.4,13.4,0,0,0-1.21-5.17l11-4.62a27.42,27.42,0,0,1,2,9.79q0,11.45-8.61,17.6-7.73,5.5-19.65,5.5t-20.65-5.94Q621,947.36,621,936q0-10.56,10.61-19.8l20.78-15.84q12.17-10.12,14.7-21.56H632.81Z"/>
  </g>
</svg>
