<svg xmlns="http://www.w3.org/2000/svg" xmlns:xlink="http://www.w3.org/1999/xlink" viewBox="0 0 720 1008">
  <defs>
    <style>
      .cls-1 {
        fill: red;
      }

      .cls-2 {
        fill: #fff;
      }

      .cls-3 {
        fill: #333;
      }
    </style>
    <symbol id="SD3" data-name="SD3" viewBox="0 0 17.85 22.31">
      <path class="cls-1" d="M0,11.15c1.12,0,8.92,10,8.92,11.16,0-1.12,7.81-11.16,8.93-11.16-1.12,0-8.93-10-8.93-11.15C8.92,1.12,1.12,11.15,0,11.15Z"/>
    </symbol>
  </defs>
  <g id="Layer_2" data-name="Layer 2">
    <g>
      <rect class="cls-2" x="1.5" y="1.5" width="717" height="1005" rx="48.5"/>
      <path class="cls-3" d="M670,3a47,47,0,0,1,47,47V958a47,47,0,0,1-47,47H50A47,47,0,0,1,3,958V50A47,47,0,0,1,50,3H670m0-3H50A50,50,0,0,0,0,50V958a50,50,0,0,0,50,50H670a50,50,0,0,0,50-50V50A50,50,0,0,0,670,0Z"/>
    </g>
    <use width="17.85" height="22.31" transform="matrix(2.98, 0, 0, -3.12, 44.76, 218.13)" xlink:href="#SD3"/>
    <use width="17.85" height="22.31" transform="matrix(8.24, 0, 0, -8.62, 286.95, 305.79)" xlink:href="#SD3"/>
    <use width="17.85" height="22.31" transform="matrix(8.24, 0, 0, -8.62, 286.95, 596.18)" xlink:href="#SD3"/>
    <use width="17.85" height="22.31" transform="matrix(8.24, 0, 0, -8.62, 286.95, 886.57)" xlink:href="#SD3"/>
    <use width="17.85" height="22.31" transform="matrix(2.98, 0, 0, -3.12, 623.4, 854.78)" xlink:href="#SD3"/>
    <path class="cls-1" d="M69.74,134.73a28.1,28.1,0,0,1-18.87-7.2,38.82,38.82,0,0,1-11.19-17l11.22-3.93a26.6,26.6,0,0,0,6.92,11.16,17,17,0,0,0,12,5,19,19,0,0,0,14.4-6.53,21.19,21.19,0,0,0,6-14.8q0-8.15-5.17-13.27T71.55,83a15.25,15.25,0,0,0-6,1,21,21,0,0,0-5.28,3.82l-8.47-8.29L79.06,54H53V66H41V42h60v7.51l-23.39,22A28.72,28.72,0,0,1,95.34,81.85,30.23,30.23,0,0,1,102,101.44a32.73,32.73,0,0,1-9.55,23.25Q82.9,134.73,69.74,134.73Z"/>
    <path class="cls-1" d="M649.94,867.27a28.08,28.08,0,0,1,18.87,7.2,38.65,38.65,0,0,1,11.19,17l-11.21,3.93a26.72,26.72,0,0,0-6.93-11.16,16.94,16.94,0,0,0-12-5,19,19,0,0,0-14.4,6.53,21.19,21.19,0,0,0-6.05,14.8,17.89,17.89,0,0,0,5.17,13.27q5.17,5.11,13.53,5.11a15.22,15.22,0,0,0,6-1,21,21,0,0,0,5.28-3.82l8.47,8.29L640.62,948h26.06V936h12v24h-60v-7.51l23.4-22a28.72,28.72,0,0,1-17.74-10.32,30.23,30.23,0,0,1-6.64-19.59,32.76,32.76,0,0,1,9.54-23.25Q636.78,867.28,649.94,867.27Z"/>
  </g>
</svg>
