<svg xmlns="http://www.w3.org/2000/svg" xmlns:xlink="http://www.w3.org/1999/xlink" viewBox="0 0 720 1008"><defs><symbol id="SD3" data-name="SD3" viewBox="0 0 17.85 22.31"><path d="M0,11.15c1.12,0,8.92,10,8.92,11.16,0-1.12,7.81-11.16,8.93-11.16-1.12,0-8.93-10-8.93-11.15C8.92,1.12,1.12,11.15,0,11.15Z" style="fill:red"/></symbol></defs><g id="Layer_2" data-name="Layer 2"><rect x="1.5" y="1.5" width="717" height="1005" rx="48.5" style="fill:#fff"/><path d="M670,3a47,47,0,0,1,47,47V958a47,47,0,0,1-47,47H50A47,47,0,0,1,3,958V50A47,47,0,0,1,50,3H670m0-3H50A50,50,0,0,0,0,50V958a50,50,0,0,0,50,50H670a50,50,0,0,0,50-50V50A50,50,0,0,0,670,0Z" style="fill:#333"/><use width="17.85" height="22.31" transform="matrix(2.98, 0, 0, -3.12, 44.76, 218.13)" xlink:href="#SD3"/><use width="17.85" height="22.31" transform="matrix(8.24, 0, 0, -8.62, 126.43, 887.18)" xlink:href="#SD3"/><use width="17.85" height="22.31" transform="matrix(8.24, 0, 0, -8.62, 457.18, 887.18)" xlink:href="#SD3"/><use width="17.85" height="22.31" transform="matrix(8.24, 0, 0, -8.62, 125.97, 303.36)" xlink:href="#SD3"/><use width="17.85" height="22.31" transform="matrix(8.24, 0, 0, -8.62, 457.72, 303.36)" xlink:href="#SD3"/><use width="17.85" height="22.31" transform="matrix(8.24, 0, 0, -8.62, 286.45, 596.18)" xlink:href="#SD3"/><use width="17.85" height="22.31" transform="matrix(2.98, 0, 0, -3.12, 623.4, 854.78)" xlink:href="#SD3"/><path d="M69.21,135.43a28.72,28.72,0,0,1-18.51-6.82,42,42,0,0,1-11.55-16.16l11.24-4.63a30,30,0,0,0,7.19,10.6,16.8,16.8,0,0,0,11.69,4.92q9,0,15-8.22a26.87,26.87,0,0,0,5.4-16.31,26.13,26.13,0,0,0-5.4-16.21q-5.85-7.77-15-7.78-7.77,0-15.41,8.15L45.09,77.9V41.59h45v12h-33V65.36a29.11,29.11,0,0,1,12-2.64q14.17,0,23.61,11.33a37.22,37.22,0,0,1,8.89,24.75,38.52,38.52,0,0,1-8.75,25Q83.33,135.44,69.21,135.43Z" style="fill:red"/><path d="M649.94,866.16A28.72,28.72,0,0,1,668.45,873,42.06,42.06,0,0,1,680,889.15l-11.24,4.62a29.84,29.84,0,0,0-7.19-10.59,16.78,16.78,0,0,0-11.69-4.92q-9,0-15,8.21a26.88,26.88,0,0,0-5.4,16.32,26.13,26.13,0,0,0,5.4,16.21q5.85,7.77,15,7.77,7.77,0,15.41-8.14l8.77,5.06V960h-45V948h33V936.23a29,29,0,0,1-12,2.64q-14.17,0-23.61-11.33a37.22,37.22,0,0,1-8.89-24.75,38.49,38.49,0,0,1,8.75-25Q635.82,866.17,649.94,866.16Z" style="fill:red"/></g></svg>