<svg xmlns="http://www.w3.org/2000/svg" xmlns:xlink="http://www.w3.org/1999/xlink" viewBox="0 0 720 1008"><defs><symbol id="SD3" data-name="SD3" viewBox="0 0 17.85 22.31"><path d="M0,11.15c1.12,0,8.92,10,8.92,11.16,0-1.12,7.81-11.16,8.93-11.16-1.12,0-8.93-10-8.93-11.15C8.92,1.12,1.12,11.15,0,11.15Z" style="fill:red"/></symbol></defs><g id="Layer_2" data-name="Layer 2"><rect x="1.5" y="1.5" width="717" height="1005" rx="48.5" style="fill:#fff"/><path d="M670,3a47,47,0,0,1,47,47V958a47,47,0,0,1-47,47H50A47,47,0,0,1,3,958V50A47,47,0,0,1,50,3H670m0-3H50A50,50,0,0,0,0,50V958a50,50,0,0,0,50,50H670a50,50,0,0,0,50-50V50A50,50,0,0,0,670,0Z" style="fill:#333"/><use width="17.85" height="22.31" transform="matrix(2.98, 0, 0, -3.12, 44.76, 218.13)" xlink:href="#SD3"/><use width="17.85" height="22.31" transform="matrix(8.24, 0, 0, -8.62, 126.43, 887.18)" xlink:href="#SD3"/><use width="17.85" height="22.31" transform="matrix(8.24, 0, 0, -8.62, 457.18, 887.18)" xlink:href="#SD3"/><use width="17.85" height="22.31" transform="matrix(8.24, 0, 0, -8.62, 125.97, 303.36)" xlink:href="#SD3"/><use width="17.85" height="22.31" transform="matrix(8.24, 0, 0, -8.62, 457.72, 303.36)" xlink:href="#SD3"/><use width="17.85" height="22.31" transform="matrix(8.24, 0, 0, -8.62, 125.87, 596.18)" xlink:href="#SD3"/><use width="17.85" height="22.31" transform="matrix(8.24, 0, 0, -8.62, 457.72, 596.18)" xlink:href="#SD3"/><use width="17.85" height="22.31" transform="matrix(8.24, 0, 0, -8.62, 286.95, 442.66)" xlink:href="#SD3"/><use width="17.85" height="22.31" transform="matrix(8.24, 0, 0, -8.62, 286.95, 749.7)" xlink:href="#SD3"/><use width="17.85" height="22.31" transform="matrix(2.98, 0, 0, -3.12, 623.4, 854.78)" xlink:href="#SD3"/><path d="M71,135.62a30.74,30.74,0,0,1-21.12-7.92,25.78,25.78,0,0,1-9.24-20.13q0-14.08,12.21-22.55a22.81,22.81,0,0,1-8.8-18.37,22.94,22.94,0,0,1,8.25-17.93A27.47,27.47,0,0,1,71,41.79a27.47,27.47,0,0,1,18.7,6.93A23.59,23.59,0,0,1,89.18,85q12.21,8.36,12.21,22.55a25.64,25.64,0,0,1-9.08,20A31.1,31.1,0,0,1,71,135.62Zm0-44A19.74,19.74,0,0,0,58.38,96a14.14,14.14,0,0,0-5.94,11.62q0,6.91,5.94,11.62a20.83,20.83,0,0,0,25.3,0q5.94-4.71,5.94-11.62A14.14,14.14,0,0,0,83.68,96,19.74,19.74,0,0,0,71,91.62Zm0-37.73a16,16,0,0,0-10.23,3.5A11.23,11.23,0,0,0,60.8,76a16.66,16.66,0,0,0,20.46,0,11.23,11.23,0,0,0,0-18.62A16,16,0,0,0,71,53.89Z" style="fill:red"/><path d="M649.64,960a30.74,30.74,0,0,1-21.12-7.92A25.78,25.78,0,0,1,619.28,932q0-14.09,12.21-22.55a23.59,23.59,0,0,1-.55-36.3,28.7,28.7,0,0,1,37.4,0,23.59,23.59,0,0,1-.55,36.3Q680,917.76,680,932a25.63,25.63,0,0,1-9.07,20A31.13,31.13,0,0,1,649.64,960Zm0-44A19.74,19.74,0,0,0,637,920.38,14.14,14.14,0,0,0,631.05,932q0,6.9,5.94,11.62a20.87,20.87,0,0,0,25.3,0q5.94-4.73,5.94-11.62a14.14,14.14,0,0,0-5.94-11.63A19.74,19.74,0,0,0,649.64,916Zm0-37.73a16,16,0,0,0-10.23,3.5,11.24,11.24,0,0,0,0,18.63,16.7,16.7,0,0,0,20.46,0,11.24,11.24,0,0,0,0-18.63A16,16,0,0,0,649.64,878.27Z" style="fill:red"/></g></svg>