<svg xmlns="http://www.w3.org/2000/svg" xmlns:xlink="http://www.w3.org/1999/xlink" viewBox="0 0 720 1008"><defs><symbol id="SD3" data-name="SD3" viewBox="0 0 17.85 22.31"><path d="M0,11.15c1.12,0,8.92,10,8.92,11.16,0-1.12,7.81-11.16,8.93-11.16-1.12,0-8.93-10-8.93-11.15C8.92,1.12,1.12,11.15,0,11.15Z" style="fill:red"/></symbol></defs><g id="Layer_2" data-name="Layer 2"><rect x="1.5" y="1.5" width="717" height="1005" rx="48.5" style="fill:#fff"/><path d="M670,3a47,47,0,0,1,47,47V958a47,47,0,0,1-47,47H50A47,47,0,0,1,3,958V50A47,47,0,0,1,50,3H670m0-3H50A50,50,0,0,0,0,50V958a50,50,0,0,0,50,50H670a50,50,0,0,0,50-50V50A50,50,0,0,0,670,0Z" style="fill:#333"/><use width="17.85" height="22.31" transform="matrix(2.98, 0, 0, -3.12, 44.76, 218.13)" xlink:href="#SD3"/><use width="17.85" height="22.31" transform="matrix(13.9, 0, 0, -14.54, 236.48, 666.67)" xlink:href="#SD3"/><use width="17.85" height="22.31" transform="matrix(2.98, 0, 0, -3.12, 623.4, 854.78)" xlink:href="#SD3"/><path d="M65,122v11H40V122h8.12L63.47,40H77.38l15.47,82H101v11H76V122h5.49l-1.82-10H61.39l-1.88,10Zm-1.15-21H78.1L71,63.09Z" style="fill:red"/><path d="M655,878V867h25v11h-8.12l-15.35,82H642.62l-15.47-82H619V867h25v11h-5.49l1.82,10h18.28l1.88-10Zm1.15,21H641.9l7.15,37.91Z" style="fill:red"/></g></svg>