<svg xmlns="http://www.w3.org/2000/svg" xmlns:xlink="http://www.w3.org/1999/xlink" viewBox="0 0 720 1008"><defs><symbol id="SH2" data-name="SH2" viewBox="0 0 17.85 22.31"><path d="M8.92,17.85a4.8,4.8,0,0,0,4.46,4.46c2.24,0,4.47-2.23,4.47-5.58,0-5.58-8.93-14.5-8.93-16.73C8.92,2.23,0,11.15,0,16.73c0,3.35,2.23,5.58,4.46,5.58A4.8,4.8,0,0,0,8.92,17.85Z" style="fill:red"/></symbol></defs><g id="Layer_2" data-name="Layer 2"><rect x="1.5" y="1.5" width="717" height="1005" rx="48.5" style="fill:#fff"/><path d="M670,3a47,47,0,0,1,47,47V958a47,47,0,0,1-47,47H50A47,47,0,0,1,3,958V50A47,47,0,0,1,50,3H670m0-3H50A50,50,0,0,0,0,50V958a50,50,0,0,0,50,50H670a50,50,0,0,0,50-50V50A50,50,0,0,0,670,0Z" style="fill:#333"/><use width="17.85" height="22.31" transform="matrix(3.36, 0, 0, -3.5, 40, 223)" xlink:href="#SH2"/><use width="17.85" height="22.31" transform="matrix(-3.36, 0, 0, 3.5, 674.43, 775.39)" xlink:href="#SH2"/><use width="17.85" height="22.31" transform="matrix(7.42, 0, 0, -7.72, 294.3, 286.84)" xlink:href="#SH2"/><use width="17.85" height="22.31" transform="matrix(-7.42, 0, 0, 7.72, 428.23, 733.94)" xlink:href="#SH2"/><path d="M87,110H99v24H40v-5.77q0-17.1,12.16-30.68,4.76-5.2,22.68-18.68Q87,69.71,87,63.13q0-6.1-6.75-9.51a26.07,26.07,0,0,0-12-2.71q-16.48,0-16.48,11.32a14.12,14.12,0,0,0,1.21,5.32L42,72.3a29.07,29.07,0,0,1-2-10.07q0-11.77,8.58-18.12,7.7-5.65,19.57-5.66a34.82,34.82,0,0,1,20.57,6.12q10,6.9,10,18.56,0,10.87-10.56,20.38l-20.7,16.3Q55.36,110.24,52.82,122H87Z" style="fill:red"/><path d="M633,888.45H621v-24h59v5.78q0,17.09-12.16,30.68-4.76,5.21-22.68,18.68Q633,928.76,633,935.32q0,6.12,6.75,9.51a26.07,26.07,0,0,0,12,2.72q16.49,0,16.48-11.32a14.08,14.08,0,0,0-1.21-5.32l11-4.76a29.16,29.16,0,0,1,2,10.08q0,11.76-8.58,18.11-7.7,5.65-19.57,5.66a34.88,34.88,0,0,1-20.57-6.11q-10-6.92-10-18.57,0-10.86,10.56-20.38l20.7-16.3q12.11-10.41,14.64-22.19H633Z" style="fill:red"/></g></svg>