<svg xmlns="http://www.w3.org/2000/svg" xmlns:xlink="http://www.w3.org/1999/xlink" viewBox="0 0 720 1008"><defs><symbol id="SH2" data-name="SH2" viewBox="0 0 17.85 22.31"><path d="M8.92,17.85a4.8,4.8,0,0,0,4.46,4.46c2.24,0,4.47-2.23,4.47-5.58,0-5.58-8.93-14.5-8.93-16.73C8.92,2.23,0,11.15,0,16.73c0,3.35,2.23,5.58,4.46,5.58A4.8,4.8,0,0,0,8.92,17.85Z" style="fill:red"/></symbol></defs><g id="Layer_2" data-name="Layer 2"><rect x="1.5" y="1.5" width="717" height="1005" rx="48.5" style="fill:#fff"/><path d="M670,3a47,47,0,0,1,47,47V958a47,47,0,0,1-47,47H50A47,47,0,0,1,3,958V50A47,47,0,0,1,50,3H670m0-3H50A50,50,0,0,0,0,50V958a50,50,0,0,0,50,50H670a50,50,0,0,0,50-50V50A50,50,0,0,0,670,0Z" style="fill:#333"/><use width="17.85" height="22.31" transform="matrix(3.36, 0, 0, -3.5, 40, 223)" xlink:href="#SH2"/><use width="17.85" height="22.31" transform="matrix(-3.36, 0, 0, 3.5, 674.43, 775.39)" xlink:href="#SH2"/><use width="17.85" height="22.31" transform="matrix(7.42, 0, 0, -7.72, 125.87, 285.43)" xlink:href="#SH2"/><use width="17.85" height="22.31" transform="matrix(7.42, 0, 0, -7.72, 472.42, 286.84)" xlink:href="#SH2"/><use width="17.85" height="22.31" transform="matrix(7.42, 0, 0, -7.72, 472.42, 586.06)" xlink:href="#SH2"/><use width="17.85" height="22.31" transform="matrix(7.42, 0, 0, -7.72, 125.87, 586.06)" xlink:href="#SH2"/><use width="17.85" height="22.31" transform="matrix(-7.42, 0, 0, 7.72, 258.27, 733.94)" xlink:href="#SH2"/><use width="17.85" height="22.31" transform="matrix(-7.42, 0, 0, 7.72, 604.83, 733.94)" xlink:href="#SH2"/><path d="M41.67,94.58h-.11c-.14.3-.22-2.31-.22-7.81q0-19.35,5.28-31.13,7.49-16.17,24.53-16.17A28.55,28.55,0,0,1,86.66,44,34,34,0,0,1,97.77,55.86L87.54,62Q81.6,51.58,71.15,51.57q-13.64,0-16.94,20.35A24.84,24.84,0,0,1,71,65.21q13.65,0,22.22,11.33Q101,86.77,101,101a35.83,35.83,0,0,1-8.25,23.32Q83.92,135,71,135q-6.37,0-13.31-4.18Q50.37,126.38,46,114.6A74.23,74.23,0,0,1,41.67,94.58ZM71,122.8q7.92,0,13.2-7.25a23.87,23.87,0,0,0,5-14.7,27.57,27.57,0,0,0-4.51-15.8Q79.63,77.25,71,77.26q-6.27,0-11.33,6a32.81,32.81,0,0,0-6.16,11.85A52.8,52.8,0,0,0,58,112.48Q62.8,122.8,71,122.8Z" style="fill:red"/><path d="M679.67,904.89h.11q.22-.43.22,7.81,0,19.37-5.28,31.13Q667.24,960,650.19,960a28.51,28.51,0,0,1-15.51-4.51,33.87,33.87,0,0,1-11.11-11.88l10.23-6.16q5.94,10.45,16.39,10.45,13.63,0,16.94-20.35a24.84,24.84,0,0,1-16.83,6.71q-13.63,0-22.22-11.33-7.7-10.23-7.7-24.42a35.85,35.85,0,0,1,8.25-23.32q8.8-10.66,21.67-10.67,6.38,0,13.31,4.18,7.36,4.39,11.77,16.17A74.31,74.31,0,0,1,679.67,904.89ZM650.3,876.68q-7.92,0-13.2,7.24a23.87,23.87,0,0,0-5,14.7,27.63,27.63,0,0,0,4.51,15.81q5.05,7.79,13.64,7.79,6.27,0,11.33-6a32.5,32.5,0,0,0,6.16-11.85,52.8,52.8,0,0,0-4.4-17.34Q658.55,876.67,650.3,876.68Z" style="fill:red"/></g></svg>