<svg xmlns="http://www.w3.org/2000/svg" xmlns:xlink="http://www.w3.org/1999/xlink" viewBox="0 0 720 1008"><defs><symbol id="SH2" data-name="SH2" viewBox="0 0 17.85 22.31"><path d="M8.92,17.85a4.8,4.8,0,0,0,4.46,4.46c2.24,0,4.47-2.23,4.47-5.58,0-5.58-8.93-14.5-8.93-16.73C8.92,2.23,0,11.15,0,16.73c0,3.35,2.23,5.58,4.46,5.58A4.8,4.8,0,0,0,8.92,17.85Z" style="fill:red"/></symbol></defs><g id="Layer_2" data-name="Layer 2"><rect x="1.5" y="1.5" width="717" height="1005" rx="48.5" style="fill:#fff"/><path d="M670,3a47,47,0,0,1,47,47V958a47,47,0,0,1-47,47H50A47,47,0,0,1,3,958V50A47,47,0,0,1,50,3H670m0-3H50A50,50,0,0,0,0,50V958a50,50,0,0,0,50,50H670a50,50,0,0,0,50-50V50A50,50,0,0,0,670,0Z" style="fill:#333"/><use width="17.85" height="22.31" transform="matrix(3.36, 0, 0, -3.5, 40, 223)" xlink:href="#SH2"/><use width="17.85" height="22.31" transform="matrix(-3.36, 0, 0, 3.5, 674.43, 775.39)" xlink:href="#SH2"/><use width="17.85" height="22.31" transform="matrix(6.34, 0, 0, -6.59, 125.87, 260.39)" xlink:href="#SH2"/><use width="17.85" height="22.31" transform="matrix(6.34, 0, 0, -6.59, 125.87, 573.54)" xlink:href="#SH2"/><use width="17.85" height="22.31" transform="matrix(6.34, 0, 0, -6.59, 303.93, 420.17)" xlink:href="#SH2"/><use width="17.85" height="22.31" transform="matrix(-6.34, 0, 0, 6.59, 239.01, 765.54)" xlink:href="#SH2"/><use width="17.85" height="22.31" transform="matrix(6.34, 0, 0, -6.59, 491.69, 260.39)" xlink:href="#SH2"/><use width="17.85" height="22.31" transform="matrix(6.34, 0, 0, -6.59, 491.72, 576.56)" xlink:href="#SH2"/><use width="17.85" height="22.31" transform="matrix(-6.34, 0, 0, 6.59, 604.83, 765.54)" xlink:href="#SH2"/><path d="M40,65V40H94.07l6.08,10.62Q77.49,83.13,68.64,132H55.33Q63.19,87.2,82.88,53H53V65Z" style="fill:red"/><path d="M680,931.57v25H625.93L619.85,946q22.67-32.51,31.51-81.38h13.31q-7.86,44.8-27.55,79H667v-12Z" style="fill:red"/></g></svg>