<svg xmlns="http://www.w3.org/2000/svg" xmlns:xlink="http://www.w3.org/1999/xlink" viewBox="0 0 720 1008"><defs><symbol id="SH2" data-name="SH2" viewBox="0 0 17.85 22.31"><path d="M8.92,17.85a4.8,4.8,0,0,0,4.46,4.46c2.24,0,4.47-2.23,4.47-5.58,0-5.58-8.93-14.5-8.93-16.73C8.92,2.23,0,11.15,0,16.73c0,3.35,2.23,5.58,4.46,5.58A4.8,4.8,0,0,0,8.92,17.85Z" style="fill:red"/></symbol></defs><g id="Layer_2" data-name="Layer 2"><rect x="1.5" y="1.5" width="717" height="1005" rx="48.5" style="fill:#fff"/><path d="M670,3a47,47,0,0,1,47,47V958a47,47,0,0,1-47,47H50A47,47,0,0,1,3,958V50A47,47,0,0,1,50,3H670m0-3H50A50,50,0,0,0,0,50V958a50,50,0,0,0,50,50H670a50,50,0,0,0,50-50V50A50,50,0,0,0,670,0Z" style="fill:#333"/><use width="17.85" height="22.31" transform="matrix(3.36, 0, 0, -3.5, 40, 223)" xlink:href="#SH2"/><use width="17.85" height="22.31" transform="matrix(-3.36, 0, 0, 3.5, 680.24, 774.69)" xlink:href="#SH2"/><use width="17.85" height="22.31" transform="matrix(6.34, 0, 0, -6.59, 125.87, 260.39)" xlink:href="#SH2"/><use width="17.85" height="22.31" transform="matrix(6.34, 0, 0, -6.59, 125.87, 479.56)" xlink:href="#SH2"/><use width="17.85" height="22.31" transform="matrix(-6.34, 0, 0, 6.59, 239.01, 548.72)" xlink:href="#SH2"/><use width="17.85" height="22.31" transform="matrix(6.34, 0, 0, -6.59, 303.43, 573.54)" xlink:href="#SH2"/><use width="17.85" height="22.31" transform="matrix(-6.34, 0, 0, 6.59, 239.01, 765.54)" xlink:href="#SH2"/><use width="17.85" height="22.31" transform="matrix(6.34, 0, 0, -6.59, 491.69, 260.39)" xlink:href="#SH2"/><use width="17.85" height="22.31" transform="matrix(6.34, 0, 0, -6.59, 491.69, 479.56)" xlink:href="#SH2"/><use width="17.85" height="22.31" transform="matrix(-6.34, 0, 0, 6.59, 604.83, 548.72)" xlink:href="#SH2"/><use width="17.85" height="22.31" transform="matrix(-6.34, 0, 0, 6.59, 604.83, 765.54)" xlink:href="#SH2"/><path d="M85.79,100.39a27.08,27.08,0,0,1-17.38,6.16q-13,0-21.67-10.23a34.57,34.57,0,0,1-8.36-23,34.31,34.31,0,0,1,8.36-23Q55.43,40,68.41,40,84.48,40,92.5,56.61q6.16,12.87,6.16,30.91,0,18.92-6,31.35-7.92,16.4-24.86,16.39-16.5,0-26.18-16.94l10.34-6q6.17,10.89,15.84,10.89Q82.17,123.16,85.79,100.39ZM68.35,52.1q-7.93,0-13.23,6.8a23.27,23.27,0,0,0,0,28.75q5.3,6.8,13.23,6.8a15.72,15.72,0,0,0,11.7-5.16,24.51,24.51,0,0,0,6.07-11.52Q82.92,52.11,68.35,52.1Z" style="fill:red"/><path d="M632.59,899.61A27.08,27.08,0,0,1,650,893.45q13,0,21.67,10.23a35.79,35.79,0,0,1,0,46Q663,960,650,960q-16.07,0-24.09-16.61-6.17-12.87-6.16-30.91,0-18.91,6-31.35,7.92-16.39,24.86-16.39,16.5,0,26.18,16.94l-10.34,6.05q-6.16-10.89-15.84-10.89Q636.21,876.84,632.59,899.61ZM650,947.9q8,0,13.24-6.8a23.27,23.27,0,0,0,0-28.75q-5.29-6.79-13.24-6.8a15.71,15.71,0,0,0-11.69,5.16,24.51,24.51,0,0,0-6.07,11.52Q635.45,947.9,650,947.9Z" style="fill:red"/></g></svg>