<svg xmlns="http://www.w3.org/2000/svg" xmlns:xlink="http://www.w3.org/1999/xlink" viewBox="0 0 720 1008"><defs><symbol id="SH2" data-name="SH2" viewBox="0 0 17.85 22.31"><path d="M8.92,17.85a4.8,4.8,0,0,0,4.46,4.46c2.24,0,4.47-2.23,4.47-5.58,0-5.58-8.93-14.5-8.93-16.73C8.92,2.23,0,11.15,0,16.73c0,3.35,2.23,5.58,4.46,5.58A4.8,4.8,0,0,0,8.92,17.85Z" style="fill:red"/></symbol></defs><g id="Layer_2" data-name="Layer 2"><rect x="1.5" y="1.5" width="717" height="1005" rx="48.5" style="fill:#fff"/><path d="M670,3a47,47,0,0,1,47,47V958a47,47,0,0,1-47,47H50A47,47,0,0,1,3,958V50A47,47,0,0,1,50,3H670m0-3H50A50,50,0,0,0,0,50V958a50,50,0,0,0,50,50H670a50,50,0,0,0,50-50V50A50,50,0,0,0,670,0Z" style="fill:#333"/><path d="M65,134H41V121h9V55H41V42H56v79h9Z" style="fill:red"/><path d="M72,103.75V71.32q0-12.66,4.07-21.84T86,40.31q5.85,0,9.93,9.17T100,71.32v32.43q0,12.66-4.07,22T86,135.08q-5.85,0-9.93-9.33T72,103.75Zm6-32.24v32.05a32.26,32.26,0,0,0,2.34,12.79q2.34,5.45,5.66,5.44t5.66-5.5A32.3,32.3,0,0,0,94,103.56v-32A30.69,30.69,0,0,0,91.66,59q-2.34-5.3-5.66-5.29T80.34,59A30.69,30.69,0,0,0,78,71.51Z" style="fill:red"/><path d="M656,866.31h24v13h-9v66h9v13H665v-79h-9Z" style="fill:red"/><path d="M649,896.57V929q0,12.68-4.07,21.84T635,960q-5.85,0-9.93-9.17T621,929V896.57q0-12.68,4.07-22t9.93-9.34q5.85,0,9.93,9.34T649,896.57Zm-6,32.23v-32A32.18,32.18,0,0,0,640.66,884c-1.56-3.64-3.45-5.45-5.66-5.45s-4.1,1.83-5.66,5.5A32.3,32.3,0,0,0,627,896.75v32a30.78,30.78,0,0,0,2.34,12.52q2.34,5.28,5.66,5.28t5.66-5.28A30.78,30.78,0,0,0,643,928.8Z" style="fill:red"/><use width="17.85" height="22.31" transform="matrix(3.36, 0, 0, -3.5, 40, 223)" xlink:href="#SH2"/><use width="17.85" height="22.31" transform="matrix(-3.36, 0, 0, 3.5, 679, 771.26)" xlink:href="#SH2"/><use width="17.85" height="22.31" transform="matrix(6.34, 0, 0, -6.59, 125.87, 260.39)" xlink:href="#SH2"/><use width="17.85" height="22.31" transform="matrix(6.34, 0, 0, -6.59, 125.87, 479.56)" xlink:href="#SH2"/><use width="17.85" height="22.31" transform="matrix(6.34, 0, 0, -6.59, 303.65, 360.38)" xlink:href="#SH2"/><use width="17.85" height="22.31" transform="matrix(-6.34, 0, 0, 6.59, 239.01, 548.72)" xlink:href="#SH2"/><use width="17.85" height="22.31" transform="matrix(-6.34, 0, 0, 6.59, 417.07, 656.46)" xlink:href="#SH2"/><use width="17.85" height="22.31" transform="matrix(-6.34, 0, 0, 6.59, 239.01, 765.54)" xlink:href="#SH2"/><use width="17.85" height="22.31" transform="matrix(6.34, 0, 0, -6.59, 491.69, 260.39)" xlink:href="#SH2"/><use width="17.85" height="22.31" transform="matrix(6.34, 0, 0, -6.59, 491.69, 479.56)" xlink:href="#SH2"/><use width="17.85" height="22.31" transform="matrix(-6.34, 0, 0, 6.59, 604.83, 548.72)" xlink:href="#SH2"/><use width="17.85" height="22.31" transform="matrix(-6.34, 0, 0, 6.59, 604.83, 765.54)" xlink:href="#SH2"/></g></svg>