<svg xmlns="http://www.w3.org/2000/svg" xmlns:xlink="http://www.w3.org/1999/xlink" viewBox="0 0 720 1008"><defs><style>.cls-1{fill:#fff;}.cls-2{fill:#333;}</style><symbol id="SS2-3" data-name="SS2" viewBox="0 0 15.84 22.31"><path d="M7.92,22.31c2.23-5.58,7.92-8.93,7.92-15.28A3.35,3.35,0,1,0,9.15,7a.22.22,0,0,1-.23.22A.22.22,0,0,1,8.7,7c0-4.46,1.12-4.8,2.12-7H5C6,2.23,7.14,2.57,7.14,7a.22.22,0,0,1-.22.22A.22.22,0,0,1,6.69,7,3.35,3.35,0,1,0,0,7C0,13.38,5.69,16.73,7.92,22.31Z"/></symbol></defs><g id="Layer_2" data-name="Layer 2"><rect class="cls-1" x="1.5" y="1.5" width="717" height="1005" rx="48.5"/><path class="cls-2" d="M670,3a47,47,0,0,1,47,47V958a47,47,0,0,1-47,47H50A47,47,0,0,1,3,958V50A47,47,0,0,1,50,3H670m0-3H50A50,50,0,0,0,0,50V958a50,50,0,0,0,50,50H670a50,50,0,0,0,50-50V50A50,50,0,0,0,670,0Z"/><g id="SS2-2" data-name="SS2"><path d="M360.5,78.56c-19,47.48-67.42,76-67.42,130.1a28.49,28.49,0,0,0,57,0,1.9,1.9,0,0,1,3.8,0c0,38-9.49,40.83-18,59.82h49.38c-8.55-19-18-21.84-18-59.82a1.9,1.9,0,1,1,3.8,0,28.49,28.49,0,0,0,57,0C427.92,154.53,379.49,126,360.5,78.56Z"/><path d="M360,405c-19,47.48-67.42,76-67.42,130.09a28.49,28.49,0,1,0,57,0,1.9,1.9,0,0,1,3.8,0c0,38-9.49,40.84-18,59.83h49.38c-8.55-19-18-21.84-18-59.83a1.9,1.9,0,0,1,3.8,0,28.49,28.49,0,1,0,57,0C427.42,481,379,452.52,360,405Z"/><path d="M427.42,788.14a28.49,28.49,0,0,0-57,0,1.9,1.9,0,1,1-3.8,0c0-38,9.49-40.83,18-59.82H335.31c8.55,19,18,21.84,18,59.82a1.9,1.9,0,1,1-3.8,0,28.49,28.49,0,0,0-57,0c0,54.13,48.43,82.62,67.42,130.1C379,870.76,427.42,842.27,427.42,788.14Z"/></g><use width="15.84" height="22.31" transform="translate(622.08 774.34) scale(3.66)" xlink:href="#SS2-3"/><use width="15.84" height="22.31" transform="translate(97.92 225.66) rotate(180) scale(3.66)" xlink:href="#SS2-3"/><path d="M74.54,135.7a28.07,28.07,0,0,1-18.92-7.26A39,39,0,0,1,44.4,111.28l11.24-4a27,27,0,0,0,7,11.25,17,17,0,0,0,12,5A19,19,0,0,0,89.05,117a21.44,21.44,0,0,0,6.06-14.92q0-8.23-5.19-13.38T76.36,83.56a15.13,15.13,0,0,0-6.07,1A21.24,21.24,0,0,0,65,88.4L56.5,80,83.89,54.3H57.49V66.07H45.72V42.2h60.17v7.57L82.43,72a28.89,28.89,0,0,1,17.79,10.41,30.61,30.61,0,0,1,6.66,19.75,33.09,33.09,0,0,1-9.57,23.44Q87.74,135.71,74.54,135.7Z"/><path d="M649.86,864.57a28.11,28.11,0,0,1,18.92,7.25A39,39,0,0,1,680,889l-11.24,4a27,27,0,0,0-7-11.26,17,17,0,0,0-12-5,19,19,0,0,0-14.44,6.59,21.42,21.42,0,0,0-6.06,14.92q0,8.22,5.19,13.38T648,916.7a15.15,15.15,0,0,0,6.07-1,21.77,21.77,0,0,0,5.3-3.85l8.49,8.35L640.51,946h26.4V934.2h11.77v23.87H618.51v-7.58L642,928.29a28.87,28.87,0,0,1-17.79-10.4,30.63,30.63,0,0,1-6.66-19.76,33.09,33.09,0,0,1,9.57-23.44Q636.66,864.57,649.86,864.57Z"/></g></svg>