<svg xmlns="http://www.w3.org/2000/svg" xmlns:xlink="http://www.w3.org/1999/xlink" viewBox="0 0 720 1008"><defs><style>.cls-1{fill:#fff;}.cls-2{fill:#333;}</style><symbol id="SS2-3" data-name="SS2" viewBox="0 0 15.84 22.31"><path d="M7.92,22.31c2.23-5.58,7.92-8.93,7.92-15.28A3.35,3.35,0,1,0,9.15,7a.22.22,0,0,1-.23.22A.22.22,0,0,1,8.7,7c0-4.46,1.12-4.8,2.12-7H5C6,2.23,7.14,2.57,7.14,7a.22.22,0,0,1-.22.22A.22.22,0,0,1,6.69,7,3.35,3.35,0,1,0,0,7C0,13.38,5.69,16.73,7.92,22.31Z"/></symbol></defs><g id="Layer_2" data-name="Layer 2"><rect class="cls-1" x="1.5" y="1.5" width="717" height="1005" rx="48.5"/><path class="cls-2" d="M670,3a47,47,0,0,1,47,47V958a47,47,0,0,1-47,47H50A47,47,0,0,1,3,958V50A47,47,0,0,1,50,3H670m0-3H50A50,50,0,0,0,0,50V958a50,50,0,0,0,50,50H670a50,50,0,0,0,50-50V50A50,50,0,0,0,670,0Z"/><g id="SS2-2" data-name="SS2"><path d="M524.75,78.56c-19,47.48-67.42,76-67.42,130.1a28.49,28.49,0,0,0,57,0,1.9,1.9,0,1,1,3.8,0c0,38-9.5,40.83-18.05,59.82h49.38c-8.54-19-18-21.84-18-59.82a1.9,1.9,0,0,1,3.8,0,28.49,28.49,0,0,0,57,0C592.17,154.53,543.74,126,524.75,78.56Z"/><path d="M196.06,78.56c-19,47.48-67.42,76-67.42,130.1a28.49,28.49,0,0,0,57,0,1.9,1.9,0,0,1,3.8,0c0,38-9.5,40.83-18,59.82h49.38c-8.55-19-18.05-21.84-18.05-59.82a1.9,1.9,0,0,1,3.8,0,28.49,28.49,0,0,0,57,0C263.48,154.53,215.05,126,196.06,78.56Z"/><path d="M592.17,788.14a28.49,28.49,0,0,0-57,0,1.9,1.9,0,0,1-3.8,0c0-38,9.5-40.83,18-59.82H500.06c8.55,19,18.05,21.84,18.05,59.82a1.9,1.9,0,1,1-3.8,0,28.49,28.49,0,0,0-57,0c0,54.13,48.43,82.62,67.42,130.1C543.74,870.76,592.17,842.27,592.17,788.14Z"/><path d="M263.48,784.87a28.49,28.49,0,0,0-57,0,1.9,1.9,0,0,1-3.8,0c0-38,9.5-40.84,18.05-59.83H171.37c8.54,19,18,21.84,18,59.83a1.9,1.9,0,0,1-3.8,0,28.49,28.49,0,1,0-57,0c0,54.12,48.43,82.61,67.42,130.09C215.05,867.48,263.48,839,263.48,784.87Z"/><path d="M75,122.17h7.48v-9.68H45.94v-9.57l38.17-60.5H94.23v58h11.33v12.1H94.23v9.68h5.61v12.1H75ZM61.71,100.39H82.46V67.5Z"/><path d="M648.86,880.13h-7.48v9.68H677.9v9.57l-38.17,60.5H629.61v-58H618.28v-12.1h11.33v-9.68H624V868h24.86Zm13.26,21.78H641.38V934.8Z"/></g><use width="15.84" height="22.31" transform="translate(622.08 774.34) scale(3.66)" xlink:href="#SS2-3"/><use width="15.84" height="22.31" transform="translate(97.92 225.66) rotate(180) scale(3.66)" xlink:href="#SS2-3"/></g></svg>