<svg id="sara" xmlns="http://www.w3.org/2000/svg" xmlns:xlink="http://www.w3.org/1999/xlink" viewBox="0 0 720 1008">
  <defs>
    <style>
      .cls-1 {
        fill: #fff;
      }

      .cls-2 {
        fill: #333;
      }

      .cls-3 {
        fill: #e9e9e9;
      }

      .cls-4 {
        fill: #202020;
      }

      .cls-5 {
        fill: #4d4d4d;
      }

      .cls-6 {
        fill: #7c7c7c;
      }

      .cls-7 {
        fill: #7d7d7d;
      }

      .cls-8 {
        fill: #757575;
      }

      .cls-9 {
        fill: #585858;
      }

      .cls-10 {
        fill: #606060;
      }

      .cls-11 {
        fill: #626262;
      }

      .cls-12 {
        fill: #5b5b5b;
      }

      .cls-13 {
        fill: #686868;
      }

      .cls-14 {
        fill: #535353;
      }

      .cls-15 {
        fill: #7b7b7b;
      }

      .cls-16 {
        fill: #545454;
      }

      .cls-17 {
        fill: #666;
      }

      .cls-18 {
        fill: #656565;
      }

      .cls-19 {
        fill: #555;
      }

      .cls-20 {
        fill: #5d5d5d;
      }

      .cls-21 {
        fill: #515151;
      }

      .cls-22 {
        fill: #636363;
      }

      .cls-23 {
        fill: #787878;
      }

      .cls-24 {
        fill: #5c5c5c;
      }

      .cls-25 {
        fill: #6d6d6d;
      }

      .cls-26 {
        fill: #4e4e4e;
      }

      .cls-27 {
        fill: #525252;
      }

      .cls-28 {
        fill: #717171;
      }

      .cls-29 {
        fill: #595959;
      }

      .cls-30 {
        fill: #747474;
      }

      .cls-31 {
        fill: #767676;
      }

      .cls-32 {
        fill: #565656;
      }

      .cls-33 {
        fill: #727272;
      }

      .cls-34 {
        fill: #7a7a7a;
      }

      .cls-35 {
        fill: #646464;
      }

      .cls-36 {
        fill: #282828;
      }

      .cls-37 {
        fill: #303030;
      }

      .cls-38 {
        fill: #262626;
      }

      .cls-39 {
        fill: #272727;
      }

      .cls-40 {
        fill: #2a2a2a;
      }

      .cls-41 {
        fill: #2c2c2c;
      }

      .cls-42 {
        fill: #777;
      }

      .cls-43 {
        fill: #6e6e6e;
      }

      .cls-44 {
        fill: #696969;
      }

      .cls-45 {
        fill: #5e5e5e;
      }

      .cls-46 {
        fill: #212121;
      }

      .cls-47 {
        fill: #222;
      }

      .cls-48 {
        fill: #232323;
      }

      .cls-49 {
        fill: #616161;
      }

      .cls-50 {
        fill: #575757;
      }

      .cls-51 {
        fill: #676767;
      }

      .cls-52 {
        fill: #e3e3e3;
      }

      .cls-53 {
        fill: #dbdbdb;
      }

      .cls-54 {
        fill: #6a6a6a;
      }

      .cls-55 {
        fill: #6f6f6f;
      }

      .cls-56 {
        fill: #e4e4e4;
      }

      .cls-57 {
        fill: #6c6c6c;
      }

      .cls-58 {
        fill: #797979;
      }

      .cls-59 {
        fill: #5f5f5f;
      }

      .cls-60 {
        fill: #e5e5e5;
      }

      .cls-61 {
        fill: #e1e1e1;
      }

      .cls-62 {
        fill: #e2e2e2;
      }

      .cls-63 {
        fill: #e6e6e6;
      }

      .cls-64 {
        fill: #dcdcdc;
      }

      .cls-65 {
        fill: #e0e0e0;
      }

      .cls-66 {
        fill: #ddd;
      }

      .cls-67 {
        fill: #dadada;
      }

      .cls-68 {
        fill: #dedede;
      }

      .cls-69 {
        fill: #707070;
      }
    </style>
    <symbol id="SS2-3" data-name="SS2" viewBox="0 0 15.84 22.31">
      <path d="M7.92,22.31c2.23-5.58,7.92-8.93,7.92-15.28A3.35,3.35,0,1,0,9.15,7a.22.22,0,0,1-.23.22A.22.22,0,0,1,8.7,7c0-4.46,1.12-4.8,2.12-7H5C6,2.23,7.14,2.57,7.14,7a.22.22,0,0,1-.22.22A.22.22,0,0,1,6.69,7,3.35,3.35,0,1,0,0,7C0,13.38,5.69,16.73,7.92,22.31Z"/>
    </symbol>
  </defs>
  <g id="Layer_2" data-name="Layer 2">
    <g>
      <rect class="cls-1" x="1.5" y="1.5" width="717" height="1005" rx="48.5"/>
      <path class="cls-2" d="M670,3a47,47,0,0,1,47,47V958a47,47,0,0,1-47,47H50A47,47,0,0,1,3,958V50A47,47,0,0,1,50,3H670m0-3H50A50,50,0,0,0,0,50V958a50,50,0,0,0,50,50H670a50,50,0,0,0,50-50V50A50,50,0,0,0,670,0Z"/>
    </g>
  </g>
  <path d="M54.59,101.26v5.61q0,6.6,2.75,10.56,3.3,4.72,9.9,4.73a11.19,11.19,0,0,0,9-4.07,14.23,14.23,0,0,0,3.08-9.35V54.29h-10V41.2h32.23V54.29H92v54.45q0,11.12-6.71,18.59a23.18,23.18,0,0,1-18,7.81A23.83,23.83,0,0,1,49,127.44a26.21,26.21,0,0,1-7-18.81v-7.37Z"/>
  <path d="M667.35,899.94v-5.61q0-6.6-2.75-10.56-3.3-4.72-9.9-4.73a11.19,11.19,0,0,0-9,4.07,14.23,14.23,0,0,0-3.08,9.35v54.45h10V960H620.38V946.91H630V892.46q0-11.12,6.71-18.59a23.18,23.18,0,0,1,18-7.81,23.83,23.83,0,0,1,18.26,7.7,26.21,26.21,0,0,1,7,18.81v7.37Z"/>
  <use width="15.84" height="22.31" transform="translate(622 774) scale(3.66 3.68)" xlink:href="#SS2-3"/>
  <use width="15.84" height="22.31" transform="translate(98 226) rotate(180) scale(3.66 3.68)" xlink:href="#SS2-3"/>
  <g>
    <path class="cls-3" d="M106,883.66c-.37-4.62.38-7.93,5.42-10.43,7.43-3.69,7.34-13.39.56-18.12-8.1-5.65-8.33-12.26-.63-18.12s7.49-13.7-.4-19.25c-7-4.92-6.86-12.1.29-17.1s7.6-13.24.85-18.6c-3.34-2.65-6.26-5.06-6.12-9.84.11-3.62,1.06-6.09,4.55-8,9.53-5.22,9.67-12.91.67-19.66-7.68-5.76-7.34-12.58.9-17.69a10.78,10.78,0,0,0-.47-18.41c-4.54-2.63-5.89-5.75-5.65-10.51a7.84,7.84,0,0,1,4.52-7.25c8.15-4.52,8.69-13.82,1.38-19.1-8.39-6.07-8.34-12.31.15-18,6.63-4.43,6.58-13.88-.09-18.74-8.44-6.13-8.42-12.5,0-18,7.22-4.68,7-14.15-.41-19-7.89-5.09-7.87-12.06,0-17.22,7.29-4.77,7.08-15-.41-19.73s-7.41-12.69-.16-17.17c8.27-5.1,8.3-14.54.08-19.65-7.36-4.58-7.26-12.12.24-16.89a11.54,11.54,0,0,0,.09-19.72c-7.52-4.83-7.71-12.37-.42-16.89,7.91-4.91,7.94-15.14.06-20.07-7-4.35-7.16-11.13-.46-16.16,8.66-6.5,8.51-15.6-.34-21a9,9,0,0,1-.85-15c1-.79,2.19-1.33,3.15-2.16,6.11-5.2,5.69-13.46-.9-18.12-7.78-5.51-8-11.94-.72-17.45,7.88-5.93,7.92-13.29.1-19.61-7.21-5.82-7.19-11,.09-16.93,7.68-6.24,7.65-13.6-.08-19.84-7.41-6-7.23-12,.52-17.42,7.14-5,7.25-13.53-.4-19-3.79-2.73-5.63-5.46-5.24-10.06a8.26,8.26,0,0,1,4-6.85c9.37-6.16,9.54-13.64.19-20.22-3.49-2.45-4.27-5.31-4.21-9.09a7.83,7.83,0,0,1,4.26-7.42c8.48-5,9-13.72,1.19-19.79-3.21-2.48-5.82-4.57-5.51-9.16.25-3.6,1.23-6.12,4.51-8.14,8.54-5.25,8.85-13.34.85-19.67-2.63-2.08-5.46-3.58-5.32-7.66.13-3.75.53-6.48,4.6-8.6,8.35-4.34,8.59-14.17,1.05-20a15,15,0,0,1-5.2-16.66c1.69-4.82,13.37-5.88,17.34-1.48,1,1.11,1.55,2.64,2.44,3.88,5.34,7.48,13.68,7.48,19,0C151.41,98.24,156,98,163,106c8,9.15,13.43,8.81,20.48-1.27,4.31-6.16,12-6.06,16.19.21,6.73,10,14.59,9.83,21.17-.57a9.2,9.2,0,0,1,15.21-.18c.72,1,1.21,2.27,2,3.25,5.87,7.19,13.95,6.56,18.8-1.43,4.49-7.41,11.8-7.86,17-1.05,7.69,10.12,13,10.17,20.9.17,5.48-7,12.57-6.61,16.74.85,4.47,8,13.32,8.45,19.52,1,7.57-9.1,11.56-9.13,18.32-.16,5.56,7.39,13.5,7.17,19-.52,6-8.42,12.38-8.37,18,.13,5.12,7.77,14.17,7.89,19.6.26,6.28-8.83,12.17-8.84,17.92,0,4.93,7.56,13.68,7.72,18.72,0,2.39-3.68,4.59-6.54,9.48-6.28,3.57.19,6,1.15,8.08,4.49,6.3,10.07,14.1,9.92,20.76,0,4.23-6.31,11.64-6.25,15.92.14,6.42,9.57,13.26,9.77,20.69.58,6.12-7.56,12.08-7.31,17.27.73s14.68,8,20-.21c4.85-7.57,11.19-7.92,16.86-.94,8.11,10,14.48,9.63,21.27-1.15,2.11-3.34,8.92-4.83,14.49-3.4,4.58,1.18,3.7,4.82,3.94,8,.39,5.35-.52,9.5-5.84,12.88-7.32,4.64-6.56,14.26.68,19.08,7,4.63,7.28,11.53.79,16.44-8.5,6.42-8.74,13.51-.66,20,7.28,5.86,7.1,11.59-.56,17.55-7.06,5.49-7,13,.06,18.52,7.73,6,7.76,12.24.07,18.17-7.45,5.74-7.22,13.51.56,18.79,6.77,4.61,6.94,12.44.38,17.37-8.6,6.46-8.57,12.71.1,19.53,6.34,5,6.24,11.8-.27,17-8.09,6.41-7.88,14.17.54,19.88,5.78,3.93,5.89,11.89.23,16.37-9.39,7.46-9.24,13.11.57,20.46,4.34,3.26,4.82,11.84.8,15.42-1.52,1.35-3.38,2.34-4.79,3.78-5.42,5.57-4.49,12.49,2.12,16.67,7.37,4.65,7.44,12.65.17,17.18-8,5-7.91,14.71.22,19.79,6.82,4.27,6.86,12.7.08,16.84-8.08,4.94-8.17,14.62-.18,19.88,6.9,4.54,7,12.73.28,16.85-7.8,4.76-8.19,13.9-.82,19.5,7.77,5.91,7.7,11.8-.22,17.75-6.88,5.17-6.55,14,.7,19.33s7.12,12.63-.24,17.27-7.44,13.68-.33,19.15q11.75,9,0,17.75c-7,5.22-6.69,14,.7,19.09,6.81,4.69,6.91,12.49.21,17.18-8.06,5.63-8,14.3,0,20.08,6.47,4.65,6.55,12.16.17,16.6-8.26,5.77-8.32,14.22-.13,19.83,6.21,4.25,6.54,11.77.71,16.33-9.19,7.2-9.16,13.51.11,20.68a10,10,0,0,1-.14,16.12c-9.41,7.22-9.41,13.36,0,20.57,5.79,4.43,5.7,12.17-.56,16.45-4.45,3.05-6.91,6.68-6,12.17a9.84,9.84,0,0,0,5,7.3c7.81,4.57,7.9,12.62.24,17.43s-7.37,14.53.41,19.3c6.87,4.2,7,12.4.2,16.84-8.42,5.5-8.38,15.19.45,20.11,7.16,4,3.41,10.31,4,15.66.3,2.61-1.57,4-4.2,4.55-6.76,1.4-12.08-.11-14.76-4.43-6-9.71-14.83-9.63-20.65.2-3.64,6.13-12,6.14-16,0-5.68-8.68-15.32-8.9-21.13-.5-4.54,6.57-10.93,6.78-15.87.52-7.39-9.37-14.76-9-21.73,1-3.34,4.8-12.42,4.67-15.54-.21-6.08-9.52-14.55-10.09-21.49-1.44-5.78,7.19-11.76,7-16.59-.58-4.51-7.05-13.39-7.23-19.36-.47-1.79,2-2.43,5.33-5.76,5.73-4.66.55-8.58.59-11.64-4.62-5-8.55-15.89-8-21.2.47-3.83,6.1-12.29,6.54-16.06.24-6.18-10.33-15-9-21,0a9.45,9.45,0,0,1-16.15-.17c-6-9.63-13.76-9.76-20.31-.35-4.56,6.55-12.38,6.66-16.52.22-6.17-9.59-14-10-20.68-1-5.88,7.88-11.71,7.67-17.59-.64-5.62-7.95-14.05-7.74-19.23.47-5,7.88-12.67,8-17.5.26-5.36-8.56-13.89-8.68-19.73-.27-5.51,7.94-12.52,7.93-17.59,0-5.34-8.35-14.33-8.24-19.65.25-4.67,7.47-12.28,7.62-17.25.34-6.31-9.26-14.65-9.11-20.5.35-2.68,4.34-13.93,6.72-17.48,3.52C105,890.49,106.39,886.83,106,883.66ZM566.55,445.1q0-6,0-12,0-33.28,0-66.57c0-2.22.31-4.79-2.8-5.51-4.76-.09-9.57-.62-14.27-.15-6.27.63-10.59-.88-11.75-7.68-2.31-1.26-4.92-1.17-7.41-1.62-25.89-4.68-47.05-28.27-47.68-54.46-.61-25.23-.1-50.48-.27-75.72,0-4.68,1.63-6.64,6.27-5.89l0,0c0,26.81-.31,53.61.07,80.41.34,24.26,19.74,46.35,43,49.75,2.4.35,5.95,2.31,7-2,1-4-1.6-5-5.09-5.83-24.05-5.87-37.16-22.64-37.24-47.46-.09-25-.06-50-.08-75l0,0c5.66-1,6.17,2.46,6.16,6.83-.09,23.22-.21,46.44,0,69.65.16,18.88,10.15,33.05,26.8,38.75a30,30,0,0,0,5.94,1.29,2.82,2.82,0,0,0,3.45-2.24c.37-1.79.57-3.74-1.29-4.78a35.11,35.11,0,0,0-5-1.85c-13.64-5-21.44-14.91-21.76-29.34-.54-24.23-.15-48.48-.25-72.71,0-4.27,1.58-6.24,5.93-5.53,0,6.88.1,13.77.11,20.65,0,18.61-.09,37.23.12,55.84.15,12.65,7.05,22.38,17.32,25.23,1.68.46,3.63,1.47,4.63-.81.83-1.9.94-4.05-.76-5.68a10.41,10.41,0,0,0-2.59-1.57c-7.06-3.61-10.11-9.3-10.24-17.3q-.57-34.79.12-69.54c0-2.32-.93-6.17,2.56-6.18,4.23,0,2.63,4.17,2.79,6.61.67,10.41-.81,20.88.89,31.26-1.55,13.47-.83,27-.29,40.45.15,3.6,1.81,8.12,5.82,7.75s1.61-5,2.14-7.69a8.68,8.68,0,0,0,0-1.52l.66-78.77c14.44,2.32,26.63-3.39,32.1-14.77,1.84-3.84,1.54-5.55-3.2-5.43-6.6.16-13.21,0-19.82-.09.44-2.81,1.95-5.18,3.18-7.66q10.53-21.42,21.1-42.82c-.26-5.6-4.64-2.71-6.73-2.71q-128.89-.08-257.78.27c-9,0-9.09.21-5.17,8.16.45.91,1,1.79,1.41,2.72,6.47,14.12,14.64,27.43,20.14,42-5.85.05-11.7,0-17.55.19-2.14.07-5-1.12-6.23,1.16s.86,4.36,2.08,6.2c7.85,11.83,19,15.37,32.51,12.61,1.45.38,2.89,1.09,4.34,1.1,12.9.09,25.8,0,38.7,0l5.92.05,46.05-.06c3.05.13,6.1.4,9.15.38,8.41-.06,16.82-.3,25.23-.36,9.09-.06,9.12,0,9.35,9.41.08,3.31-.08,6.63-.05,9.95.2,22.18-.89,44.38.6,66.53,1.93,28.54,27.37,55.33,55,58.55-2.78,1.86-5.92,1.22-8.92,1.22q-44.7.08-89.39,0c-22.23,0-34.24,8.21-42.58,29a10.34,10.34,0,0,1-1.43,1.91c-2.22-1.93-2.19-4.65-3.24-6.83-6.43-13.38-16.77-22.24-31.55-23.58-13.39-1.22-27-.33-40.47-.45-3.89,0-5.48,1.79-5.5,5.57s-.31,7.63-.48,11.45c-6.65.63-5.75,4.73-4.65,9.41,1.43,6-.71,8.08-6.59,6.66-3.53-.86-7.61-1.87-10.41-.06-4.15,2.69-7.09,4.63-11.21,0-1.17-1.32-6.9,0-6.27.76,5.38,6.32-2.46,4.08-3.51,6l-7.65,2-3.17-1.39c-2.76.45-5.55.79-8.28,1.38-19.72,4.26-37.86,11.81-52.94,25.67a76.16,76.16,0,0,0-18.24,18.68c-8.52,10.47-15.29,21.86-18.63,35.08-3.42,9.84-7.8,19.54-4.65,30.38-3.69,2.49-2.54,6.38-2.56,9.74-.1,21.29,0,42.57,0,63.86,0,2.76-.33,5.59,1,8.21,0,10.91.23,21.83,0,32.74-.1,5.26,1.92,7.45,7.15,7.1,3.53-.24,7.15.34,10.64-.12,5.82-.76,9.13,1.43,10.14,7.18,9.39,2.47,19,4.35,27.48,9.38,5.12,3.76,10.08,7.66,14.24,12.56,11.38,13.42,14.42,29.2,14.05,46.26-.32,15.21-1.06,30.45.45,45.65a1.22,1.22,0,0,0,0,1c-1.54,5.91-.51,11.92-.74,17.88-.13,3.37-.64,6.07-5,5.44-.16-2.28-.46-4.56-.47-6.84q-.06-33.24-.06-66.47c0-2.78.34-5.62-.87-8.28-.31-15.19-7-27.15-18.42-36.77-7.14-7-16-10.45-25.64-12.07-2-.35-4.91-1.78-5.63,1.63-.62,2.89,0,5.68,3.76,6.19,10.75,1.47,19.25,7.24,27.11,14.23a65,65,0,0,1,11.1,22.7q-.1,42.84-.22,85.66c-4.64,1.16-5.79-1.26-5.79-5.34,0-10.44-.15-20.88-.25-31.31,0-15.06.19-30.12.1-45.18,0-6.88-2.85-13-6.72-18.45-5.8-8.19-13.61-13.74-23.56-15.84-2.21-.46-4.81-.79-5.26,2.62-.34,2.59.39,4.54,3.31,5a12.37,12.37,0,0,1,2.18.72c14.77,5.42,22,15.48,22.24,31.28.19,12.25.19,24.5.27,36.75-.08,11.67-.14,23.34-.27,35,0,1.93.43,4.41-2.54,4.65-3.42.29-3.38-2.31-3.42-4.62-.13-7.61-.2-15.21-.3-22.82.06-17.08.31-34.17.11-51.25-.09-8.08-3.48-14.79-10.54-19.27-2.77-2.72-6-4.55-9.95-4.1-1.76.2-1.85,2.12-1.84,3.63,0,5.11,4.82,5,7.74,6.94a3.81,3.81,0,0,0,.69.27c4.69,4.86,6.23,10.75,6.2,17.38-.07,11.9.16,23.81.27,35.71q-.18,16.61-.36,33.23c-.05,4.8-1.57,6.9-6.2,3.47q.09-37.4.17-74.79c0-3.69-.92-7-3.83-9.6-.95-.82-1.93-1.87-3.31-1.24s-1.23,2.09-1.2,3.33c.18,6.1.49,12.19.59,18.29.29,16.78-1.13,33.57,0,50.35-1.11,5.46,1.05,11.25-1.63,16.56-16-3.13-31,6-32.38,20.17h23.48c-4.08,12.32-11.25,23.15-16.58,34.88-2.59,5.71-6.53,10.83-7.6,17.21,2,1.69,4.36,1.13,6.59,1.13q129.09,0,258.18-.08c2.64,0,5.61,1,8-1.35a17.73,17.73,0,0,0-3.51-7.58L389.5,801H414c-.32-5.72-3-9.14-6-12.23-8.18-8.52-18.25-10.47-29.46-7.92-3.49-2.29-7.42-1.29-11.14-1.29-28.46-.07-56.92,0-85.38.06l-41.24-.26c-.08-25.69.13-51.4-.32-77.09-.45-26.15-11.66-46.37-34.74-59.45-6-4.21-12.76-6.38-19.87-7.66,3.32-1.93,7-1.11,10.48-1.12,30.85-.09,61.7.14,92.55-.16a38.57,38.57,0,0,0,37.58-33.71c1.89,1.91,2.14,4.56,3,6.92,6.09,16.73,19.92,26.71,37.78,26.87,13.47.13,27-.08,40.43-.14,6.78-5,10.74-11.39,9-20.08-.73-3.7,1.62-5.1,4-5.19,6.45-.25,12.49-7.92,19.42-1.11.81.8,3,.28,4.48.28,5.34,0,10.71-.38,16,.11,8.35.76,15.06-1.09,18.76-9.36a8,8,0,0,1,3.83-3.59,7.61,7.61,0,0,0,4-6.9c9-1.52,14.78-9,23-12.51,15.44-6.63,26.79-19.63,35.93-34,1.56-2.46.41-5.91,3.18-8.26,4.31-3.67,6.59-8.79,8.41-14.07,3.18-6.39,5.58-13,6.06-20.22,1.94-4.92,2.51-10.09,2.74-15.31V445.1Zm-60.63,158c-4.82,6.74-7.37,14.43-9.26,22.36-.93,3.9.27,6,4.73,4.67a46.85,46.85,0,0,0,25.11-17.57c2.45-3.39,3.8-7.61,6.79-10.74,3.88-5.26,5.34-11.46,6.66-17.66,1.12-5.26.41-5.91-5-4.21A49.69,49.69,0,0,0,505.92,603.11ZM418.32,276.4c7.71.65,15.52.8,21.95-4.16a19.66,19.66,0,0,1,14-4.48c1.36.09,3.15.38,4.25-2.43-8.82-11.38-20.17-18.2-35.33-17.93-9.06-1.27-18.09-.71-27.63.11,2.27,7.83,6.37,14.29,9.5,21.15C408.85,276.9,409,276.84,418.32,276.4ZM269.71,727.31a45.24,45.24,0,0,0-13.64.13c4,8.27,11.76,14.57,21.91,18.06,8.36,2.87,17,2.78,25.71,2.75,16.69-.06,17-.19,9.41-14.85-2.75-5.33-2.6-13.58-10-15-6.13-1.18-12.75-.62-19,.16-5.88.73-11.26,3.29-14.47,8.89ZM381.52,253.68c-1.12-12-8.09-19.84-19.66-22.07-6.83-1.32-13.73-.5-20.6-.57-2.44,0-4.78.56-4.85,3.62-.08,3.77,2.83,3.63,5.4,3.67,5.35.08,10.7,0,16.05.14,5,.12,9.25,1.78,12.61,7a38,38,0,0,1-14.25,1.34c-5.12-.6-10.18.16-15.27.24-2.54,0-4.53.6-4.56,3.77-.06,6.88-.2,13.76-.32,20.64-.08,4,2.14,5.25,5.82,5.19,8.86-.14,17.93,1.2,25.92-4.31,1.49-1,2.9-.79,3.44,1.27-1.77,7.44-3.6,14.86-5.29,22.31-2.85,12.63-2.21,13.53,10.36,15.63,2,.34,4.16.79,5.43-1.45,1.77-3.09,4.22-2,6.68-1.27,4.14,1.23,8.27,2.54,12.46,3.63a6.22,6.22,0,0,0,7.64-3.54,6.67,6.67,0,0,0-1-7.85c-1.18-1.27-3.56-3-4.28-.66-2.07,6.71-6,3.08-9.65,2.49-3.24-.53-6.73-3.81-9.74.3s-6.09,1.17-8.88.25c-3.73-1.23-2.41-4.46-1.82-7.16.5-2.24,1.18-4.45,1.55-6.7C376.7,277.57,381.74,266.12,381.52,253.68ZM343.35,724.39q3.16-14.35,6.32-28.7c1.93-8.72,2-8.84-6.9-11.24-3-.81-7-3.87-9.14-.48-2.73,4.3-5.47,2.39-8.42,1.63-3.7-.94-7.31-2.22-11-3.18a6.54,6.54,0,0,0-7.86,3.14c-2.26,3.77-1,7.08,2.24,9.31,4,2.76,3.58-1.13,4.37-3.31s2.59-1.2,3.93-.86c2.71.68,5.33,1.74,8,2.42,2.2.55,4.46,1.16,6.05-1.49,2.87-4.78,6.32-1,9.3-.22,3.78,1,1.94,4.17,1.44,6.4-2.64,11.93-5.62,23.78-8.18,35.73-3.31,15.44,6.52,28.73,22.28,30.06,5.82.48,11.7.16,17.56.16,2.64,0,5.21-.06,5-3.91s-3-3.4-5.49-3.44c-5.35-.09-10.7.06-16-.14-5.19-.19-9.73-1.77-12.87-7,3.08-1.32,5.61-1,8.08-1,6.87,0,13.75,0,20.62-.08,2.09,0,4.84.82,5.54-2.52.08-7.11-.08-14.23.32-21.32.29-5.23-2.08-6.19-6.74-6.39C361.66,717.51,352.53,720.88,343.35,724.39ZM296.26,274.64c.06-13.56-3-22.28-10.36-29.71-19.36-19.62-39-39-58.37-58.56-2.63-2.65-4.32-3.34-7.34-.29-19.56,19.78-39.56,39.12-58.91,59.09a37.26,37.26,0,0,0,.45,52.51c14.33,14.47,37.13,14.93,52.58,1.11,3-2.71,5.33-7.63,9-7.79,4.23-.18,6.46,5.16,9.73,7.91,12.24,10.31,25.92,13.12,40.61,6.7S295.76,287.36,296.26,274.64ZM563.85,719.43c-.52-11.59-7.68-23.6-22.35-30.1-15-6.62-28.84-3.79-41.2,6.92-3.06,2.65-5.21,7.62-9.12,7.63s-6.12-4.91-9.11-7.61c-15.56-14-38-13.76-52.56.68s-15.34,37.44-.9,52.46c19.28,20,39.29,39.37,58.83,59.15,2.87,2.91,4.56,2.67,7.3-.08,19.43-19.53,39.1-38.84,58.51-58.39C560.36,742.92,564,734.06,563.85,719.43Zm-291-8.78c13.22,0,24.1-10.81,24-23.72a24.1,24.1,0,1,0-48.2.24C248.68,700,259.68,710.71,272.86,710.65ZM442.27,284c-13.69-.15-24,9.69-24.23,23.15-.24,13.72,10.27,24.6,23.78,24.62a24.08,24.08,0,0,0,23.95-23.81A23.33,23.33,0,0,0,442.27,284Zm48.85,411.78a96.72,96.72,0,0,1,38.66-41.59H452.32C469.2,664.08,482.13,677.35,491.12,695.75ZM223.58,299.18c-4.91,9.51-10,17.31-16.62,24s-14.48,12-24,17.3h79.94C245.66,331,232.94,317.58,223.58,299.18ZM154.24,363.7c-1,1.62-1.45,2.24-1.8,2.92C141,388.71,141,411,151.61,433.32c.62,1.31,1.1,3.15,3,2.82,1.65-.27,2.19-2,2.86-3.34A69.74,69.74,0,0,0,165,398.13C164.62,386.43,162,375,154.24,363.7Zm18.41,47.68c-.28,4.7,3.26,3.09,6,2.17,20.22-6.73,33.6-25.8,37.31-45.57.88-4.68-.52-5.57-5.89-3.87C190.14,370.42,175.89,391,172.65,411.38ZM558.39,556.76c-15.07,19.64-12.77,59.11.18,72.45C572.22,610.72,572.29,577.14,558.39,556.76ZM335.74,307.32c0,6.09.17,12.19-.06,18.28-.18,4.78,1.64,5.83,5.92,4.21,8.46-3.2,14.85-12.58,14.84-22.11,0-9.74-6.89-19.34-15.6-22.34-3.88-1.34-5.13-.05-5.1,3.68C335.79,295.13,335.76,301.22,335.74,307.32Zm42.91,379.89c0-6.12-.17-12.24.05-18.35.18-5.08-2-5.52-6.05-3.87-8.34,3.38-14.19,12.16-14.25,21.69A23.64,23.64,0,0,0,372.89,709c4.63,1.91,5.91.31,5.79-4.17C378.53,698.94,378.64,693.07,378.65,687.21ZM246,741.77c8.5,11.3,19.29,17.53,32,20.49,12.53,2.91,25.34,1.16,38,1.53,2.76.07,4.23-1.12,4.16-4.1-.08-3.49-2.54-3.29-4.82-3.31-7.89,0-15.78-.13-23.66,0A48.3,48.3,0,0,1,258,744.26C254.67,741.33,251.26,740,246,741.77ZM468.8,252.57a55.7,55.7,0,0,0-27.18-18.72c-13.9-4.46-28.2-2.53-42.37-2.76-2.67,0-4.4,1.27-4.31,4.15.11,3.47,2.84,3,5,3.07,7.11.08,14.23.23,21.33,0,13.57-.41,25.56,3.61,35.83,12.46C460.33,253.53,463.52,254.74,468.8,252.57Zm-163,408.94-.86,1.44c3.84,2.74,8,8.06,11.44,7.66,7.19-.83,14.05-.06,21.05-.09,3.66,0,8.05-4.32,11.86-9ZM409.52,333c-3-3.31-10.2-9.79-11.44-9.39-6.72,2.18-13.12,1.32-20,.46-3.65-.46-8.37,4.52-12.24,8.93ZM210.45,163.13c1.42-.16,2.48-.6,1.83-2.37-2.2-5.92-4.1-12-6.7-17.72-1.5-3.32-5.07-2.9-6.7.72-2.07,4.61-3.78,9.39-5.38,14.18-.5,1.47-2.36,3.42-.42,4.73s3.43-.19,4.79-2.06c2.85-3.91,6.21-3.82,9.16,0C208,161.82,208.68,163.12,210.45,163.13ZM457,836.44c-3-1.5-4.55-7.06-9.64-4.12.56,2.4,2.27,3.69,3.73,5,4.06,3.52,5.53,6.88.91,11.17-1.2,1.12-3.88,3.06-1.94,4.85,2.17,2,4-.33,5.53-2.13a19,19,0,0,1,1.64-1.58c1.91,1,1.09,5.09,4.44,4,2.53-.79,1.94-3.28,2-5.2.06-4.55,0-9.12-.11-13.67,0-1.28-.31-2.64-1.8-3-1.79-.41-2.85.46-3.21,2.28C458.32,835,458.44,836.07,457,836.44Zm47.23-4.7c-1.9.23-1.86,1.75-1.31,3.29,1.88,5.25,3.89,10.45,5.79,15.68.68,1.85,1.77,3.06,3.85,3s3.09-1.36,3.76-3.17c1.82-5,3.74-10,5.55-15,.5-1.37,1.25-3.07-.83-3.78-1.68-.58-2.55.59-3.65,1.86-4,4.58-5.75,4.54-9.88,0C506.6,832.68,506,831.64,504.2,831.74ZM265.46,141.56c-4.71-2.22-5.48,3-8.36,3.92-1.78-1-.1-4.36-3.12-4.39-1.51,0-2.47.71-2.48,2.21-.06,5.86,0,11.71,0,17.57,0,1.06.41,2,1.65,2.14s2.47-.06,2.89-1.65c.3-1.09-.36-2.55,1.5-3.41,3.08,1.63,4.68,7.23,10,4.6-1.51-4-6-5.82-7.35-9.53C258.35,148.16,265,146.46,265.46,141.56Zm218,689.78a11.26,11.26,0,0,0-2.38.15c-2.68.72-6.64,1.47-5.89,4.64,1,4.13,4,.6,6.1.15,4.36-.91,7.57,1.62,7.76,6.06.22,5-3.42,7.8-8.5,6.31-1.84-.53-3.88-2.6-5.18.16s1.39,3.38,3.13,4.19c4.43,2.08,8.58,1.2,12-2,3.74-3.45,4.55-7.92,2.79-12.63C491.61,833.89,488.15,831.6,483.44,831.34Zm-250.71-668a9,9,0,0,0,2.49-.4c2.06-.83,5.23-1.55,4.64-4.13-.77-3.41-3.38-1.51-5.45-.68-2.89,1.16-5.55.69-7.43-2a6.34,6.34,0,0,1-.18-7.82c2-2.88,4.68-3.91,7.89-2.09,1.93,1.1,4.09,2,5.09-.44s-1.69-3.28-3.41-4.07a10.36,10.36,0,0,0-12,2c-3.76,3.44-4.62,7.91-2.81,12.56S227,163.45,232.73,163.35ZM532.86,840.29h-.09c0,3.31,0,6.62,0,9.93,0,1.58.29,3.27,2.34,3.22s2.4-1.55,2.41-3.21c0-5.1,0-10.19.08-15.29,0-2.43-.65-5.34,2.8-6.28,1.69-.46,2.86-1.35,2.06-3.22s-2.5-1.64-4-1.33c-3.33.7-5.5,2.68-5.63,6.25C532.76,833.67,532.86,837,532.86,840.29ZM182.32,154.47h.09c0-3.05,0-6.09,0-9.14,0-1.78.06-3.93-2.33-4.06-2.56-.14-2.44,2.09-2.47,3.83-.07,4.82,0,9.64-.09,14.46,0,2.49.38,5.37-2.75,6.41-1.92.64-3.65,1.31-2.37,3.55,1,1.79,3.09,1.41,4.83.9,3.35-1,4.9-3.5,5.07-6.82C182.45,160.57,182.32,157.51,182.32,154.47ZM376.41,342.94c8.25,9.28,16.77,9,22.23-.32C391.32,342.48,384.37,342.09,376.41,342.94ZM314.84,652c8.32.29,15.42,1,22.92-.52C330.47,642.82,323.43,642.81,314.84,652Z"/>
    <path class="cls-4" d="M296.26,274.64c-.5,12.72-7.89,24.56-22.58,31s-28.37,3.61-40.61-6.7c-3.27-2.75-5.5-8.09-9.73-7.91-3.7.16-6,5.08-9,7.79-15.45,13.82-38.25,13.36-52.58-1.11a37.26,37.26,0,0,1-.45-52.51c19.35-20,39.35-39.31,58.91-59.09,3-3.05,4.71-2.36,7.34.29,19.4,19.58,39,38.94,58.37,58.56C293.22,252.36,296.32,261.08,296.26,274.64Z"/>
    <path class="cls-4" d="M563.85,719.43c.12,14.63-3.49,23.49-10.6,30.66-19.41,19.55-39.08,38.86-58.51,58.39-2.74,2.75-4.43,3-7.3.08-19.54-19.78-39.55-39.11-58.83-59.15-14.44-15-13.62-38.07.9-52.46s37-14.68,52.56-.68c3,2.7,5.2,7.61,9.11,7.61s6.06-5,9.12-7.63c12.36-10.71,26.24-13.54,41.2-6.92C556.17,695.83,563.33,707.84,563.85,719.43Z"/>
    <path class="cls-5" d="M141.51,852.88c1.07-6.38,5-11.5,7.6-17.21,5.33-11.73,12.5-22.56,16.58-34.88l30.63-.24,56.59.11,59.75.23c.71,7.13,2.17,8.32,7.46,6.1,2.76-1.15,3.06-3.6,3.25-6.11h33.75a9.42,9.42,0,0,0,.84,1.28c5.29,5.63,13.69,7.26,18,14.46,1.35,2.28,6,0,8.2,2.59-.33,1.44-1.44,1.5-2.38,1.7-10.39,2.18-10.39,2.17-10.52,13.58,0,2.58-3.61,4.17-6.48,3.36-3.65-1-7.44.25-11.23,0-2.15-.14-3.84,2.79-4.67,5.31,6.82,1.55,13-3.15,19.61-1.41a2.67,2.67,0,0,0,2.06-.81c3.73-3.62,7.07-.91,10.4.64,1.77.83,2.9,3.07,5.24,2.67,5.67-1,7.59,2.83,9.17,7.1-5.95-3.14-11.57,4.09-17.52.63-.62-3,2.53-5.43,1.23-9-8.15,3.36-17.89.34-24.16,8.29-.67.84-1.84.09-2.7-.55-4.86-3.64-10.2-4.43-16.29-4.28-3.3.07-5,.51-5.25,3.35-.18,2.4-.82,3.16-3.07,3-2.05-.17-3.26-1-3.59-3.18a27.71,27.71,0,0,1-.45-7.52c.36-2.93-1.91-4.85-3.76-7-1.64,2.26,1.17,3.62.23,5.35-2,1.52-2.85-3-4.33-1-1.09,1.44-.37,3.47,1.75,4.29.23.09.46.21.7.29,5.57,1.84-2.44,5,.64,7.51.53.44-2.37,1.4-3.7,1.23-7.69-1-15.34-2.08-23.08-.44-1.38.29-2.34-.74-2.86-2-1.42-3.53-2.36-2.87-4.48-.2-.71.9-5.47,2.47-6.51-1.51-1.13-4.33-2.66-2.4-4.63-.86-1.68,1.3-2.41,5.29-5,3.73-6.14-3.74-11.55-1.92-17.3.58-2.61,1.12-5.32.18-7.64-.75,0-3.48,4.2-1.89,4.5-4.83-1.39-.24-2.62-.51-3.87-.64-2.5-.27-3.06-5.55-5.91-3.14-2.3,2,.38,5.12.8,7.76.06.41-.31.9-.46,1.31-2.7,1.89-3.43-3.33-4.76-1.86-2.83,3.14-3.82,1.9-5.43-.9-.76-1.3-2.23-1.86-3.4.38-2,3.83-4.44,4.2-7.93,1.51-.75-.57-1-3.33-2.28-1.16-3.06,5.11-6.56,1.84-10,1-1.32-.31-3.14-2.29-3.88-.33-1.53,4.08-4.72,2.39-7.06,2.34C176.46,852.39,159,852.33,141.51,852.88ZM309,823.55c8.5,4,8.5,4,10.66-5.24-2.89-.85-3.9,5.72-7.58,1.88a8.29,8.29,0,0,1-2.09-9.08c.58-1.76.86-3.46-.53-5-5.12,1.21-7.27,7.43-11.74,8.24-8,1.45-11.11,7.41-15.66,13.1,4.8-2.51,7,.8,9,3.48s.47,4.66-1.95,6.27c-1.22.81-1.63,2.17-.18,3.1s2.88,1.55,4.77,0c3.5-2.94,3.11-6.32,1.7-10.29,3.69,3.82,8.05,8,12.41,6.16C312.72,834.15,310.9,828.38,309,823.55Z"/>
    <path class="cls-3" d="M487.19,587.93a7.61,7.61,0,0,1-4,6.9,8,8,0,0,0-3.83,3.59c-3.7,8.27-10.41,10.12-18.76,9.36-5.3-.49-10.67-.08-16-.11-1.53,0-3.67.52-4.48-.28-6.93-6.81-13,.86-19.42,1.11-2.34.09-4.69,1.49-4,5.19,1.73,8.69-2.23,15.08-9,20.08-.13-6,.85-12.08-2.28-17.74-1-1.84-.21-3.81.65-5.75a23.09,23.09,0,0,0,.22-18.09c-4.14-4.07-5.55-10.92-12.42-12.22.14-7-5.92-10.28-9.21-15.22-.42-1.56-1.7-2.3-2.94-3.08a62.42,62.42,0,0,0-10.65-14,12,12,0,0,0-3.24-4.44l-9.41-12.06c-.92-1.1-1.85-2.2-2.77-3.31l-9.28-12.17a4.79,4.79,0,0,0-3.21-3c-2.36-5.49-6.62-9.59-10.33-14.09q-1.66-2.16-3.31-4.33l-9.4-12.12-2.9-3.19a80.62,80.62,0,0,0-10.66-13.81l-2.68-3.35c-3.3-4.9-6.49-9.87-11.08-13.71l-1.24-1.36c-2.1-5.34-6.51-9-9.65-13.64.91-4.8,4.69-7.71,7.41-11.33,4.94-6.57,10.87-12.42,16-20.76H278.91l-15.23-.45c1.05-1.9,8.89.34,3.51-6-.63-.74,5.1-2.08,6.27-.76,4.12,4.64,7.06,2.7,11.21,0,2.8-1.81,6.88-.8,10.41.06,5.88,1.42,8-.62,6.59-6.66-1.1-4.68-2-8.78,4.65-9.41,1.26,7.61-1.34,15.57,2,23,2.89,5.07,6.82,9.36,10.37,13.93l10.81,13.64c.46,1.6,1.76,2.35,3.09,3.07,2.65,5.3,6.6,9.62,10.52,14l3.23,4.41,9.39,12.11,2.85,3.23a80.42,80.42,0,0,0,10.79,13.72,7.36,7.36,0,0,0,2.62,3.52c3.32,4.79,6.46,9.73,11.06,13.46l1.63,2.94q4.68,6.1,9.38,12.2a16.5,16.5,0,0,0,4.11,5l9.44,12a6.61,6.61,0,0,0,2.76,3.34A70.4,70.4,0,0,0,421.33,545c.45.46.91.92,1.36,1.39,2.66,5.79,7.32,10.14,11,15.2-4.77,8.78-12.14,15.56-18.05,23.46-1.9,2.53-4.86,4.48-5,8.66h24.57c16.6.91,33.14,1.28,48.87-5.56Z"/>
    <path class="cls-6" d="M308.35,400.8c-3.37-7.42-.77-15.38-2-23,.17-3.82.46-7.63.48-11.45s1.61-5.61,5.5-5.57c13.5.12,27.08-.77,40.47.45,14.78,1.34,25.12,10.2,31.55,23.58,1.05,2.18,1,4.9,3.24,6.83a10.34,10.34,0,0,0,1.43-1.91c8.34-20.75,20.35-28.95,42.58-29q44.7,0,89.39,0c3,0,6.14.64,8.92-1.22,4.32,0,8.23-.48,7.86-6.32,1.16,6.8,5.48,8.31,11.75,7.68,4.7-.47,9.51.06,14.27.15,1.09,4.3.48,7.73-2.41,11.71-2.15,2.95,3.25,7.53.83,11.84-.6,1.07-.71,2.75-1.57,3.3-4.91,3.1-4.68,7.87-4.53,12.68l-13.62.4-4.85-.09-21.23,0c-1.59-.23-3.18-.89-4.76,0l-21.27,0-5,.09-22.32.08-3.73-.09c-8.1.34-16.31-1.64-24.28,1.27l-3-1.41c-5.09,0-10.18.1-15.26-.06-5.56-.16-9.32,1.95-10.63,7.62-7.06-6.68-15.27-8.92-24.71-6.39l-2.92.34c-6.87-3.11-14.05-1-21.08-1.29l-3.77-.07c-3.27-.06-6.53-.22-9.8-.15-5.43.11-11.15-1.14-15.82,3-1.11-3-3.64-3-6.2-3Zm187.7-12.42c1-1.45,1.35-2.58,2.13-3.07,5.72-3.65,3.31-6.88-.16-10.47-2.2-2.28-3.25-2.1-5.25.39C488.22,380.91,492.57,384.16,496.05,388.38Zm49.08-8.14c7.94,7.55,7.94,7.55,11,4.28,3.85-4.16,3.85-4.16-4-10.87A16.15,16.15,0,0,1,545.13,380.24Zm-77.44,7.84a17.62,17.62,0,0,1,7-6.93c-.64-2.53-2.9-2.41-4.13-3.62s-.45-3.78-3.43-3.91c-.65,3.14-5.39,3.43-5.52,6.64C461.48,383.7,466.37,384.4,467.69,388.08Zm62.69-7.16c-.17-1.53-5.08-6.26-5.84-6.21s-6.3,6.8-5.8,7.24c2,1.75,3.11,5.44,6.11,4.92S528.07,382.2,530.38,380.92ZM411.45,385c2.41-.48,4.65-1.83,4.67-4.68s-2.1-5.73-4.69-5.79-3.37,3.38-3.95,5.74C406.81,383.07,408.64,384.37,411.45,385Zm-49.05,2.39c2.26-4.29,6.07-4.25,9.05-7.45-4.2-.39-5.23-6.43-9.17-4.14S360.64,382.08,362.4,387.42Zm76.25-13c.59,4.4-1.37,8.24.68,12.83l8.92-7.64C443.87,379,442.5,375.71,438.65,374.46Z"/>
    <path class="cls-7" d="M278.91,401h26.37c-5.09,8.34-11,14.19-16,20.76-2.72,3.62-6.5,6.53-7.41,11.33-3.13.56-4.43,3.32-6.15,5.41q-24.52,29.78-48.87,59.67-38.82,47.66-77.57,95.36l-.77.63c-1.32-2.62-1-5.45-1-8.21,0-21.29-.1-42.57,0-63.86,0-3.36-1.13-7.25,2.56-9.74l3.33,4.91c-6.65,5.78-5.49,12.76-3,19.93h1.54c3.79,4.52,7.56,9,1.74,14.73-.08.08.43.77.66,1.17,8.62-5.22,12.58-14.46,18.56-21.92,2.57-3.19,6.14-5.46,8.1-9,1.83-3.32,4.39-7.11,6.13-7.92,4.57-2.51,4.45-8.55,8.44-11.4,5.24-3.73,7.78-9.76,12.35-14.09,1-1,5.69-6.66-2.28-3.9-1.55.54-1.45-1.62-1.66-2.79.74-.17,1.47-.38,2.21-.5,3.43-.57,7.7-.12,6.64-5.88-.09-.46.26-2.65,1.56-1.61,7.2,5.77,7.8-2.92,10.1-5.36s.87-7.12-1-10.58c-2.85,1.82-4.59.61-5.77-2.13,1.32-2.29,3.52-3.45,5.64-4.87,4-2.7,6.23-6.5,5.33-12.23-4.34,2.2-4.28,8.27-9.42,8.69-.33-7.52-.22-7.27-6.89-4.44-3.17,1.34-4,4.76-8.15,5.69l12,8.69c.83,7.63-8.65,14.16-15.88,11a2,2,0,0,1-1.19-2.43c1-7.8-3.63-5.11-7.42-3.95h0c-.85-2.88,1-4.18,3.1-5.34,4.88-2.67,6-7.41,6.81-12.6-2.73,3.17-5.92,4.68-9.92,4.14h0a18.84,18.84,0,0,1,.28-3c1-4.09-3.78-5.4-4.15-8.25-.41-3.11,5.89-4.3,3.78-8.83,15.08-13.86,33.22-21.41,52.94-25.67,2.73-.59,5.52-.93,8.28-1.38-6.87,4.6-9.15,12.64-13.76,18.92-1.14,1.56-3.39,5.27-1,7.59,2.53,2.51,4.79.38,7.1-1.65,4.52-4,5.7-3.47,7.63,2.3.42,1.27-.59,3.16,1.47,3.78,5.2-5.05,9.47-10.21,3.78-17.58-.54-.69-.33-2-.47-3,4.71,1.54,5.87-1.86,7.06-7.79,1.43,6.86,3.53,6.55,6.86,4.38A22.15,22.15,0,0,0,278.91,401Z"/>
    <path class="cls-6" d="M326.49,600.12a38.57,38.57,0,0,1-37.58,33.71c-30.85.3-61.7.07-92.55.16-3.5,0-7.16-.81-10.48,1.12-4,.61-9.56-1.25-9.38,5.95-1-5.75-4.32-7.94-10.14-7.18-3.49.46-7.11-.12-10.64.12-5.23.35-7.25-1.84-7.15-7.1.21-10.91,0-21.83,0-32.74l.77-.63c7.56.1,15.18,1.57,22.61-1.08l3.27,1.35,22.32-.13,3.72.07c8-.44,16.22,1.7,24.1-1.45l3.19,1.58,21.27,0,4.73.06,21.32,0,4.85,0c4.78,0,9.58-.26,14.32.16,6.43.58,10.55-2.16,13.14-7.79,1.85,1,3.36,2.2,3.51,4.49-2.15,1.8-6.75,2.53-5.23,6.07.92,2.12,5,1.11,7.67.23.24-.08.45-.23.68-.33,1.28-.53,2.59-.74,2.94,1,.23,1.12-.75,1.74-1.72,2.17-2.82,1.23-6.43,1.05-8,4.72,4.82-1,9.79-1.77,13.64-5.13C323.92,597.37,325.13,598.2,326.49,600.12ZM282.32,614c-3.91-1.74-5.78-9.9-11.56-3.22-3.55,4.1-.8,7.13,2,8.94C278.58,623.47,278.48,615.29,282.32,614Zm20.89,7.14c7.25-7.11,7.32-7.18,3.64-10.71-1.63-1.56-3-4.56-6.09-1.53C296,613.56,296.08,614.26,303.21,621.11Zm-133.13-6.86c-4.2,0-3.82-9.78-10-4.39-1.6,1.39-5.73,2.5-2,6.89C164.2,623.85,166.09,615.64,170.08,614.25Zm41.93-.2c1.55,1.75,2.91,3.58,4.55,5.1,2.66,2.45,4-.59,5.67-1.7,1.34-.88,4-1.35,2.62-3.67a15.49,15.49,0,0,0-5.14-5.46c-2.52-1.46-3,1.94-4.44,3C214.12,612.19,212.28,612.36,212,614.05Zm41.36-.35c-2-2.5-3.79-5.48-7.07-4.93-2.61.44-5.65,2.7-5.21,5.52.39,2.51,3.54,4.55,6.24,4.44S252,616.33,253.37,613.7Zm-58.46.58c-1-2.15-1.25-5.15-4.35-4.33-2.35.62-5.08,2.17-4.87,5,.19,2.52,2.42,5.05,5,4.73C193,619.35,194.67,616.91,194.91,614.28Z"/>
    <path class="cls-6" d="M556.08,400.56c-.15-4.81-.38-9.58,4.53-12.68.86-.55,1-2.23,1.57-3.3,2.42-4.31-3-8.89-.83-11.84,2.89-4,3.5-7.41,2.41-11.71,3.11.72,2.8,3.29,2.8,5.51q.06,33.29,0,66.57c-4.69,4.53-9.74,8.78-12,15.21l0,0c-22.28,23-40.7,49.16-61.25,73.57-2.29,2.72-6,5.16-6.59,8.22-1.68,8.37-7.38,12.4-13.75,16.82-6,4.19-5.51,6.53.42,11.63a12.49,12.49,0,0,0-2.77,1.18c-2.9,2.16-4.82,7.15-9.74,3.17-.2-.17-.93.22-1.36.45-6.83,3.6-7.75,10.79-1.4,16.57-4.4,0-4.61,8-10,4.32-4-2.76-5.73-1.09-7.9,1.94-1.77,2.46-3.78,4.75-5,7.59H410.67c.11-4.18,3.07-6.13,5-8.66,5.91-7.9,13.28-14.68,18.05-23.46a13,13,0,0,0,4.5-4.07q61.24-75,122.44-150.08c1.38-1.69,3.39-3.22,3-5.91C561.2,400.26,558.55,401.09,556.08,400.56Z"/>
    <path class="cls-8" d="M324.76,193.76c-5.5-14.59-13.67-27.9-20.14-42-.42-.93-1-1.81-1.41-2.72-3.92-8-3.83-8.14,5.17-8.16q128.88-.23,257.78-.27c2.09,0,6.47-2.89,6.73,2.71-10.45-2.81-21.08,0-31.63-1-9.79-.94-19.7.73-29.54-.35-7.83.1-15.66.51-23.47.21-6.22-.24-11.95,1.79-17.91,2.71-2-2.27-4.51-2.8-7.56-2.68-6.46.24-13-.79-19.14,2.3-6.23-6.57-13.06,1.14-19.87-.56-2.44-.61-7.58.54-11.73,2.49,1.83,3.36,4.22,6.34,7.81,6.72,6.93.74,6.08,5.72,6.67,10.31-2.71-2.85-5-6.05-9.62-4.38-1.75.63-2.84-.65-3.46-2.21-.94-2.37-1.88-4.74-2.75-7.13-1.52-4.19-3.36-6.94-8.93-5.75-2.53.54-6.54,2.37-6.74,2.16-6.91-7.44-7.27,1.66-10.17,4-.1.09.33.85.52,1.29,1.95,1.31,4.34-1.2,6.11.3-.84,2.51.79,4.95-.73,7H387.7c-.25-.72-1.27-1.63-1.36-1.38-.79,2.38-9.15,1.49-3.06,6.82-2.9,5.34-.25,11.34-1.92,16.74-1.23,4-.31,5,3.72,4.63,4.31-.38,5.91,1.4,2.95,5.35a3.12,3.12,0,0,0-.44,2.86Z"/>
    <path class="cls-4" d="M324.76,193.76l62.83-.07,78.21,0h39.73l43.08.05c6.61.05,13.22.25,19.82.09,4.74-.12,5,1.59,3.2,5.43-5.47,11.38-17.66,17.09-32.1,14.77-8.3-2-14.09-7.37-18.65-14.31-1.14-1.74-2.31-4.42-3.33.07-5.08,7.89-12.73,12.25-21.22,15.44l0,0-7.7.16,0,0c-7.38-2.65-15-4.84-19.86-11.8-1.39-2-2-4.76-4.78-5.76-3.5,2.36-4.78,6.49-7.73,9.29-7.42,7-16.49,7.13-25.75,6.74-8.28-1.43-14.24-6-18.26-13.31-1.46-2.64-3.18-4.38-5.28-.58-4.92,8.9-13.06,12.89-22.46,15l-5.92-.05c-10.71-2.3-19.07-7.77-23.92-19.68-4.66,9.41-10.76,15.26-19.12,18.53-13.53,2.76-24.66-.78-32.51-12.61-1.22-1.84-3.23-4-2.08-6.2s4.09-1.09,6.23-1.16C313.06,193.77,318.91,193.81,324.76,193.76Z"/>
    <path class="cls-9" d="M473.38,558.53c-5.93-5.1-6.47-7.44-.42-11.63,6.37-4.42,12.07-8.45,13.75-16.82.61-3.06,4.3-5.5,6.59-8.22,3.79-1.83,7.93.56,12.06-.71-1.57-3.36-2.16-5.52,1.4-8.4,4.05-3.3,8.91-5.59,12.36-9.42,1.55-1.72,2-4,4.87-2.6,2.18,1,5.18,1.31,4.61,5-.42,2.7,1.08,4.12,3.28,5.06,1.36-1,1-2.4,1.36-3.54.76-2.25.23-6.56,4.76-2.11,2,1.95,6.11-1.81,6.35-5.57.16-2.61,5.4-7.63,7.78-7.2,2,.37,3.66,2.77,2.1,3.72-4.2,2.52-3.89,7-5.86,10.47l-1.41,1.6c-5.91.5-8.24,2.36-8.4,7.3a2.86,2.86,0,0,1-1.81,2.84c-5.37,2.93-4.17,6.28-.58,9.76-4.55,1.06-4.77,6.8-10.66,7.91,2.69,2.22,4.45,3.33,5.76,4.82,2.37,2.71,3.79,2.44,6.61,0,3.75-3.32,5.6-5.43.35-8.75-1.09-.69-1.4-2.6-2.07-4,4.34-1.17.24-5,2.27-7.14,5.38.44,4.51,6.41,8.49,9.66-1.9-6.58,4.46-7.69,6-11.83.62-2.46,2.65-3.48,4.64-4.55l.18,5c-1.82,5.28-4.1,10.4-8.41,14.07-2.77,2.35-1.62,5.8-3.18,8.26-9.14,14.34-20.49,27.34-35.93,34-8.26,3.55-14,11-23,12.51l-3.08.26c2.05-2.17,1.83-4.35,0-6.53l1.47-3.07c1.57-.73,3.14-1.44,4.7-2.18,8.22-3.92,8.22-3.92,3.09-11.62l5.94-7.17-6.87-6.54c-6.25,6.44-6.25,6.44-.75,13.71-1.51,1.13-1.08,4.05-3.71,4.15-3.24-3.68-4.33-9.84-11.49-9.48,3.19,3.64,2.74,7.62,3,11.42l-1.57,0c-3.89-1.34-4-1.43-2-3.89,1-1.17.52-2-.28-2.47C473.38,563.07,473.4,560.82,473.38,558.53Zm49-36.67a8.69,8.69,0,0,1,3.32-5.8c1.07-.79,1.79-1.62,1-3.16-2-4.21-6.47-4.92-10-1.62a26.78,26.78,0,0,1-3.69,2.52l6.31,8c1.25,7.31-5.61,7.67-9.25,10.79-6.09-6.34-7.15,1.88-11.66,3.32,4.79,3.09,7.85,8.49,13.17,2.74,6.25,3.64,9.29-2.33,12.27-5.2C527.28,530.22,525.47,525.45,522.37,521.86Zm-9.07,36.53c3.55,1.78,5.23,8.66,11,3,2.15-2.13,3.84-3.77.32-6.59C519.8,551,520,550.69,513.3,558.39Z"/>
    <path class="cls-10" d="M548.61,193.78l-43.08-.05c-2.54-6.43-2.54-6.43-.74-11.53,1.54,1.17-.12,3.52,2.79,5.33-1.41-6.64,3-7.86,7.88-9.51-7.69.5-9.52-9.11-16.62-8.05.27-3.94,10-3.54,3.54-10.92-3.51,8.1-8.49,12.08-16.7,7.28l-3.08-3.07c3.42.54,6.5.25,9-2.65,3.1-3.59-.08-6.75-.68-10.48,4.92,6.92,11.3,6.64,18.13,5.09,2.46-.55,3.51-.72.83-2.82-1.29-1,.38-1.68,1.18-1.85,2.22-.48,4.49-.74,6.74-1.08l-2.68,2.37c2.66,1.12,6.81-1.5,7.44,1.92,1.1,6,6.86,5.58,10.26,8.8-2.53-3.7,1.27-6.72.67-10.63-2.37.56-4.18,2.38-6.56,1.59-3.4-1.13.23-4.26-1.92-5.88l-7.21,1.83c-2.49-3.27-5.87-1.25-9.38-.81,1.54-2.65,3.41-4.23,3.29-6.72,9.84,1.08,19.75-.59,29.54.35,10.55,1,21.18-1.8,31.63,1q-10.54,21.4-21.1,42.82C550.56,188.6,549.05,191,548.61,193.78Z"/>
    <path class="cls-6" d="M326.49,600.12c-1.36-1.92-2.57-2.75-4.85-.75-3.85,3.36-8.82,4.1-13.64,5.13,1.58-3.67,5.19-3.49,8-4.72,1-.43,1.95-1,1.72-2.17-.35-1.73-1.66-1.52-2.94-1-.23.1-.44.25-.68.33-2.67.88-6.75,1.89-7.67-.23-1.52-3.54,3.08-4.27,5.23-6.07,2.94.07,5.37,3.12,8.6,1.49,8.37,3,10.53,2.6,13.73-2.47.79-3.62-1.49-7.71,1.66-11l0,13.68c6.42,2.87,13.13,1.08,19.72,1.28H359c8.54.06,17.11,1.16,25.55-1,7.3,1.87,14.57,2.46,21.78-.42a23.09,23.09,0,0,1-.22,18.09c-.86,1.94-1.67,3.91-.65,5.75,3.13,5.66,2.15,11.75,2.28,17.74-13.48.06-27,.27-40.43.14-17.86-.16-31.69-10.14-37.78-26.87C328.63,604.68,328.38,602,326.49,600.12Zm46.12,14.47c3.6,2.32,4.81,9.88,11.05,3,4.59-5,0-6.33-2-8C375.37,604.38,376.32,613.82,372.61,614.59Zm-21,5.41c1.83-2,5.36-3.25,5.1-6S353.9,608,351,608.12a5.67,5.67,0,0,0-5.09,6.32C346.31,617.1,348.58,619.12,351.64,620Z"/>
    <path class="cls-4" d="M312.66,800.89l-59.75-.23-3-4.31c1-.8,2.23-1.42,2.86-2.43,6.82-11,17.07-14.21,29.25-13.22,11.42.48,17.52,8.59,23.45,17.61,6.46-14,17-18.61,30.88-17.5,5.25.42,9.65,3,14.38,4.73,3.55,3.78,6.2,8.27,9.7,13.82,3.41-9.48,9.62-14.41,16.87-18.29a2.6,2.6,0,0,0,1.23-.27c11.21-2.55,21.28-.6,29.46,7.92,3,3.09,5.66,6.51,6,12.23H389.5l-32.38-.07H312.66Z"/>
    <path class="cls-11" d="M548.37,506.52c2-3.44,1.66-7.95,5.86-10.47,1.56-.95-.07-3.35-2.1-3.72-2.38-.43-7.62,4.59-7.78,7.2-.24,3.76-4.36,7.52-6.35,5.57-4.53-4.45-4-.14-4.76,2.11-.39,1.14,0,2.54-1.36,3.54-2.2-.94-3.7-2.36-3.28-5.06.57-3.65-2.43-3.92-4.61-5-2.9-1.39-3.32.88-4.87,2.6-3.45,3.83-8.31,6.12-12.36,9.42-3.56,2.88-3,5-1.4,8.4-4.13,1.27-8.27-1.12-12.06.71,20.55-24.41,39-50.6,61.25-73.57,3.67,2.73,5.84,8.32,12,6.27v29a18,18,0,0,1-2.29,1.91c-8.87,5.23-9,6.52-1.08,13,.19.15.42.26.63.4-.48,7.2-2.88,13.83-6.06,20.22l-.18-5A24.63,24.63,0,0,1,548.37,506.52Zm.27-28.82c7.57-6.65,7.56-6.64,3.39-10.75-1.4-1.37-2.29-4.78-4.89-1.33-1.64,2.17-5.46,3.77-2.25,7.46C546.19,474.58,547.39,476.16,548.64,477.7ZM542.31,492c-4.23-2.4-7.4-6.86-11.61-1.74-2.27,2.77,0,4.57,2,6.16C538.17,500.68,539.18,494.9,542.31,492Z"/>
    <path class="cls-12" d="M272.86,710.65c-13.18.06-24.18-10.61-24.22-23.48a24.1,24.1,0,1,1,48.2-.24C297,699.84,286.08,710.6,272.86,710.65Z"/>
    <path class="cls-12" d="M442.27,284a23.33,23.33,0,0,1,23.5,24,24.08,24.08,0,0,1-23.95,23.81c-13.51,0-24-10.9-23.78-24.62C418.27,293.66,428.58,283.82,442.27,284Z"/>
    <path class="cls-13" d="M430.53,214c9.26.39,18.33.29,25.75-6.74,3-2.8,4.23-6.93,7.73-9.29,2.81,1,3.39,3.78,4.78,5.76,4.89,7,12.48,9.15,19.86,11.8-4.64-.75-6.3,1.21-6.27,5.89.17,25.24-.34,50.49.27,75.72.63,26.19,21.79,49.78,47.68,54.46,2.49.45,5.1.36,7.41,1.62.37,5.84-3.54,6.34-7.86,6.32-27.65-3.22-53.09-30-55-58.55-1.49-22.15-.4-44.35-.6-66.53,0-3.32.13-6.64.05-9.95-.23-9.41-.26-9.47-9.35-9.41-8.41.06-16.82.3-25.23.36-3.05,0-6.1-.25-9.15-.38C430.56,214.7,430.54,214.34,430.53,214Z"/>
    <path class="cls-14" d="M378.25,745.65c-.7,3.34-3.45,2.48-5.54,2.52-6.87.13-13.75.05-20.62.08-2.47,0-5-.33-8.08,1,3.14,5.26,7.68,6.84,12.87,7,5.34.2,10.69.05,16,.14,2.45,0,5.32-.53,5.49,3.44s-2.4,3.91-5,3.91c-5.86,0-11.74.32-17.56-.16-15.76-1.33-25.59-14.62-22.28-30.06,2.56-11.95,5.54-23.8,8.18-35.73.5-2.23,2.34-5.44-1.44-6.4-3-.75-6.43-4.56-9.3.22-1.59,2.65-3.85,2-6.05,1.49-2.7-.68-5.32-1.74-8-2.42-1.34-.34-3.19-1.19-3.93.86s-.33,6.07-4.37,3.31c-3.27-2.23-4.5-5.54-2.24-9.31a6.54,6.54,0,0,1,7.86-3.14c3.69,1,7.3,2.24,11,3.18,3,.76,5.69,2.67,8.42-1.63,2.16-3.39,6.14-.33,9.14.48,8.87,2.4,8.83,2.52,6.9,11.24q-3.18,14.34-6.32,28.7l1.47,2.56c1.83,4.75,5.47,6.75,10.67,6.64,4.71-.09,4.13-3.52,4.67-6.37,7,4.36,7.23,5.92,2,13.58-2.61-4.91-7.93-6.42-7.74-3.82.45,6.36-3.71,2.85-5.78,3.57-2.34.81-5.43-1.75-7.32,1,7.77,5.83,16.88,4.69,25.25,4.78C370.15,746.4,374.26,745.15,378.25,745.65Z"/>
    <path class="cls-4" d="M491.12,695.75c-9-18.4-21.92-31.67-38.8-41.59h77.46A96.72,96.72,0,0,0,491.12,695.75Z"/>
    <path class="cls-4" d="M223.58,299.18c9.36,18.4,22.08,31.86,39.31,41.33H183c9.53-5.26,17.36-10.53,24-17.3S218.67,308.69,223.58,299.18Z"/>
    <path class="cls-15" d="M371.25,273.62c-.54-2.06-1.95-2.3-3.44-1.27-8,5.51-17.06,4.17-25.92,4.31-3.68.06-5.9-1.17-5.82-5.19.12-6.88.26-13.76.32-20.64,0-3.17,2-3.73,4.56-3.77,5.09-.08,10.15-.84,15.27-.24a38,38,0,0,0,14.25-1.34c-3.36-5.23-7.58-6.89-12.61-7-5.35-.12-10.7-.06-16.05-.14-2.57,0-5.48.1-5.4-3.67.07-3.06,2.41-3.65,4.85-3.62,6.87.07,13.77-.75,20.6.57,11.57,2.23,18.54,10.1,19.66,22.07-1.22-.55-3.67,1.29-3.55-1.87.11-2.72-1.69-3.4-3.88-3.21-4.56.38-7.51,3.68-10.2,6.69s2.41,4.42,2.38,7.14a66.45,66.45,0,0,0-6.68-1.11c-1.84-.13-3.63.43-3.82,2.73s1.15,3.31,3.16,3.46a53,53,0,0,0,7.56.17c5.22-.33,2.59-2.72,1.13-4.74,3.38.4,5,2.93,6.26,5.59S375,273.4,371.25,273.62Z"/>
    <path class="cls-16" d="M269.6,727.44c3.21-5.6,8.59-8.16,14.47-8.89,6.29-.78,12.91-1.34,19-.16,7.39,1.43,7.24,9.68,10,15,7.58,14.66,7.28,14.79-9.41,14.85-8.68,0-17.35.12-25.71-2.75-10.15-3.49-17.88-9.79-21.91-18.06a45.24,45.24,0,0,1,13.64-.13c3.38,4.27,7.71,6.51,13.23,6.24,2-.09,3.43-.7,3.53-3s-1.08-3.27-3.17-3.36A69.71,69.71,0,0,0,269.6,727.44Z"/>
    <path class="cls-14" d="M357.12,800.88l32.38.07,21.24,44c-.5,1.43-1.11,2.94-2.6,3.41-3.23,1-7.24,0-9.42,3.84-.14.26-2.21-.57-3.39-.9-1.58-4.27-3.5-8.05-9.17-7.1-2.34.4-3.47-1.84-5.24-2.67-3.33-1.55-6.67-4.26-10.4-.64a2.67,2.67,0,0,1-2.06.81c-6.65-1.74-12.79,3-19.61,1.41.83-2.52,2.52-5.45,4.67-5.31,3.79.25,7.58-1,11.23,0,2.87.81,6.45-.78,6.48-3.36.13-11.41.13-11.4,10.52-13.58.94-.2,2.05-.26,2.38-1.7-2.23-2.6-6.85-.31-8.2-2.59-4.28-7.2-12.68-8.83-18-14.46A9.42,9.42,0,0,1,357.12,800.88Zm29,27.48c-.29-2.09-.85-4.66-3.47-3.66-3.42,1.31-7.7,2.46-9.05,6.14-1,2.81,2.13,4.34,5.35,6.94-1.28-7.22,4.52-6.72,7.16-9.41.43,1.81,4.07,3.69-.09,5.37-1.39.56-2.19,1.32-1.61,2.83s1.85,1.51,3.14,1.73c5,.86,6.77-2.61,8.12-6.33.69-1.92,2.6-3.84.16-6.12-3.93-3.67-5.66.81-8.29,1.95C387.11,828,386.63,828.18,386.16,828.36Z"/>
    <path class="cls-17" d="M488.6,215.47l7.7-.16c0,25,0,50,.08,75,.08,24.82,13.19,41.59,37.24,47.46,3.49.85,6.06,1.83,5.09,5.83-1.05,4.3-4.6,2.34-7,2-23.3-3.4-42.7-25.49-43-49.75C488.29,269.08,488.6,242.28,488.6,215.47Z"/>
    <path class="cls-18" d="M496.33,215.27c8.49-3.19,16.14-7.55,21.22-15.44,1.1,1.95,2.23,3.89,3.29,5.87,1.25,2.34.32,3.9-2,4.65-3.71,1.22-3.73,1.16-2.53,4.94l0,.05c-4.35-.71-5.95,1.26-5.93,5.53.1,24.23-.29,48.48.25,72.71.32,14.43,8.12,24.3,21.76,29.34a35.11,35.11,0,0,1,5,1.85c1.86,1,1.66,3,1.29,4.78a2.82,2.82,0,0,1-3.45,2.24,30,30,0,0,1-5.94-1.29c-16.65-5.7-26.64-19.87-26.8-38.75-.2-23.21-.08-46.43,0-69.65C502.5,217.73,502,214.29,496.33,215.27Z"/>
    <path class="cls-19" d="M395.33,851.35c1.18.33,3.25,1.16,3.39.9,2.18-3.87,6.19-2.83,9.42-3.84,1.49-.47,2.1-2,2.6-3.41a17.73,17.73,0,0,1,3.51,7.58c-2.36,2.3-5.33,1.35-8,1.35q-129.09.12-258.18.08c-2.23,0-4.62.56-6.59-1.13,17.47-.55,35-.49,52.43-.13,2.34,0,5.53,1.74,7.06-2.34.74-2,2.56,0,3.88.33,3.41.8,6.91,4.07,10-1,1.3-2.17,1.53.59,2.28,1.16,3.49,2.69,5.91,2.32,7.93-1.51,1.17-2.24,2.64-1.68,3.4-.38,1.61,2.8,2.6,4,5.43.9,1.33-1.47,2.06,3.75,4.76,1.86.15-.41.52-.9.46-1.31-.42-2.64-3.1-5.81-.8-7.76,2.85-2.41,3.41,2.87,5.91,3.14,1.25.13,2.48.4,3.87.64-.3,2.94-4.54,1.35-4.5,4.83,2.32.93,5,1.87,7.64.75,5.75-2.5,11.16-4.32,17.3-.58,2.56,1.56,3.29-2.43,5-3.73,2-1.54,3.5-3.47,4.63.86,1,4,5.8,2.41,6.51,1.51,2.12-2.67,3.06-3.33,4.48.2.52,1.29,1.48,2.32,2.86,2,7.74-1.64,15.39-.53,23.08.44,1.33.17,4.23-.79,3.7-1.23-3.08-2.52,4.93-5.67-.64-7.51-.24-.08-.47-.2-.7-.29-2.12-.82-2.84-2.85-1.75-4.29,1.48-2,2.36,2.52,4.33,1,.94-1.73-1.87-3.09-.23-5.35,1.85,2.14,4.12,4.06,3.76,7a27.71,27.71,0,0,0,.45,7.52c.33,2.21,1.54,3,3.59,3.18,2.25.18,2.89-.58,3.07-3,.22-2.84,1.95-3.28,5.25-3.35,6.09-.15,11.43.64,16.29,4.28.86.64,2,1.39,2.7.55,6.27-7.95,16-4.93,24.16-8.29,1.3,3.57-1.85,6-1.23,9C383.76,855.44,389.38,848.21,395.33,851.35Z"/>
    <path class="cls-7" d="M154.24,363.7C162,375,164.62,386.43,165,398.13a69.74,69.74,0,0,1-7.53,34.67c-.67,1.31-1.21,3.07-2.86,3.34-1.92.33-2.4-1.51-3-2.82C141,411,141,388.71,152.44,366.62,152.79,365.94,153.24,365.32,154.24,363.7Z"/>
    <path class="cls-6" d="M172.65,411.38c3.24-20.4,17.49-41,37.47-47.27,5.37-1.7,6.77-.81,5.89,3.87-3.71,19.77-17.09,38.84-37.31,45.57C175.91,414.47,172.37,416.08,172.65,411.38Z"/>
    <path class="cls-16" d="M558.39,556.76c13.9,20.38,13.83,54,.18,72.45C545.62,615.87,543.32,576.4,558.39,556.76Z"/>
    <path class="cls-20" d="M232.72,754.91c-1.51-15.2-.77-30.44-.45-45.65.37-17.06-2.67-32.84-14.05-46.26-4.16-4.9-9.12-8.8-14.24-12.56-.7-2.85-.85-5.58,1.77-7.67,23.08,13.08,34.29,33.3,34.74,59.45.45,25.69.24,51.4.32,77.09-2.26-1.89-2-4.37-1.89-7,.21-8.11.22-16.24.18-24.36,0-1.61.36-4.17-2.27-3.89s-4.14,2.11-3.32,4.9c.33,1.13,1.56,2,2,3.09C236.89,755.18,234.11,754.4,232.72,754.91Z"/>
    <path class="cls-18" d="M531.25,253.85c-1.7-10.38-.22-20.85-.89-31.26-.16-2.44,1.44-6.62-2.79-6.61-3.49,0-2.51,3.86-2.56,6.18q-.74,34.77-.12,69.54c.13,8,3.18,13.69,10.24,17.3a10.41,10.41,0,0,1,2.59,1.57c1.7,1.63,1.59,3.78.76,5.68-1,2.28-3,1.27-4.63.81-10.27-2.85-17.17-12.58-17.32-25.23-.21-18.61-.09-37.23-.12-55.84,0-6.88-.07-13.77-.11-20.65l0-.05c2.59,1.09,5,.12,7.41-.69,6.73-2.22,6.88-2,8.17,5.23C533.94,231.24,531.74,242.52,531.25,253.85Z"/>
    <path class="cls-21" d="M211.65,742.55c.1,10.43.26,20.87.25,31.31,0,4.08,1.15,6.5,5.79,5.34.07.26.14.51.23.76-9.86,2.65-16.72,9-21.61,17.71-1-1.06-2.36-2-3-3.22-4.11-7.53-10.55-11.79-18.68-13.83,2.68-5.31.52-11.1,1.63-16.56,3.68-1,1.57-5.5,4-7.43,2.74,2.31,2.09,5.11,1.93,7.82-.26,4.52-.71,9.06,1.61,13.27,4.63,3.43,6.15,1.33,6.2-3.47q.17-16.62.36-33.23c1.67.19,5.73-.14,4.47,1.11-5.9,5.81.44,6.92,2.85,9.58.1,7.61.17,15.21.3,22.82,0,2.31,0,4.91,3.42,4.62,3-.24,2.52-2.72,2.54-4.65.13-11.66.19-23.33.27-35C207.14,739.42,209.06,741.82,211.65,742.55Z"/>
    <path class="cls-4" d="M174.59,780.62c8.13,2,14.57,6.3,18.68,13.83.68,1.25,2,2.16,3,3.22,0,1,0,1.92,0,2.88l-30.63.24H142.21C143.56,786.65,158.6,777.49,174.59,780.62Z"/>
    <path class="cls-22" d="M531.25,253.85c.49-11.33,2.69-22.61.66-34-1.29-7.21-1.44-7.45-8.17-5.23-2.44.81-4.82,1.78-7.41.69-1.2-3.78-1.18-3.72,2.53-4.94,2.3-.75,3.23-2.31,2-4.65-1.06-2-2.19-3.92-3.29-5.87,1-4.49,2.19-1.81,3.33-.07,4.56,6.94,10.35,12.26,18.65,14.31l-.66,78.77a8.68,8.68,0,0,1,0,1.52c-.53,2.72,1.79,7.32-2.14,7.69s-5.67-4.15-5.82-7.75C530.42,280.82,529.7,267.32,531.25,253.85Z"/>
    <path class="cls-8" d="M366.27,262.43c0-2.72-5-4.24-2.38-7.14s5.64-6.31,10.2-6.69c2.19-.19,4,.49,3.88,3.21-.12,3.16,2.33,1.32,3.55,1.87.22,12.44-4.82,23.89-6.79,35.92-.37,2.25-1.05,4.46-1.55,6.7-.59,2.7-1.91,5.93,1.82,7.16,2.79.92,6,3.72,8.88-.25s6.5-.83,9.74-.3c3.62.59,7.58,4.22,9.65-2.49.72-2.33,3.1-.61,4.28.66a6.67,6.67,0,0,1,1,7.85,6.22,6.22,0,0,1-7.64,3.54c-4.19-1.09-8.32-2.4-12.46-3.63-2.46-.73-4.91-1.82-6.68,1.27-1.27,2.24-3.39,1.79-5.43,1.45-12.57-2.1-13.21-3-10.36-15.63,1.69-7.45,3.52-14.87,5.29-22.31,3.73-.22,3.87-2.5,2.63-5.09s-2.88-5.19-6.26-5.59A3.7,3.7,0,0,1,366.27,262.43Z"/>
    <path class="cls-23" d="M153.45,517.26l-3.33-4.91c-3.15-10.84,1.23-20.54,4.65-30.38,4.73.83,6.53,6.64,12.2,6.57a7.82,7.82,0,0,1,3.32-5c3.35,3.59,1.74,11.8,10.13,10.85.71-.08,1.65,1.71,2.44,2.67a19.85,19.85,0,0,1,4.28,11c-1.23-.2-3-1-3.58-.51-3.28,3.09-5.78,1.51-8.24-1.65-.64,7.14-.85,7.62-9.29,7.24C161.1,512.93,156.82,513.33,153.45,517.26Z"/>
    <path class="cls-24" d="M335.75,307.32c0-6.1,0-12.19,0-18.28,0-3.73,1.22-5,5.1-3.68,8.71,3,15.58,12.6,15.6,22.34,0,9.53-6.38,18.91-14.84,22.11-4.28,1.62-6.1.57-5.92-4.21C335.91,319.51,335.74,313.41,335.75,307.32Z"/>
    <path class="cls-25" d="M423.22,247.4c15.16-.27,26.51,6.55,35.33,17.93-1.1,2.81-2.89,2.52-4.25,2.43a19.66,19.66,0,0,0-14,4.48c-6.43,5-14.24,4.81-21.95,4.16-.42-2.55,3.24-7-3.35-6.63-2,.13-.61-1.43-.79-2.3C413,262.06,417.51,260.1,420,257c2-2.49,5.55-4.61,1.55-8.22Zm20.4,19.32c-3.4-4.58-7.31-5.67-11.76-5.52-1.94.06-3.51.74-3.61,3s1.13,3.29,3.19,3.4C435.18,267.82,439,268.36,443.62,266.72Z"/>
    <path class="cls-24" d="M378.65,687.21c0,5.86-.12,11.73,0,17.58.12,4.48-1.16,6.08-5.79,4.17a23.64,23.64,0,0,1-14.49-22.28c.06-9.53,5.91-18.31,14.25-21.69,4.05-1.65,6.23-1.21,6.05,3.87C378.48,675,378.65,681.09,378.65,687.21Z"/>
    <path class="cls-24" d="M225.63,697.63c1.21,2.66.87,5.5.87,8.28q0,33.24.06,66.47c0,2.28.31,4.56.47,6.84l-.46.58a19.58,19.58,0,0,0-8.65.16c-.09-.25-.16-.5-.23-.76q.1-42.83.22-85.66c4.22,2.9,2.05,9.07,6.49,12.84C224.88,703,225.25,700.3,225.63,697.63Z"/>
    <path class="cls-6" d="M170.29,483.55a7.82,7.82,0,0,0-3.32,5c-5.67.07-7.47-5.74-12.2-6.57,3.34-13.22,10.11-24.61,18.63-35.08,1.54,3.35,5.48.81,7.2,2.69,4.53,4.91,7.74,1.86,11.13-1.27h0c4.48,4.19,4.37,5.13-1.85,7.87-2.2,1-4.73,1.33-3.88,4.44.94,3.47,3.66,1.57,5.74,1.49h0c-.43,1.93-1.82,3.21-3.07,4.59-5.28-3.3-6.93,1.16-8.61,4.69-2.57-1.54-2.82-3.6-3.27-5.57-.26-1.15-1-1.82-2.19-1.41-.64.23-1.68,1.13-1.59,1.38,1.18,3.15-2.51,6.66-.28,9.06C177.19,479.64,173.11,481.24,170.29,483.55Z"/>
    <path class="cls-12" d="M211.65,742.55c-2.59-.73-4.51-3.13-7.44-3-.08-12.25-.08-24.5-.27-36.75-.24-15.8-7.47-25.86-22.24-31.28a12.37,12.37,0,0,0-2.18-.72c-2.92-.51-3.65-2.46-3.31-5,.45-3.41,3-3.08,5.26-2.62,9.95,2.1,17.76,7.65,23.56,15.84,3.87,5.46,6.69,11.57,6.72,18.45C211.84,712.43,211.7,727.49,211.65,742.55Z"/>
    <path class="cls-5" d="M378.25,745.65c-4-.5-8.1.75-11.66.71-8.37-.09-17.48,1-25.25-4.78,1.89-2.78,5-.22,7.32-1,2.07-.72,6.23,2.79,5.78-3.57-.19-2.6,5.13-1.09,7.74,3.82,5.21-7.66,5-9.22-2-13.58L344.82,727l-1.47-2.56c9.18-3.51,18.31-6.88,28.48-6.45,4.66.2,7,1.16,6.74,6.39C378.17,731.42,378.33,738.54,378.25,745.65Z"/>
    <path class="cls-26" d="M533.29,601.83c-3,3.13-4.34,7.35-6.79,10.74a46.85,46.85,0,0,1-25.11,17.57c-4.46,1.36-5.66-.77-4.73-4.67,1.89-7.93,4.44-15.62,9.26-22.36,1,.1,2.16-.08,3,.36,1.42.77-2.34,3.7,1.31,3.75,2.37,0,3.54-1.85,4.46-3.68.44-.88.31-2,.68-2.94.8-2,9-5.48,9-4.61C524.52,602.6,530.93,599.07,533.29,601.83Z"/>
    <path class="cls-27" d="M246,741.77c5.29-1.8,8.7-.44,12.06,2.49a48.3,48.3,0,0,0,33.65,12.13c7.88-.14,15.77,0,23.66,0,2.28,0,4.74-.18,4.82,3.31.07,3-1.4,4.17-4.16,4.1-12.69-.37-25.5,1.38-38-1.53C265.26,759.3,254.47,753.07,246,741.77Z"/>
    <path class="cls-28" d="M468.8,252.57c-5.28,2.17-8.47,1-11.66-1.79-10.27-8.85-22.26-12.87-35.83-12.46-7.1.22-14.22.07-21.33,0-2.2,0-4.93.4-5-3.07-.09-2.88,1.64-4.19,4.31-4.15,14.17.23,28.47-1.7,42.37,2.76A55.7,55.7,0,0,1,468.8,252.57Z"/>
    <path class="cls-29" d="M183.8,777.72c-2.32-4.21-1.87-8.75-1.61-13.27.16-2.71.81-5.51-1.93-7.82-2.47,1.93-.36,6.38-4,7.43-1.13-16.78.29-33.57,0-50.35-.1-6.1-.41-12.19-.59-18.29,0-1.24-.2-2.69,1.2-3.33s2.36.42,3.31,1.24c2.91,2.55,3.83,5.91,3.83,9.6Q183.9,740.33,183.8,777.72Z"/>
    <path class="cls-9" d="M197.68,751.71c-2.41-2.66-8.75-3.77-2.85-9.58,1.26-1.25-2.8-.92-4.47-1.11-.11-11.9-.34-23.81-.27-35.71,0-6.63-1.51-12.52-6.2-17.38-2-3.82-2.24-6.72,3.36-6.74,7.06,4.48,10.45,11.19,10.54,19.27C198,717.54,197.74,734.63,197.68,751.71Z"/>
    <path class="cls-30" d="M423.22,247.4l-1.63,1.36c4,3.61.47,5.73-1.55,8.22-2.53,3.12-7,5.08-5.86,10.49.18.87-1.25,2.43.79,2.3,6.59-.42,2.93,4.08,3.35,6.63-9.33.44-9.47.5-13.23-7.74-3.13-6.86-7.23-13.32-9.5-21.15C405.13,246.69,414.16,246.13,423.22,247.4Z"/>
    <path class="cls-14" d="M232.72,754.91c1.39-.51,4.17.27,2.83-2.84-.48-1.12-1.71-2-2-3.09-.82-2.79.81-4.64,3.32-4.9s2.26,2.28,2.27,3.89c0,8.12,0,16.25-.18,24.36-.07,2.61-.37,5.09,1.89,7l41.24.26c0,.37,0,.75,0,1.13-12.18-1-22.43,2.25-29.25,13.22-.63,1-1.89,1.63-2.86,2.43-4.67-6.17-10-11.62-16.89-15.34.73-4.19-1.26-9,3-12.38-3.95-3.33.37-7.79-1.57-11.36-.32-.59-1.15-.92-1.75-1.37A1.22,1.22,0,0,1,232.72,754.91Z"/>
    <path class="cls-16" d="M282.06,780.7c0-.38,0-.76,0-1.13,28.46,0,56.92-.13,85.38-.06,3.72,0,7.65-1,11.14,1.29a2.6,2.6,0,0,1-1.23.27c-5.75-2.66-11.19,4.7-17,.54-1.83,4.62-6.06,3.41-9.58,3.93-4.73-1.77-9.13-4.31-14.38-4.73-13.84-1.11-24.42,3.54-30.88,17.5C299.58,789.29,293.48,781.18,282.06,780.7Z"/>
    <path class="cls-16" d="M533.29,601.83c-2.36-2.76-8.77.77-8.92-5.84,0-.87-8.22,2.6-9,4.61-.37.92-.24,2.06-.68,2.94-.92,1.83-2.09,3.72-4.46,3.68-3.65-.05.11-3-1.31-3.75-.82-.44-2-.26-3-.36A49.69,49.69,0,0,1,535,580c5.39-1.7,6.1-1.05,5,4.21C538.63,590.37,537.17,596.57,533.29,601.83Z"/>
    <path class="cls-31" d="M257.57,411.55c.14,1-.07,2.28.47,3,5.69,7.37,1.42,12.53-3.78,17.58-2.06-.62-1-2.51-1.47-3.78-1.93-5.77-3.11-6.29-7.63-2.3-2.31,2-4.57,4.16-7.1,1.65-2.35-2.32-.1-6,1-7.59,4.61-6.28,6.89-14.32,13.76-18.92l3.17,1.39C256,405.65,256.14,408.71,257.57,411.55Z"/>
    <path class="cls-32" d="M305.75,661.51h43.49c-3.81,4.69-8.2,9-11.86,9-7,0-13.86-.74-21.05.09-3.47.4-7.6-4.92-11.44-7.66Z"/>
    <path class="cls-33" d="M409.52,333H365.85c3.87-4.41,8.59-9.39,12.24-8.93,6.87.86,13.27,1.72,20-.46C399.32,323.22,406.51,329.7,409.52,333Z"/>
    <path class="cls-33" d="M430.53,214c0,.36,0,.72.05,1.08l-46.05.06c9.4-2.14,17.54-6.13,22.46-15,2.1-3.8,3.82-2.06,5.28.58C416.29,208,422.25,212.55,430.53,214Z"/>
    <path class="cls-34" d="M335.57,213.92c8.36-3.27,14.46-9.12,19.12-18.53,4.85,11.91,13.21,17.38,23.92,19.68-12.9,0-25.8,0-38.7,0C338.46,215,337,214.3,335.57,213.92Z"/>
    <path class="cls-12" d="M225.63,697.63c-.38,2.67-.75,5.35-1.23,8.75-4.44-3.77-2.27-9.94-6.49-12.84a65,65,0,0,0-11.1-22.7c1.14-1.34,2.15-2.66.77-4.46s-1.11-3.62-.37-5.52C218.61,670.48,225.32,682.44,225.63,697.63Z"/>
    <path class="cls-35" d="M207.21,660.86c-.74,1.9-.94,3.79.37,5.52s.37,3.12-.77,4.46c-7.86-7-16.36-12.76-27.11-14.23-3.78-.51-4.38-3.3-3.76-6.19.72-3.41,3.58-2,5.63-1.63C191.23,650.41,200.07,653.85,207.21,660.86Z"/>
    <path class="cls-36" d="M210.45,163.13c-1.77,0-2.45-1.31-3.42-2.55-2.95-3.79-6.31-3.88-9.16,0-1.36,1.87-2.71,3.46-4.79,2.06s-.08-3.26.42-4.73c1.6-4.79,3.31-9.57,5.38-14.18,1.63-3.62,5.2-4,6.7-.72,2.6,5.74,4.5,11.8,6.7,17.72C212.93,162.53,211.87,163,210.45,163.13Z"/>
    <path class="cls-37" d="M457,836.44c1.47-.37,1.35-1.49,1.52-2.38.36-1.82,1.42-2.69,3.21-2.28,1.49.34,1.78,1.7,1.8,3,.1,4.55.17,9.12.11,13.67,0,1.92.56,4.41-2,5.2-3.35,1-2.53-3-4.44-4a19,19,0,0,0-1.64,1.58c-1.49,1.8-3.36,4.13-5.53,2.13-1.94-1.79.74-3.73,1.94-4.85,4.62-4.29,3.15-7.65-.91-11.17-1.46-1.27-3.17-2.56-3.73-5C452.42,829.38,454,834.94,457,836.44Z"/>
    <path class="cls-38" d="M504.2,831.74c1.8-.1,2.4.94,3.28,1.91,4.13,4.58,5.9,4.62,9.88,0,1.1-1.27,2-2.44,3.65-1.86,2.08.71,1.33,2.41.83,3.78-1.81,5-3.73,10-5.55,15-.67,1.81-1.67,3.14-3.76,3.17s-3.17-1.18-3.85-3c-1.9-5.23-3.91-10.43-5.79-15.68C502.34,833.49,502.3,832,504.2,831.74Z"/>
    <path class="cls-30" d="M191.73,448.31c-3.39,3.13-6.6,6.18-11.13,1.27-1.72-1.88-5.66.66-7.2-2.69a76.16,76.16,0,0,1,18.24-18.68c2.11,4.53-4.19,5.72-3.78,8.83.37,2.85,5.15,4.16,4.15,8.25A18.84,18.84,0,0,0,191.73,448.31Z"/>
    <path class="cls-22" d="M205.75,642.77c-2.62,2.09-2.47,4.82-1.77,7.67-8.51-5-18.09-6.91-27.48-9.38-.18-7.2,5.38-5.34,9.38-5.95C193,636.39,199.76,638.56,205.75,642.77Z"/>
    <path class="cls-38" d="M265.46,141.56c-.51,4.9-7.11,6.6-5.33,11.46,1.36,3.71,5.84,5.58,7.35,9.53-5.27,2.63-6.87-3-10-4.6-1.86.86-1.2,2.32-1.5,3.41-.42,1.59-1.55,1.81-2.89,1.65s-1.64-1.08-1.65-2.14c0-5.86-.05-11.71,0-17.57,0-1.5,1-2.22,2.48-2.21,3,0,1.34,3.41,3.12,4.39C260,144.55,260.75,139.34,265.46,141.56Z"/>
    <path class="cls-39" d="M483.44,831.34c4.71.26,8.17,2.55,9.86,7,1.76,4.71.95,9.18-2.79,12.63-3.45,3.18-7.6,4.06-12,2-1.74-.81-4.38-1.55-3.13-4.19s3.34-.69,5.18-.16c5.08,1.49,8.72-1.27,8.5-6.31-.19-4.44-3.4-7-7.76-6.06-2.14.45-5.11,4-6.1-.15-.75-3.17,3.21-3.92,5.89-4.64A11.26,11.26,0,0,1,483.44,831.34Z"/>
    <path class="cls-39" d="M232.73,163.35c-5.69.1-9.34-2.38-11.17-7.07s-.95-9.12,2.81-12.56a10.36,10.36,0,0,1,12-2c1.72.79,4.41,1.58,3.41,4.07s-3.16,1.54-5.09.44c-3.21-1.82-5.88-.79-7.89,2.09a6.34,6.34,0,0,0,.18,7.82c1.88,2.66,4.54,3.13,7.43,2,2.07-.83,4.68-2.73,5.45.68.59,2.58-2.58,3.3-4.64,4.13A9,9,0,0,1,232.73,163.35Z"/>
    <path class="cls-8" d="M257.57,411.55c-1.43-2.84-1.61-5.9-1.54-9l7.65-2,15.23.45a22.15,22.15,0,0,1-7.42,7.14c-3.33,2.17-5.43,2.48-6.86-4.38C263.44,409.69,262.28,413.09,257.57,411.55Z"/>
    <path class="cls-40" d="M532.86,840.29c0-3.31-.1-6.62,0-9.93.13-3.57,2.3-5.55,5.63-6.25,1.47-.31,3.22-.42,4,1.33s-.37,2.76-2.06,3.22c-3.45.94-2.75,3.85-2.8,6.28-.11,5.1-.06,10.19-.08,15.29,0,1.66-.5,3.17-2.41,3.21s-2.31-1.64-2.34-3.22c0-3.31,0-6.62,0-9.93Z"/>
    <path class="cls-41" d="M182.32,154.47c0,3,.13,6.1,0,9.13-.17,3.32-1.72,5.83-5.07,6.82-1.74.51-3.8.89-4.83-.9-1.28-2.24.45-2.91,2.37-3.55,3.13-1,2.71-3.92,2.75-6.41.09-4.82,0-9.64.09-14.46,0-1.74-.09-4,2.47-3.83,2.39.13,2.31,2.28,2.33,4.06,0,3,0,6.09,0,9.14Z"/>
    <path class="cls-42" d="M376.41,342.94c8-.85,14.91-.46,22.23-.32C393.18,352,384.66,352.22,376.41,342.94Z"/>
    <path class="cls-24" d="M314.84,652c8.59-9.17,15.63-9.16,22.92-.52C330.26,653,323.16,652.27,314.84,652Z"/>
    <path class="cls-34" d="M566.55,454.56c-6.16,2.05-8.33-3.54-12-6.27l0,0a8.88,8.88,0,0,0,6-3.87c2.54-3.62,4.25-1.7,6,.65Z"/>
    <path class="cls-15" d="M563.81,498.9c-.21-.14-.44-.25-.63-.4-7.91-6.48-7.79-7.77,1.08-13a18,18,0,0,0,2.29-1.91C566.32,488.81,565.75,494,563.81,498.9Z"/>
    <path class="cls-43" d="M187.25,681.19c-5.6,0-5.4,2.92-3.36,6.74a3.81,3.81,0,0,1-.69-.27c-2.92-1.94-7.69-1.83-7.74-6.94,0-1.51.08-3.43,1.84-3.63C181.25,676.64,184.48,678.47,187.25,681.19Z"/>
    <path class="cls-20" d="M232.75,755.9c.6.45,1.43.78,1.75,1.37,1.94,3.57-2.38,8,1.57,11.36-4.27,3.33-2.28,8.19-3,12.38a13.92,13.92,0,0,1-6.49-1.21l.46-.58c4.34.63,4.85-2.07,5-5.44C232.24,767.82,231.21,761.81,232.75,755.9Z"/>
    <path class="cls-35" d="M566.55,445.1c-1.78-2.35-3.49-4.27-6-.65a8.88,8.88,0,0,1-6,3.87c2.3-6.43,7.35-10.68,12-15.21Q566.55,439.11,566.55,445.1Z"/>
    <path class="cls-4" d="M226.57,779.8a13.92,13.92,0,0,0,6.49,1.21c6.89,3.72,12.22,9.17,16.89,15.34l3,4.31-56.59-.11c0-1,0-1.92,0-2.88,4.89-8.73,11.75-15.06,21.61-17.71A19.58,19.58,0,0,1,226.57,779.8Z"/>
    <path class="cls-16" d="M309,823.55c1.92,4.83,3.74,10.6-1.14,12.6-4.36,1.8-8.72-2.34-12.41-6.16,1.41,4,1.8,7.35-1.7,10.29-1.89,1.58-3.31,1-4.77,0s-1-2.29.18-3.1c2.42-1.61,4-3.59,1.95-6.27s-4.25-6-9-3.48c4.55-5.69,7.7-11.65,15.66-13.1,4.47-.81,6.62-7,11.74-8.24,1.39,1.53,1.11,3.23.53,5a8.29,8.29,0,0,0,2.09,9.08c3.68,3.84,4.69-2.73,7.58-1.88C317.48,827.5,317.48,827.5,309,823.55Z"/>
    <path class="cls-16" d="M312.66,800.89h10.71c-.19,2.51-.49,5-3.25,6.11C314.83,809.21,313.37,808,312.66,800.89Z"/>
    <path class="cls-4" d="M556.08,400.56c2.47.53,5.12-.3,7.53,1,.41,2.69-1.6,4.22-3,5.91q-61.17,75.07-122.44,150.08a13,13,0,0,1-4.5,4.07c-3.68-5.06-8.34-9.41-11-15.2,2.9-1.36,4.52-4,6.45-6.37q26.07-31.93,52.2-63.83Q512,438.64,542.46,401Z"/>
    <path class="cls-4" d="M171.93,592.45c-7.43,2.65-15.05,1.18-22.61,1.08q38.79-47.68,77.57-95.36,24.36-29.9,48.87-59.67c1.72-2.09,3-4.85,6.15-5.41,3.14,4.6,7.55,8.3,9.65,13.64-5.07,3.23-8.07,8.41-11.74,12.88q-33,40.13-65.7,80.51C200,557.51,186,575,171.93,592.45Z"/>
    <path class="cls-4" d="M197.52,593.67l-22.32.13c4.86-8.47,11.83-15.28,17.94-22.78,19.47-23.92,39.17-47.65,58.45-71.72,13.7-17.1,28.31-33.47,41.21-51.21,4.59,3.84,7.78,8.81,11.08,13.71-5.7,7.17-11.32,14.41-17.11,21.5-22.19,27.22-44.62,54.25-66.57,81.66C212.58,574.47,204,583.28,197.52,593.67Z"/>
    <path class="cls-4" d="M516.38,400.9l21.23,0a9.51,9.51,0,0,1-2.48,4.65q-27.78,34-55.52,68Q450.44,509.23,421.33,545a70.4,70.4,0,0,1-10.93-13.75c1.79-2.48,3.44-5.06,5.38-7.43Q466,462.36,516.38,400.9Z"/>
    <path class="cls-4" d="M225.34,592.29c-7.88,3.15-16.07,1-24.1,1.45.86-1.25,1.65-2.56,2.61-3.74,26.85-32.91,53.58-65.92,80.66-98.64,7.27-8.79,13.63-18.38,22.05-26.21A80.62,80.62,0,0,1,317.22,479q-39,47.58-78.05,95.2C234.37,580,228.48,585.13,225.34,592.29Z"/>
    <path class="cls-4" d="M490.35,400.88l21.27,0c-2.61,3.45-5.13,7-7.85,10.34-26.17,32.23-52.25,64.54-78.66,96.57-5.64,6.85-10.61,14.34-17.47,20.13l-9.44-12c1.14-6.23,6.23-9.71,9.87-14.18Q449.17,451.31,490.35,400.88Z"/>
    <path class="cls-4" d="M249.8,593.82l-21.27,0c.11-1.9,1.23-3.28,2.36-4.68q40.8-49.94,81.64-99.83c2.18-2.66,3.85-6.09,7.59-7.21l9.4,12.12c-.43,2.39-2.08,4-3.53,5.8Q287.88,546.93,249.8,593.82Z"/>
    <path class="cls-4" d="M463,401.05l22.32-.08c-.72,1-1.36,2.15-2.16,3.13q-40.2,49.38-80.48,98.72c-2.49,3.05-4,7.29-8.63,8.17q-4.69-6.11-9.38-12.2c1.59-2.3,3-4.73,4.79-6.89,16.41-20.16,33.05-40.12,49.23-60.45C446.81,421.3,456,412,463,401.05Z"/>
    <path class="cls-4" d="M275.85,593.83l-21.32,0a7.92,7.92,0,0,1,2-4Q289,550.3,321.44,510.79c3.53-4.28,6.27-9.37,11.39-12.19,3.71,4.5,8,8.6,10.33,14.09-9.15,8.83-16.81,18.91-24.39,29.06l-1.54,1.56c-4.59,1.84-8.65,4.32-10.83,9.05-4.19,3-4,8.27-6.18,12.33C291.39,573.81,283.92,584.07,275.85,593.83Z"/>
    <path class="cls-4" d="M435,402.23c8-2.91,16.18-.93,24.28-1.27-16.95,20.88-34,41.68-50.8,62.69-8.54,10.67-18.18,20.5-25.43,32.2-4.6-3.73-7.74-8.67-11.06-13.46.6-2.61,2.54-4.35,4-6.41,5.65-7.83,13.26-14.13,17.89-22.77l1.72-1.57c6.44-1.27,10.87-5.1,13.82-10.84,3.29-3.51,3.69-8.08,4.57-12.47C422,420.38,429.51,412.11,435,402.23Z"/>
    <path class="cls-14" d="M473.38,558.53c0,2.29,0,4.54,2.31,6,.8.51,1.24,1.3.28,2.47-2,2.46-1.88,2.55,2,3.89a6.47,6.47,0,0,1-2.39,4.57c-5.31,3.59-2.35,5.85.86,8.78,4.57,4.18,4.8-2.8,7.68-2.59,1.81,2.18,2,4.36,0,6.53-15.73,6.84-32.27,6.47-48.87,5.56,1.18-2.84,3.19-5.13,5-7.59,2.17-3,3.9-4.7,7.9-1.94,5.4,3.72,5.61-4.34,10-4.32-6.35-5.78-5.43-13,1.4-16.57.43-.23,1.16-.62,1.36-.45,4.92,4,6.84-1,9.74-3.17A12.49,12.49,0,0,1,473.38,558.53Z"/>
    <path class="cls-4" d="M355.35,593.66c-6.59-.2-13.3,1.59-19.72-1.28,5.19-1.59,9.64-4.14,12.18-9.23,5.18-4.42,5.37-10.75,6.4-16.76l16.86-18.69a62.42,62.42,0,0,1,10.65,14C372.39,571.89,363.72,582.65,355.35,593.66Z"/>
    <path class="cls-4" d="M357.42,401c7,.29,14.21-1.82,21.08,1.29-4.32,1.48-8.17,3.64-10.76,7.57-3.64,3.29-5.38,7.55-6.32,12.23-4.54,9-11.23,16.27-18.28,23.27-3.92-4.34-7.87-8.66-10.52-14A267.86,267.86,0,0,0,357.42,401Z"/>
    <path class="cls-24" d="M421.33,545q29.13-35.79,58.28-71.57,27.72-34,55.52-68a9.51,9.51,0,0,0,2.48-4.65l4.85.09q-30.56,37.64-61.12,75.27-26,32-52.2,63.83c-1.93,2.36-3.55,5-6.45,6.37C422.24,546,421.78,545.5,421.33,545Z"/>
    <path class="cls-44" d="M292.8,448.09c-12.9,17.74-27.51,34.11-41.21,51.21-19.28,24.07-39,47.8-58.45,71.72-6.11,7.5-13.08,14.31-17.94,22.78l-3.27-1.35C186,575,200,557.51,214.12,540.12q32.74-40.33,65.7-80.51c3.67-4.47,6.67-9.65,11.74-12.88Z"/>
    <path class="cls-4" d="M384.51,592.61c-8.44,2.2-17,1.1-25.55,1,5.17-6.43,10.05-13.13,15.61-19.21,3.12-3.4,5-8.26,10.09-9.69C388,569.69,394,573,393.87,580,391.51,584.75,386.74,587.74,384.51,592.61Z"/>
    <path class="cls-17" d="M306.56,465.15c-8.42,7.83-14.78,17.42-22.05,26.21-27.08,32.72-53.81,65.73-80.66,98.64-1,1.18-1.75,2.49-2.61,3.74l-3.72-.07c6.52-10.39,15.06-19.2,22.68-28.71,22-27.41,44.38-54.44,66.57-81.66,5.79-7.09,11.41-14.33,17.11-21.5Z"/>
    <path class="cls-45" d="M407.64,528c6.86-5.79,11.83-13.28,17.47-20.13,26.41-32,52.49-64.34,78.66-96.57,2.72-3.36,5.24-6.89,7.85-10.34,1.58-.9,3.17-.24,4.76,0q-50.31,61.47-100.6,123c-1.94,2.37-3.59,4.95-5.38,7.43A6.61,6.61,0,0,1,407.64,528Z"/>
    <path class="cls-4" d="M328,403.83c4.67-4.15,10.39-2.9,15.82-3,3.27-.07,6.53.09,9.8.15-5.5,6.84-10.89,13.78-16.56,20.47-2.19,2.58-3.52,6.3-7.56,6.93l-10.81-13.64C321.79,411.07,323.84,406.54,328,403.83Z"/>
    <path class="cls-10" d="M394.09,511c4.61-.88,6.14-5.12,8.63-8.17q40.33-49.29,80.48-98.72c.8-1,1.44-2.09,2.16-3.13l5-.09q-41.16,50.44-82.28,100.92c-3.64,4.47-8.73,7.95-9.87,14.18A16.5,16.5,0,0,1,394.09,511Z"/>
    <path class="cls-4" d="M346.37,515.72l9.28,12.17a173,173,0,0,1-14,17c-2-.53-3.84-2-6.12-1.55-1-1.78-2.84-1.47-4.37-2-1.58-1.73-4.55-.32-6.17-2.9l13.82-16.93C340.9,519.06,342.68,516.16,346.37,515.72Z"/>
    <path class="cls-35" d="M320.12,482.15c-3.74,1.12-5.41,4.55-7.59,7.21q-40.93,49.83-81.64,99.83c-1.13,1.4-2.25,2.78-2.36,4.68l-3.19-1.58c3.14-7.16,9-12.25,13.83-18.13q38.91-47.7,78.05-95.2Z"/>
    <path class="cls-46" d="M369.4,478.87a80.42,80.42,0,0,1-10.79-13.72c4.75-5.17,8-11.7,14.06-15.68,3,1,5.61,3,8.91,3.16a6.37,6.37,0,0,0,1.4.52l5.32,2.56Z"/>
    <path class="cls-22" d="M332.83,498.6c-5.12,2.82-7.86,7.91-11.39,12.19q-32.56,39.42-64.89,79.05a7.92,7.92,0,0,0-2,4l-4.73-.06q38.08-46.87,76.19-93.75c1.45-1.78,3.1-3.41,3.53-5.8Q331.17,496.45,332.83,498.6Z"/>
    <path class="cls-22" d="M383.08,495.85c7.25-11.7,16.89-21.53,25.43-32.2,16.8-21,33.85-41.81,50.8-62.69l3.73.09c-7,11-16.23,20.25-24.31,30.4-16.18,20.33-32.82,40.29-49.23,60.45-1.76,2.16-3.2,4.59-4.79,6.89C384.16,497.81,383.62,496.83,383.08,495.85Z"/>
    <path class="cls-4" d="M358.42,531.2l9.41,12.06c-2.09,7.07-8,11.4-12.28,16.86-.67.85-1.87.34-2.81,0-1.18-2.8-1.82-5.92-4.61-7.76-.36-2-2-3.19-3.18-4.66C348.57,541.46,352.76,535.73,358.42,531.2Z"/>
    <path class="cls-46" d="M355.76,461.92l-9.39-12.11A48.71,48.71,0,0,1,361.3,431.6a29.83,29.83,0,0,0,3.39,9.08l1.05,1.43,3.37,5.11C364.42,451.9,361.57,458.25,355.76,461.92Z"/>
    <path class="cls-47" d="M384.51,592.61c2.23-4.87,7-7.86,9.36-12.64,6.87,1.3,8.28,8.15,12.42,12.22C399.08,595.07,391.81,594.48,384.51,592.61Z"/>
    <path class="cls-48" d="M328,403.83c-4.19,2.71-6.24,7.24-9.31,10.9-3.55-4.57-7.48-8.86-10.37-13.93h13.48C324.39,400.8,326.92,400.87,328,403.83Z"/>
    <path class="cls-49" d="M346.37,515.72c-3.69.44-5.47,3.34-7.54,5.88L325,538.53c1.62,2.58,4.59,1.17,6.17,2.9l-12.41.32c7.58-10.15,15.24-20.23,24.39-29.06A4.79,4.79,0,0,1,346.37,515.72Z"/>
    <path class="cls-17" d="M329.53,428.37c4-.63,5.37-4.35,7.56-6.93,5.67-6.69,11.06-13.63,16.56-20.47l3.77.07a267.86,267.86,0,0,1-24.8,30.4C331.29,430.72,330,430,329.53,428.37Z"/>
    <path class="cls-11" d="M369.4,478.87l18.9-23.16L383,453.15l11,.06c-4.63,8.64-12.24,14.94-17.89,22.77-1.49,2.06-3.43,3.8-4,6.41A7.36,7.36,0,0,1,369.4,478.87Z"/>
    <path class="cls-50" d="M384.66,564.75c-5.06,1.43-7,6.29-10.09,9.69-5.56,6.08-10.44,12.78-15.61,19.21h-3.61c8.37-11,17-21.77,26.37-32C383,562.45,384.24,563.19,384.66,564.75Z"/>
    <path class="cls-51" d="M361.3,431.6a48.71,48.71,0,0,0-14.93,18.21l-3.23-4.41c7.05-7,13.74-14.29,18.28-23.27.13,2.09.25,4.18.38,6.27C361.63,429.47,361.46,430.53,361.3,431.6Z"/>
    <path class="cls-29" d="M352.74,560.08c.94.38,2.14.89,2.81,0,4.3-5.46,10.19-9.79,12.28-16.86a12,12,0,0,1,3.24,4.44l-16.86,18.69-1.57-3.52C352.67,561.94,352.7,561,352.74,560.08Z"/>
    <path class="cls-22" d="M358.42,531.2c-5.66,4.53-9.85,10.26-13.47,16.46l-3.28-2.73a173,173,0,0,0,14-17C356.57,529,357.5,530.1,358.42,531.2Z"/>
    <path class="cls-13" d="M355.76,461.92c5.81-3.67,8.66-10,13.35-14.7a5.82,5.82,0,0,1,3.56,2.25c-6.07,4-9.31,10.51-14.06,15.68Z"/>
    <path class="cls-47" d="M406.13,408.38c1.31-5.67,5.07-7.78,10.63-7.62,5.08.16,10.17.05,15.26.06-4.78,8.63-11.51,15.71-18.13,22.87-1.47-4.35-1.95-9.19-6.07-12.23Z"/>
    <path class="cls-52" d="M406.13,408.38l1.69,3.08-3.31,1.4L400,414.91c-9.19,1.35-1.9-7.27-6.09-9.46-2.32,1.64-3.71,4.24-4.91,7-4.92-.41-5.55-4.89-7.59-8l.05-2.41C390.86,399.46,399.07,401.7,406.13,408.38Z"/>
    <path class="cls-53" d="M381.42,402l-.05,2.41c-1.28,1.07-1.46,2.54-1.6,4.09-.74,7.8-.75,7.8-8.36,5l-2.11-.83-1.56-2.74c2.59-3.93,6.44-6.09,10.76-7.57Z"/>
    <path class="cls-54" d="M496.05,388.38c-3.48-4.22-7.83-7.47-3.28-13.15,2-2.49,3.05-2.67,5.25-.39,3.47,3.59,5.88,6.82.16,10.47C497.4,385.8,497,386.93,496.05,388.38Z"/>
    <path class="cls-22" d="M545.13,380.24a16.15,16.15,0,0,0,7-6.59c7.86,6.71,7.86,6.71,4,10.87C553.07,387.79,553.07,387.79,545.13,380.24Z"/>
    <path class="cls-35" d="M413.89,423.69c6.62-7.16,13.35-14.24,18.13-22.87l3,1.41c-5.52,9.88-13.06,18.15-21,26.1a.86.86,0,0,1-.74.16C413.5,426.89,413.7,425.29,413.89,423.69Z"/>
    <path class="cls-54" d="M467.69,388.08c-1.32-3.68-6.21-4.38-6.08-7.82.13-3.21,4.87-3.5,5.52-6.64,3,.13,2.23,2.75,3.43,3.91s3.49,1.09,4.13,3.62A17.62,17.62,0,0,0,467.69,388.08Z"/>
    <path class="cls-17" d="M530.38,380.92c-2.31,1.28-2.48,5.42-5.53,5.95s-4.1-3.17-6.11-4.92c-.5-.44,4.92-7.17,5.8-7.24S530.21,379.39,530.38,380.92Z"/>
    <path class="cls-43" d="M411.45,385c-2.81-.66-4.64-2-4-4.73.58-2.36,1.38-5.79,3.95-5.74s4.72,2.88,4.69,5.79S413.86,384.55,411.45,385Z"/>
    <path class="cls-55" d="M362.4,387.42c-1.76-5.34-4-9.36-.12-11.59s5,3.75,9.17,4.14C368.47,383.17,364.66,383.13,362.4,387.42Z"/>
    <path class="cls-54" d="M438.65,374.46c3.85,1.25,5.22,4.58,9.6,5.19l-8.92,7.64C437.28,382.7,439.24,378.86,438.65,374.46Z"/>
    <path class="cls-30" d="M170.29,483.55c2.82-2.31,6.9-3.91,2.43-8.71-2.23-2.4,1.46-5.91.28-9.06-.09-.25.95-1.15,1.59-1.38,1.16-.41,1.93.26,2.19,1.41.45,2,.7,4,3.27,5.57,1.68-3.53,3.33-8,8.61-4.69h0c4.81,3,5.48,6.8,2.16,11.25-1.6,2.15-1.87,4.14.16,6,1.18,1.06,3,3.82,4,2.14,2.29-3.71,6.48-1.72,9-4h0c.21,1.17.11,3.33,1.66,2.79,8-2.76,3.3,2.92,2.28,3.9-4.57,4.33-7.11,10.36-12.35,14.09-4,2.85-3.87,8.89-8.44,11.4-3.33-2.06-1.09-4.1,0-6.14a19.85,19.85,0,0,0-4.28-11c-.79-1-1.73-2.75-2.44-2.67C172,495.35,173.64,487.14,170.29,483.55Z"/>
    <path class="cls-55" d="M187.14,508.07c-1.1,2-3.34,4.08,0,6.14-1.74.81-4.3,4.6-6.13,7.92-2,3.58-5.53,5.85-8.1,9-6,7.46-9.94,16.7-18.56,21.92-.23-.4-.74-1.09-.66-1.17,5.82-5.69,2-10.21-1.74-14.73,1.09-3.77,4.07-8.78,6.88-7.51,7.26,3.26,10.33-1.37,14.58-5.09l-8.87-8.15c-1.89,2.72-3.34,5.14-5.87,6.5-5.68,3.07-8.25,7.91-8.26,14.25-2.44-7.17-3.6-14.15,3-19.93,3.37-3.93,7.65-4.33,12.58-4.11,8.44.38,8.65-.1,9.29-7.24,2.46,3.16,5,4.74,8.24,1.65C184.11,507.05,185.91,507.87,187.14,508.07Z"/>
    <path class="cls-30" d="M188.66,466.69c1.25-1.38,2.64-2.66,3.07-4.59,3.79-1.16,8.4-3.85,7.42,3.95a2,2,0,0,0,1.19,2.43c7.23,3.18,16.71-3.35,15.88-11l1.53-1.53c1.18,2.74,2.92,3.95,5.77,2.13,1.84,3.46,3.24,8.18,1,10.58s-2.9,11.13-10.1,5.36c-1.3-1-1.65,1.15-1.56,1.61,1.06,5.76-3.21,5.31-6.64,5.88-.74.12-1.47.33-2.21.5h0c-3-3.29-7.73-5.35-8.45-10.17-.66-4.44-3.26-5.18-6.84-5.15Z"/>
    <path class="cls-30" d="M217.75,456l-1.53,1.53-12-8.69c4.1-.93,5-4.35,8.15-5.69,6.67-2.83,6.56-3.08,6.89,4.44,5.14-.42,5.08-6.49,9.42-8.69.9,5.73-1.3,9.53-5.33,12.23C221.27,452.52,219.07,453.68,217.75,456Z"/>
    <path class="cls-23" d="M150.4,537.19c0-6.34,2.58-11.18,8.26-14.25,2.53-1.36,4-3.78,5.87-6.5l8.87,8.15c-4.25,3.72-7.32,8.35-14.58,5.09-2.81-1.27-5.79,3.74-6.88,7.51Z"/>
    <path class="cls-30" d="M191.73,462.1c-2.08.08-4.8,2-5.74-1.49-.85-3.11,1.68-3.48,3.88-4.44,6.22-2.74,6.33-3.68,1.85-7.87,4,.54,7.19-1,9.92-4.14-.82,5.19-1.93,9.93-6.81,12.6C192.7,457.92,190.88,459.22,191.73,462.1Z"/>
    <path class="cls-47" d="M308.16,586.16c-2.59,5.63-6.71,8.37-13.14,7.79-4.74-.42-9.54-.13-14.32-.16,5.51-9,12.55-16.73,19.68-24.39l1.23,2A18.44,18.44,0,0,0,307.93,585,3.7,3.7,0,0,0,308.16,586.16Z"/>
    <path class="cls-35" d="M282.32,614c-3.84,1.32-3.74,9.5-9.58,5.72-2.78-1.81-5.53-4.84-2-8.94C276.54,604.07,278.41,612.23,282.32,614Z"/>
    <path class="cls-56" d="M308.16,586.16a3.7,3.7,0,0,1-.23-1.19l1.6-3c9.86-4,9.86-4,9.26,6.58,0,.25,0,.5,0,.74l1.48,2.82c-3.23,1.63-5.66-1.42-8.6-1.49C311.52,588.36,310,587.13,308.16,586.16Z"/>
    <path class="cls-10" d="M303.21,621.11c-7.13-6.85-7.21-7.55-2.45-12.24,3.07-3,4.46,0,6.09,1.53C310.53,613.93,310.46,614,303.21,621.11Z"/>
    <path class="cls-20" d="M300.38,569.4c-7.13,7.66-14.17,15.4-19.68,24.39l-4.85,0c8.07-9.76,15.54-20,24.37-29.14C300.27,566.26,300.32,567.83,300.38,569.4Z"/>
    <path class="cls-51" d="M170.08,614.25c-4,1.39-5.88,9.6-12,2.5-3.76-4.39.37-5.5,2-6.89C166.26,604.47,165.88,614.3,170.08,614.25Z"/>
    <path class="cls-22" d="M212,614.05c.27-1.69,2.11-1.86,3.26-2.71,1.47-1.08,1.92-4.48,4.44-3a15.49,15.49,0,0,1,5.14,5.46c1.37,2.32-1.28,2.79-2.62,3.67-1.71,1.11-3,4.15-5.67,1.7C214.92,617.63,213.56,615.8,212,614.05Z"/>
    <path class="cls-10" d="M253.37,613.7c-1.33,2.63-3.34,4.92-6,5s-5.85-1.93-6.24-4.44c-.44-2.82,2.6-5.08,5.21-5.52C249.58,608.22,251.39,611.2,253.37,613.7Z"/>
    <path class="cls-17" d="M194.91,614.28c-.24,2.63-1.9,5.07-4.24,5.37-2.56.32-4.79-2.21-5-4.73-.21-2.8,2.52-4.35,4.87-5C193.66,609.13,193.94,612.13,194.91,614.28Z"/>
    <path class="cls-57" d="M482.6,163.26l3.08,3.07a16.9,16.9,0,0,1-8.24-.14c-4-1.08-5.4.48-5.58,4.51-.4,9.14-2.26,11.09-10.29,11.88-.74,4.53,6.19,6.14,4.23,11.14l-78.21,0a3.12,3.12,0,0,1,.44-2.86c3-4,1.36-5.73-2.95-5.35-4,.35-4.95-.63-3.72-4.63,1.67-5.4-1-11.4,1.92-16.74-6.09-5.33,2.27-4.44,3.06-6.82.09-.25,1.11.66,1.36,1.38,1.74,4.33,6.71,8,2.32,13.36,2.27,1.25,6.22-.92,5.76.51-2.08,6.44,1.35,4.23,4.39,3.52.33-.08,1.1,1.53,1.59,2.4,1.18,2.08,2.54,3.81,6,3.18-2.48-4.74-3.91-9.79-9.44-11.86a6.23,6.23,0,0,1-1.62-1.38c4.07-4.78-2.55-4.07-3.67-6.59,4.26-3,8.32-4.77,11.79.34,1.85,2.72,4.08,2,6.64,2.19-1.41-1.89-.18-6-1.2-5.48-6.22,3.19-6.52-3.55-10-5.29-2.85,2-5,5.91-9.5,5.09,1.52-2-.11-4.47.73-7-1.77-1.5-4.16,1-6.11-.3-.19-.44-.62-1.2-.52-1.29,2.9-2.3,3.26-11.4,10.17-4,.2.21,4.21-1.62,6.74-2.16,5.57-1.19,7.41,1.56,8.93,5.75.87,2.39,1.81,4.76,2.75,7.13.62,1.56,1.71,2.84,3.46,2.21,4.64-1.67,6.91,1.53,9.62,4.38-.59-4.59.26-9.57-6.67-10.31-3.59-.38-6-3.36-7.81-6.72,4.15-1.95,9.29-3.1,11.73-2.49,6.81,1.7,13.64-6,19.87.56,6.11-3.09,12.68-2.06,19.14-2.3,3.05-.12,5.52.41,7.56,2.68-.66,1.27-3.11,3.86.11,3.39,3.55-.51,4.77,1.45,4.54,3.16-.58,4.56,3.55,4.11,5.43,5.8-.2,2.58-5.61,2-3.16,5.78C478.92,165.56,480.79,163.85,482.6,163.26Z"/>
    <path class="cls-17" d="M482.6,163.26c-1.81.59-3.68,2.3-5.34-.27-2.45-3.78,3-3.2,3.16-5.78-1.88-1.69-6-1.24-5.43-5.8.23-1.71-1-3.67-4.54-3.16-3.22.47-.77-2.12-.11-3.39,6-.92,11.69-3,17.91-2.71,7.81.3,15.64-.11,23.47-.21.12,2.49-1.75,4.07-3.29,6.72,3.51-.44,6.89-2.46,9.38.81h0c-2.25.34-4.52.6-6.74,1.08-.8.17-2.47.84-1.18,1.85,2.68,2.1,1.63,2.27-.83,2.82-6.83,1.55-13.21,1.83-18.13-5.09.6,3.73,3.78,6.89.68,10.48C489.1,163.51,486,163.8,482.6,163.26Z"/>
    <path class="cls-58" d="M390.75,158.66c4.5.82,6.65-3.06,9.5-5.09,3.49,1.74,3.79,8.48,10,5.29,1-.53-.21,3.59,1.2,5.48-2.56-.18-4.79.53-6.64-2.19-3.47-5.11-7.53-3.34-11.79-.34,1.12,2.52,7.74,1.81,3.67,6.59a6.23,6.23,0,0,0,1.62,1.38c5.53,2.07,7,7.12,9.44,11.86-3.46.63-4.82-1.1-6-3.18-.49-.87-1.26-2.48-1.59-2.4-3,.71-6.47,2.92-4.39-3.52.46-1.43-3.49.74-5.76-.51,4.39-5.37-.58-9-2.32-13.36Z"/>
    <path class="cls-17" d="M465.8,193.72c2-5-5-6.61-4.23-11.14,8-.79,9.89-2.74,10.29-11.88.18-4,1.58-5.59,5.58-4.51a16.9,16.9,0,0,0,8.24.14c8.21,4.8,13.19.82,16.7-7.28,6.42,7.38-3.27,7-3.54,10.92,7.1-1.06,8.93,8.55,16.62,8.05-4.86,1.65-9.29,2.87-7.88,9.51-2.91-1.81-1.25-4.16-2.79-5.33-1.8,5.1-1.8,5.1.74,11.53Z"/>
    <path class="cls-14" d="M479.55,570.88c-.3-3.8.15-7.78-3-11.42,7.16-.36,8.25,5.8,11.49,9.48,2.63-.1,2.2-3,3.71-4.15.56,1.43,1.12,1.44,1.68,0,5.13,7.7,5.13,7.7-3.09,11.62-1.56.74-3.13,1.45-4.7,2.18C482.7,576.71,480.17,574.54,479.55,570.88Z"/>
    <path class="cls-11" d="M552.93,518.69c-1.55,4.14-7.91,5.25-6,11.83-4-3.25-3.11-9.22-8.49-9.66-2,2.19,2.07,6-2.27,7.14v0c-3.59-3.48-4.79-6.83.58-9.76a2.86,2.86,0,0,0,1.81-2.84c.16-4.94,2.49-6.8,8.4-7.3a8.49,8.49,0,0,1-1.08,2.74c-2.23,2.46-2,4.25.1,7C548.44,521.16,550.46,519.89,552.93,518.69Z"/>
    <path class="cls-59" d="M510.11,532.62c3.64-3.12,10.5-3.48,9.25-10.79l3,0c3.1,3.59,4.91,8.36,1.52,11.62-3,2.87-6,8.84-12.27,5.2C514.91,535.72,510.86,534.58,510.11,532.62Z"/>
    <path class="cls-8" d="M536.16,528c.67,1.35,1,3.26,2.07,4,5.25,3.32,3.4,5.43-.35,8.75-2.82,2.49-4.24,2.76-6.61,0-1.31-1.49-3.07-2.6-5.76-4.82,5.89-1.11,6.11-6.85,10.66-7.91Z"/>
    <path class="cls-58" d="M522.37,521.86l-3,0-6.31-8a26.78,26.78,0,0,0,3.69-2.52c3.53-3.3,8-2.59,10,1.62.74,1.54,0,2.37-1,3.16A8.69,8.69,0,0,0,522.37,521.86Z"/>
    <path class="cls-42" d="M513.3,558.39c6.74-7.7,6.5-7.4,11.28-3.6,3.52,2.82,1.83,4.46-.32,6.59C518.53,567.05,516.85,560.17,513.3,558.39Z"/>
    <path class="cls-23" d="M479.55,570.88c.62,3.66,3.15,5.83,6.05,7.71l-1.47,3.07c-2.88-.21-3.11,6.77-7.68,2.59-3.21-2.93-6.17-5.19-.86-8.78A6.47,6.47,0,0,0,478,570.9Z"/>
    <path class="cls-34" d="M493.39,564.79c-.56,1.44-1.12,1.43-1.68,0-5.5-7.27-5.5-7.27.75-13.71l6.87,6.54Z"/>
    <path class="cls-34" d="M510.11,532.62c.75,2,4.8,3.1,1.51,6.06-5.32,5.75-8.38.35-13.17-2.74C503,534.5,504,526.28,510.11,532.62Z"/>
    <path class="cls-15" d="M552.93,518.69c-2.47,1.2-4.49,2.47-6.95-.8-2.09-2.78-2.33-4.57-.1-7a8.49,8.49,0,0,0,1.08-2.74l1.41-1.6a24.63,24.63,0,0,0,9.2,7.62C555.58,515.21,553.55,516.23,552.93,518.69Z"/>
    <path class="cls-17" d="M517.81,149.47l7.21-1.83c2.15,1.62-1.48,4.75,1.92,5.88,2.38.79,4.19-1,6.56-1.59.6,3.91-3.2,6.93-.67,10.63-3.4-3.22-9.16-2.79-10.26-8.8-.63-3.42-4.78-.8-7.44-1.92l2.68-2.37Z"/>
    <path class="cls-59" d="M318.79,589.32c0-.24,0-.49,0-.74.6-10.57.6-10.57-9.26-6.58-2.26-2.64.67-3.89,1.58-5.61s3.52-3.14,1.59-5.75c1.11-4.81,5.26-6.9,9-8.71,6-2.94,10.95,1.4,10,8.2-.14,1-.92,1.86.33,2.74,2.6.15,3.38-2.72,5.49-3.54,1.93-.75,3.44-.83,4.29,1.41-1.7,3,1.11,4.34,2.22,6.3.88,1.56,3.13,2.79,1,4.94l-9.28-3.28c-3.15,3.26-.87,7.35-1.66,11-.37-.32-.76-.64-1.13-1-2-1.83-2.48-5.66-5.29-6-3.12-.35-3.46,3.71-5.42,5.46A4,4,0,0,1,318.79,589.32Z"/>
    <path class="cls-50" d="M372.61,614.59c3.71-.77,2.76-10.21,9.08-5,2,1.66,6.56,3,2,8C377.42,624.47,376.21,616.91,372.61,614.59Z"/>
    <path class="cls-60" d="M318.79,589.32a4,4,0,0,0,3.37-1.13c2-1.75,2.3-5.81,5.42-5.46,2.81.31,3.27,4.14,5.29,6,.37.33.76.65,1.13,1-3.2,5.07-5.36,5.46-13.73,2.47Z"/>
    <path class="cls-61" d="M335.66,578.7l9.28,3.28,2.87,1.17c-2.54,5.09-7,7.64-12.18,9.23Z"/>
    <path class="cls-9" d="M351.64,620c-3.06-.88-5.33-2.9-5.75-5.56a5.67,5.67,0,0,1,5.09-6.32c2.92-.17,5.49,3.17,5.76,5.92S353.47,618,351.64,620Z"/>
    <path class="cls-21" d="M350.77,785.54c3.52-.52,7.75.69,9.58-3.93,5.8,4.16,11.24-3.2,17-.54-7.25,3.88-13.46,8.81-16.87,18.29C357,793.81,354.32,789.32,350.77,785.54Z"/>
    <path class="cls-15" d="M548.64,477.7c-1.25-1.54-2.45-3.12-3.75-4.62-3.21-3.69.61-5.29,2.25-7.46,2.6-3.45,3.49,0,4.89,1.33C556.2,471.06,556.21,471.05,548.64,477.7Z"/>
    <path class="cls-15" d="M542.31,492c-3.13,2.9-4.14,8.68-9.62,4.42-2-1.59-4.26-3.39-2-6.16C534.91,485.14,538.08,489.6,542.31,492Z"/>
    <path class="cls-62" d="M344.82,727l15.34.27c-.54,2.85,0,6.28-4.67,6.37C350.29,733.7,346.65,731.7,344.82,727Z"/>
    <path class="cls-63" d="M366.27,262.43a3.7,3.7,0,0,0,1.35.51c1.46,2,4.09,4.41-1.13,4.74a53,53,0,0,1-7.56-.17c-2-.15-3.33-1.27-3.16-3.46s2-2.86,3.82-2.73A66.45,66.45,0,0,1,366.27,262.43Z"/>
    <path class="cls-56" d="M269.6,727.44a69.71,69.71,0,0,1,13.7-.29c2.09.09,3.28,1.07,3.17,3.36s-1.55,3-3.53,3c-5.52.27-9.85-2-13.23-6.24Z"/>
    <path class="cls-5" d="M386.16,828.36c.47-.18.95-.36,1.42-.56,2.63-1.14,4.36-5.62,8.29-1.95,2.44,2.28.53,4.2-.16,6.12-1.35,3.72-3.09,7.19-8.12,6.33-1.29-.22-2.6-.33-3.14-1.73s.22-2.27,1.61-2.83c4.16-1.68.52-3.56.09-5.37Z"/>
    <path class="cls-5" d="M386.15,828.37c-2.64,2.69-8.44,2.19-7.16,9.41-3.22-2.6-6.38-4.13-5.35-6.94,1.35-3.68,5.63-4.83,9.05-6.14,2.62-1,3.18,1.57,3.47,3.66Z"/>
    <path class="cls-52" d="M443.62,266.72c-4.67,1.64-8.44,1.1-12.18.88-2.06-.11-3.29-1.24-3.19-3.4s1.67-2.94,3.61-3C436.31,261.05,440.22,262.14,443.62,266.72Z"/>
    <path class="cls-64" d="M300.38,569.4c-.06-1.57-.11-3.14-.16-4.71,2.15-4.06,2-9.29,6.18-12.33l.07.1c1.53,2,3,4.13,4.6,6.06,3,3.57,2.47,5.61-2.22,6.82-1.64.42-5.37,0-3.67,4l-3.57,2.11Z"/>
    <path class="cls-56" d="M318.77,541.75l12.41-.32c1.53.48,3.41.17,4.37,2l.13-.14c-3.7,2.4-4.64,7.25-8.43,9.67-3.93-2.38-4.67-7.44-8.58-9.64l-1.44,0Z"/>
    <path class="cls-60" d="M317.23,543.31l1.44,0c.94,13.09.94,13.09-11.48,9.37l-.72-.18-.07-.1C308.58,547.63,312.64,545.15,317.23,543.31Z"/>
    <path class="cls-65" d="M409.48,440.8c-3,5.74-7.38,9.57-13.82,10.84l-.28-.18q.14-6.78.29-13.57c3.57.6,6.77,4.52,10.77,1.21Z"/>
    <path class="cls-52" d="M409.48,440.8l-3-1.7c-6.82-7.78-6.57-8.5,3.72-10.76a14.85,14.85,0,0,1,1.51-.15l1.64.3a.86.86,0,0,0,.74-.16C413.17,432.72,412.77,437.29,409.48,440.8Z"/>
    <path class="cls-60" d="M393.94,453.21l-11-.06a6.37,6.37,0,0,1-1.4-.52c0-1-.05-2-.08-3,.48-.87.9-1.77,1.43-2.6,4.18-6.49,4.3-6.48,8.82-.27,1.16,1.6,2.42,3.13,3.63,4.69l.28.18Z"/>
    <path class="cls-66" d="M347.81,583.15,344.94,582c2.14-2.15-.11-3.38-1-4.94-1.11-2-3.92-3.34-2.22-6.3,3.71-.9,7.75-1,10.57-4.13l.34-3.74,1.57,3.52C353.18,572.4,353,578.73,347.81,583.15Z"/>
    <path class="cls-53" d="M367.74,409.9l1.56,2.74c-.89,4.52,3.44,6.39,4.92,9.71-3.1,3-8.49,1.74-10.89,6l-1.53.08c-.13-2.09-.25-4.18-.38-6.27C362.36,417.45,364.1,413.19,367.74,409.9Z"/>
    <path class="cls-52" d="M341.67,544.93l3.28,2.73c1.19,1.47,2.82,2.63,3.18,4.66l-.17.14c-4.07-.48-7.88,4.72-11.15,2.16s-1-7.48-1.13-11.38l-.13.14C337.83,543,339.63,544.4,341.67,544.93Z"/>
    <path class="cls-67" d="M381.5,449.64c0,1,.05,2,.08,3-3.3-.13-5.94-2.11-8.91-3.16a5.82,5.82,0,0,0-3.56-2.25l-3.37-5.11a6,6,0,0,0,.74-.13c3.61-1.06,7.45-3.45,10.77-2.87,5.31.92.56,7.26,3.7,10Z"/>
    <path class="cls-68" d="M352.64,562.87l-.34,3.74c-12.95-2.32-12.95-2.32-5.14-12.87.3-.41.54-.86.8-1.28l.17-.14c2.79,1.84,3.43,5,4.61,7.76C352.7,561,352.67,561.94,352.64,562.87Z"/>
    <path class="cls-69" d="M381.5,449.64l-.55-.51c-3.14-2.76,1.61-9.1-3.7-10-3.32-.58-7.16,1.81-10.77,2.87a6,6,0,0,1-.74.13l-1.05-1.43a8.87,8.87,0,0,0,7.88-8.82c-.11-3.07-5.35-2.76-8.48-3.49a4.77,4.77,0,0,0-.76-.05c2.4-4.23,7.79-3,10.89-6,4.13,7.2,4.13,7.2,10.42,2.95a8,8,0,0,1,6,5.16,22.32,22.32,0,0,0,5,7.43q-.15,6.8-.29,13.57c-1.21-1.56-2.47-3.09-3.63-4.69-4.52-6.21-4.64-6.22-8.82.27C382.4,447.87,382,448.77,381.5,449.64Z"/>
    <path class="cls-56" d="M363.33,428.32a4.77,4.77,0,0,1,.76.05c3.13.73,8.37.42,8.48,3.49a8.87,8.87,0,0,1-7.88,8.82,29.83,29.83,0,0,1-3.39-9.08c.16-1.07.33-2.13.5-3.2Z"/>
    <path class="cls-66" d="M413.31,428.49l-1.64-.3c-1.42-2.44-4-2.88-6.38-3.45-4-1-5-2.55-2.17-6.09,1.16-1.47,4.68-3,1.39-5.79l3.31-1.4c4.12,3,4.6,7.88,6.07,12.23C413.7,425.29,413.5,426.89,413.31,428.49Z"/>
    <path class="cls-44" d="M404.51,412.86c3.29,2.78-.23,4.32-1.39,5.79-2.78,3.54-1.85,5.12,2.17,6.09,2.38.57,5,1,6.38,3.45a14.85,14.85,0,0,0-1.51.15c-10.29,2.26-10.54,3-3.72,10.76-4,3.31-7.2-.61-10.77-1.21a22.32,22.32,0,0,1-5-7.43,8,8,0,0,0-6-5.16c1.53-3.57,5.93-5.91,4.58-10.72a40,40,0,0,0,4.9,3.48c3.27,1.68,5.28.48,5.84-3.15Z"/>
    <path class="cls-69" d="M389.22,414.58c1.35,4.81-3.05,7.15-4.58,10.72-6.29,4.25-6.29,4.25-10.42-2.95-1.48-3.32-5.81-5.19-4.92-9.71l2.11.83c7.61,2.82,7.62,2.82,8.36-5,.14-1.55.32-3,1.6-4.09,2,3.14,2.67,7.62,7.59,8Z"/>
    <path class="cls-33" d="M389.22,414.58l-.26-2.15c1.2-2.74,2.59-5.34,4.91-7,4.19,2.19-3.1,10.81,6.09,9.46-.56,3.63-2.57,4.83-5.84,3.15A40,40,0,0,1,389.22,414.58Z"/>
    <path class="cls-7" d="M188.68,466.7c3.58,0,6.18.71,6.84,5.15.72,4.82,5.47,6.88,8.45,10.17-2.48,2.31-6.67.32-9,4-1,1.68-2.83-1.08-4-2.14-2-1.82-1.76-3.81-.16-6C194.16,473.5,193.49,469.67,188.68,466.7Z"/>
    <path class="cls-65" d="M301.61,571.41l3.57-2.11,7.52,1.34c1.93,2.61-.62,3.92-1.59,5.75s-3.84,3-1.58,5.61l-1.6,3A18.44,18.44,0,0,1,301.61,571.41Z"/>
    <path class="cls-51" d="M312.7,570.64l-7.52-1.34c-1.7-4,2-3.54,3.67-4,4.69-1.21,5.24-3.25,2.22-6.82-1.63-1.93-3.07-4-4.6-6.06l.72.18c12.42,3.72,12.42,3.72,11.48-9.37,3.91,2.2,4.65,7.26,8.58,9.64,3.79-2.42,4.73-7.27,8.43-9.67.09,3.9-2,8.93,1.13,11.38s7.08-2.64,11.15-2.16c-.26.42-.5.87-.8,1.28-7.81,10.55-7.81,10.55,5.14,12.87-2.82,3.16-6.86,3.23-10.57,4.13-.85-2.24-2.36-2.16-4.29-1.41-2.11.82-2.89,3.69-5.49,3.54-1.25-.88-.47-1.77-.33-2.74,1-6.8-4-11.14-10-8.2C318,563.74,313.81,565.83,312.7,570.64Z"/>
  </g>
</svg>
