<svg xmlns="http://www.w3.org/2000/svg" xmlns:xlink="http://www.w3.org/1999/xlink" viewBox="0 0 720 1008">
  <defs>
    <style>
      .cls-1 {
        fill: #fff;
      }

      .cls-2 {
        fill: #333;
      }
    </style>
    <symbol id="SS2-3" data-name="SS2" viewBox="0 0 15.84 22.31">
      <path d="M7.92,22.31c2.23-5.58,7.92-8.93,7.92-15.28A3.35,3.35,0,1,0,9.15,7a.22.22,0,0,1-.23.22A.22.22,0,0,1,8.7,7c0-4.46,1.12-4.8,2.12-7H5C6,2.23,7.14,2.57,7.14,7a.22.22,0,0,1-.22.22A.22.22,0,0,1,6.69,7,3.35,3.35,0,1,0,0,7C0,13.38,5.69,16.73,7.92,22.31Z"/>
    </symbol>
  </defs>
  <g id="Layer_2" data-name="Layer 2">
    <g>
      <rect class="cls-1" x="1.5" y="1.5" width="717" height="1005" rx="48.5"/>
      <path class="cls-2" d="M670,3a47,47,0,0,1,47,47V958a47,47,0,0,1-47,47H50A47,47,0,0,1,3,958V50A47,47,0,0,1,50,3H670m0-3H50A50,50,0,0,0,0,50V958a50,50,0,0,0,50,50H670a50,50,0,0,0,50-50V50A50,50,0,0,0,670,0Z"/>
    </g>
    <g id="SS2-2" data-name="SS2">
      <path d="M197.65,90.59c-16.59,41.47-58.88,66.35-58.88,113.61a24.88,24.88,0,0,0,49.76,0,1.66,1.66,0,0,1,3.31,0c0,33.17-8.29,35.66-15.75,52.25h43.12c-7.46-16.59-15.76-19.08-15.76-52.25a1.66,1.66,0,0,1,3.32,0,24.88,24.88,0,0,0,49.76,0C256.53,156.94,214.23,132.06,197.65,90.59Z"/>
      <path d="M196.06,288c-16.59,41.47-58.88,66.35-58.88,113.61a24.88,24.88,0,1,0,49.75,0,1.66,1.66,0,1,1,3.32,0c0,33.17-8.29,35.66-15.75,52.25h43.12c-7.47-16.59-15.76-19.08-15.76-52.25a1.66,1.66,0,1,1,3.32,0,24.88,24.88,0,1,0,49.75,0C254.93,354.3,212.64,329.42,196.06,288Z"/>
      <path d="M253.71,573.58a24.36,24.36,0,0,0-48.72,0,1.63,1.63,0,1,1-3.25,0c0-32.48,8.12-34.92,15.43-51.16H174.94c7.31,16.24,15.43,18.68,15.43,51.16a1.63,1.63,0,1,1-3.25,0,24.36,24.36,0,0,0-48.72,0c0,46.29,41.41,70.65,57.66,111.26C212.3,644.23,253.71,619.87,253.71,573.58Z"/>
      <path d="M253.71,787.21a24.36,24.36,0,0,0-48.72,0,1.63,1.63,0,1,1-3.25,0c0-32.48,8.12-34.92,15.43-51.16H174.94c7.31,16.24,15.43,18.68,15.43,51.16a1.63,1.63,0,1,1-3.25,0,24.36,24.36,0,0,0-48.72,0c0,46.29,41.41,70.65,57.66,111.26C212.3,857.86,253.71,833.5,253.71,787.21Z"/>
      <path d="M527.91,104.19C511.32,145.66,469,170.53,469,217.8a24.88,24.88,0,1,0,49.76,0,1.66,1.66,0,1,1,3.31,0c0,33.17-8.29,35.66-15.75,52.25h43.12C542,253.46,533.71,251,533.71,217.8a1.66,1.66,0,1,1,3.32,0,24.88,24.88,0,1,0,49.76,0C586.79,170.53,544.49,145.66,527.91,104.19Z"/>
      <path d="M526.32,301.55c-16.59,41.47-58.88,66.34-58.88,113.61a24.88,24.88,0,0,0,49.76,0,1.66,1.66,0,1,1,3.31,0c0,33.17-8.29,35.66-15.75,52.25h43.12c-7.46-16.59-15.76-19.08-15.76-52.25a1.66,1.66,0,0,1,3.32,0,24.88,24.88,0,1,0,49.76,0C585.2,367.89,542.9,343,526.32,301.55Z"/>
      <path d="M360.5,197.78c-16.59,41.47-58.88,66.34-58.88,113.61a24.88,24.88,0,0,0,49.76,0,1.66,1.66,0,0,1,3.32,0c0,33.17-8.3,35.66-15.76,52.24h43.12c-7.46-16.58-15.76-19.07-15.76-52.24a1.66,1.66,0,0,1,3.32,0,24.88,24.88,0,0,0,49.76,0C419.38,264.12,377.09,239.25,360.5,197.78Z"/>
      <path d="M584,587.18a24.36,24.36,0,0,0-48.72,0,1.63,1.63,0,1,1-3.25,0c0-32.48,8.12-34.92,15.43-51.16H505.2c7.31,16.24,15.43,18.68,15.43,51.16a1.63,1.63,0,1,1-3.25,0,24.36,24.36,0,0,0-48.72,0c0,46.29,41.41,70.65,57.66,111.26C542.56,657.83,584,633.47,584,587.18Z"/>
      <path d="M418.16,677.21a24.37,24.37,0,0,0-48.73,0,1.63,1.63,0,1,1-3.25,0c0-32.48,8.13-34.92,15.43-51.16H339.39c7.3,16.24,15.43,18.68,15.43,51.16a1.63,1.63,0,1,1-3.25,0,24.37,24.37,0,0,0-48.73,0c0,46.29,41.42,70.65,57.66,111.26C376.74,747.86,418.16,723.5,418.16,677.21Z"/>
      <path d="M584,800.81a24.36,24.36,0,0,0-48.72,0,1.63,1.63,0,1,1-3.25,0c0-32.48,8.12-34.92,15.43-51.16H505.2c7.31,16.24,15.43,18.68,15.43,51.16a1.63,1.63,0,1,1-3.25,0,24.36,24.36,0,0,0-48.72,0c0,46.29,41.41,70.65,57.66,111.26C542.56,871.46,584,847.1,584,800.81Z"/>
      <g>
        <path d="M66.84,133.38h-24v-13H52V54.18H42.81v-13H57.88v79.2h9Z"/>
        <path d="M74.24,103.57V70.9q0-12.77,4.14-22t10.1-9.24q6,0,10.09,9.24t4.15,22v32.67q0,12.77-4.15,22.16t-10.09,9.41q-6,0-10.1-9.41T74.24,103.57Zm6-32.67v32.67a32.62,32.62,0,0,0,2.4,13q2.41,5.57,5.83,5.56t5.82-5.61a32.6,32.6,0,0,0,2.41-13V70.9A31,31,0,0,0,94.3,58.14q-2.4-5.39-5.82-5.39t-5.83,5.39A31.18,31.18,0,0,0,80.25,70.9Z"/>
      </g>
      <g>
        <path d="M657,866h24v13h-9.16v66.22H681v13H665.93V879h-9Z"/>
        <path d="M649.57,895.79v32.67q0,12.75-4.14,22t-10.1,9.24q-6,0-10.1-9.24t-4.14-22V895.79q0-12.76,4.14-22.17t10.1-9.4q6,0,10.1,9.4T649.57,895.79Zm-6,32.67V895.79a32.49,32.49,0,0,0-2.41-13q-2.4-5.55-5.82-5.55t-5.83,5.61a32.74,32.74,0,0,0-2.4,13v32.67a31.21,31.21,0,0,0,2.4,12.76q2.41,5.38,5.83,5.39t5.82-5.39A31,31,0,0,0,643.56,928.46Z"/>
      </g>
    </g>
    <use width="15.84" height="22.31" transform="translate(622.08 774.34) scale(3.66)" xlink:href="#SS2-3"/>
    <use width="15.84" height="22.31" transform="translate(97.92 225.66) rotate(180) scale(3.66)" xlink:href="#SS2-3"/>
  </g>
</svg>
